<svg width="1305" height="371" viewBox="0 0 1305 371" fill="none" xmlns="http://www.w3.org/2000/svg">
<path d="M1138.29 319.544V179.532L1144.82 180.1V319.544C1144.82 329.389 1146.52 336.489 1149.93 340.844C1153.34 345.009 1159.02 347.092 1166.97 347.092C1167.54 347.092 1167.82 347.66 1167.82 348.796C1167.82 349.932 1167.54 350.5 1166.97 350.5C1163.19 350.5 1159.3 350.405 1155.33 350.216C1151.35 350.027 1146.9 349.932 1141.98 349.932C1137.25 349.932 1132.7 350.027 1128.35 350.216C1123.99 350.405 1119.83 350.5 1115.85 350.5C1115.47 350.5 1115.28 349.932 1115.28 348.796C1115.28 347.66 1115.47 347.092 1115.85 347.092C1124.18 347.092 1129.96 345.009 1133.18 340.844C1136.58 336.489 1138.29 329.389 1138.29 319.544ZM1281.42 353.908C1281.42 354.287 1280.95 354.476 1280 354.476C1279.06 354.665 1278.39 354.665 1278.02 354.476L1147.38 196.288C1140.94 188.525 1135.16 183.319 1130.05 180.668C1125.13 177.828 1120.4 176.408 1115.85 176.408C1115.28 176.408 1115 175.84 1115 174.704C1115 173.568 1115.28 173 1115.85 173C1119.26 173 1122.67 173.095 1126.08 173.284C1129.67 173.473 1132.89 173.568 1135.73 173.568C1139.14 173.568 1142.36 173.473 1145.39 173.284C1148.42 173.095 1150.69 173 1152.2 173C1154.67 173 1156.37 174.136 1157.32 176.408C1158.26 178.491 1161.01 182.277 1165.55 187.768L1279.15 327.212L1281.42 353.908ZM1281.42 204.24V353.908L1274.89 345.104V204.24C1274.89 194.395 1273.19 187.295 1269.78 182.94C1266.56 178.585 1261.07 176.408 1253.31 176.408C1252.93 176.408 1252.74 175.84 1252.74 174.704C1252.74 173.568 1252.93 173 1253.31 173C1257.09 173 1260.98 173.189 1264.95 173.568C1269.12 173.757 1273.57 173.852 1278.3 173.852C1282.84 173.852 1287.29 173.757 1291.65 173.568C1296.19 173.189 1300.36 173 1304.14 173C1304.71 173 1305 173.568 1305 174.704C1305 175.84 1304.71 176.408 1304.14 176.408C1296 176.408 1290.13 178.585 1286.54 182.94C1283.13 187.295 1281.42 194.395 1281.42 204.24Z" fill="white"/>
<path d="M985.028 356.032C971.396 356.032 958.995 353.665 947.824 348.932C936.843 344.009 927.376 337.288 919.424 328.768C911.661 320.248 905.603 310.497 901.248 299.516C897.083 288.345 895 276.512 895 264.016C895 248.68 897.935 235.237 903.804 223.688C909.863 212.139 917.815 202.577 927.66 195.004C937.505 187.241 948.297 181.467 960.036 177.68C971.775 173.893 983.419 172 994.968 172C1008.98 172 1021.47 174.556 1032.46 179.668C1043.63 184.591 1053.09 191.312 1060.86 199.832C1068.62 208.352 1074.49 218.008 1078.46 228.8C1082.63 239.592 1084.71 250.668 1084.71 262.028C1084.71 275.281 1082.06 287.588 1076.76 298.948C1071.46 310.308 1064.17 320.248 1054.89 328.768C1045.8 337.288 1035.2 344.009 1023.08 348.932C1011.16 353.665 998.471 356.032 985.028 356.032ZM994.968 350.068C1007.84 350.068 1019.39 347.039 1029.62 340.98C1039.84 334.732 1047.98 325.644 1054.04 313.716C1060.1 301.788 1063.13 287.209 1063.13 269.98C1063.13 252.183 1059.81 236.468 1053.19 222.836C1046.75 209.015 1037.47 198.223 1025.36 190.46C1013.43 182.508 999.323 178.532 983.04 178.532C962.024 178.532 945.647 185.348 933.908 198.98C922.359 212.423 916.584 230.788 916.584 254.076C916.584 267.519 918.383 280.109 921.98 291.848C925.767 303.397 931.163 313.621 938.168 322.52C945.173 331.229 953.504 338.045 963.16 342.968C972.816 347.701 983.419 350.068 994.968 350.068Z" fill="white"/>
<path d="M560.872 326.496C560.872 331.987 561.44 336.152 562.576 338.992C563.712 341.832 565.984 343.725 569.392 344.672C572.989 345.619 578.196 346.092 585.012 346.092C585.58 346.092 585.864 346.66 585.864 347.796C585.864 348.932 585.58 349.5 585.012 349.5C580.468 349.5 575.356 349.405 569.676 349.216C564.185 349.027 558.032 348.932 551.216 348.932C544.968 348.932 538.909 349.027 533.04 349.216C527.36 349.405 522.248 349.5 517.704 349.5C517.136 349.5 516.852 348.932 516.852 347.796C516.852 346.66 517.136 346.092 517.704 346.092C524.52 346.092 529.727 345.619 533.324 344.672C536.921 343.725 539.288 341.832 540.424 338.992C541.56 336.152 542.128 331.987 542.128 326.496V195.004C542.128 189.513 541.56 185.443 540.424 182.792C539.288 179.952 536.921 178.059 533.324 177.112C529.727 175.976 524.52 175.408 517.704 175.408C517.136 175.408 516.852 174.84 516.852 173.704C516.852 172.568 517.136 172 517.704 172C522.248 172 527.36 172.189 533.04 172.568C538.909 172.757 544.968 172.852 551.216 172.852C558.032 172.852 564.28 172.757 569.96 172.568C575.64 172.189 580.657 172 585.012 172C585.58 172 585.864 172.568 585.864 173.704C585.864 174.84 585.58 175.408 585.012 175.408C578.196 175.408 572.989 175.976 569.392 177.112C565.984 178.248 563.712 180.236 562.576 183.076C561.44 185.916 560.872 190.081 560.872 195.572V326.496Z" fill="white"/>
<path d="M409.168 325.212C409.168 330.892 409.925 335.247 411.44 338.276C412.955 341.116 416.173 343.104 421.096 344.24C426.019 345.376 433.308 345.944 442.964 345.944C443.532 345.944 443.816 346.512 443.816 347.648C443.816 348.784 443.532 349.352 442.964 349.352C436.905 349.352 430.279 349.257 423.084 349.068C416.079 348.879 408.411 348.784 400.08 348.784C393.832 348.784 387.773 348.879 381.904 349.068C376.224 349.257 371.112 349.352 366.568 349.352C366.189 349.352 366 348.784 366 347.648C366 346.512 366.189 345.944 366.568 345.944C373.573 345.944 378.78 345.471 382.188 344.524C385.596 343.577 387.868 341.684 389.004 338.844C390.14 336.004 390.708 331.839 390.708 326.348V194.856C390.708 189.365 390.14 185.295 389.004 182.644C387.868 179.804 385.596 177.911 382.188 176.964C378.78 175.828 373.573 175.26 366.568 175.26C366.189 175.26 366 174.692 366 173.556C366 172.42 366.189 171.852 366.568 171.852C371.112 171.852 376.224 172.041 381.904 172.42C387.584 172.609 393.548 172.704 399.796 172.704C404.719 172.704 410.683 172.42 417.688 171.852C424.883 171.284 432.077 171 439.272 171C450.064 171 459.72 172.609 468.24 175.828C476.949 179.047 483.86 184.064 488.972 190.88C494.084 197.696 496.735 206.595 496.924 217.576C496.924 227.611 495.031 236.225 491.244 243.42C487.647 250.615 482.724 256.579 476.476 261.312C470.417 265.856 463.696 269.264 456.312 271.536C448.928 273.808 441.544 274.944 434.16 274.944C431.888 274.944 429.521 274.849 427.06 274.66C424.788 274.471 422.611 274.092 420.528 273.524C419.771 273.335 419.487 272.672 419.676 271.536C420.055 270.211 420.528 269.643 421.096 269.832C422.8 270.211 424.504 270.495 426.208 270.684C428.101 270.873 429.805 270.968 431.32 270.968C439.083 270.968 446.372 269.264 453.188 265.856C460.004 262.448 465.495 257.241 469.66 250.236C473.825 243.041 475.908 234.143 475.908 223.54C475.908 213.127 474.015 204.417 470.228 197.412C466.441 190.217 461.235 184.727 454.608 180.94C447.981 177.153 440.597 175.26 432.456 175.26C426.208 175.26 421.38 175.639 417.972 176.396C414.753 176.964 412.481 178.668 411.156 181.508C409.831 184.348 409.168 188.987 409.168 195.424V325.212Z" fill="white"/>
<path d="M191.588 270.808L194.428 265.128H269.688L271.676 270.808H191.588ZM335.008 345.5C335.765 345.5 336.144 346.068 336.144 347.204C336.144 348.34 335.765 348.908 335.008 348.908C329.517 348.908 323.932 348.719 318.252 348.34C312.572 347.961 307.081 347.772 301.78 347.772C295.911 347.772 290.799 347.961 286.444 348.34C282.089 348.719 277.261 348.908 271.96 348.908C271.203 348.908 270.824 348.34 270.824 347.204C270.824 346.068 271.203 345.5 271.96 345.5C281.995 345.5 288.243 344.08 290.704 341.24C293.165 338.211 292.503 332.625 288.716 324.484L225.668 191.288L232.768 182.484L177.672 312.84C172.939 324.389 172.655 332.72 176.82 337.832C180.985 342.944 189.221 345.5 201.528 345.5C202.475 345.5 202.948 346.068 202.948 347.204C202.948 348.34 202.475 348.908 201.528 348.908C195.848 348.908 190.641 348.719 185.908 348.34C181.175 347.961 175.211 347.772 168.016 347.772C161.2 347.772 155.709 347.961 151.544 348.34C147.568 348.719 142.645 348.908 136.776 348.908C136.019 348.908 135.64 348.34 135.64 347.204C135.64 346.068 136.019 345.5 136.776 345.5C141.888 345.5 146.337 344.553 150.124 342.66C153.911 340.577 157.413 337.075 160.632 332.152C164.04 327.04 167.732 319.751 171.708 310.284L231.632 168.852C232.011 168.284 232.673 168 233.62 168C234.567 168 235.135 168.284 235.324 168.852L302.348 310C306.703 319.277 310.584 326.567 313.992 331.868C317.4 336.98 320.713 340.577 323.932 342.66C327.34 344.553 331.032 345.5 335.008 345.5Z" fill="white"/>
<path d="M48.168 324.86C48.168 330.54 48.9253 334.895 50.44 337.924C51.9547 340.764 55.1733 342.752 60.096 343.888C65.0187 345.024 72.308 345.592 81.964 345.592C82.532 345.592 82.816 346.16 82.816 347.296C82.816 348.432 82.532 349 81.964 349C75.9053 349 69.2787 348.906 62.084 348.716C55.0787 348.527 47.4107 348.432 39.08 348.432C32.832 348.432 26.7733 348.527 20.904 348.716C15.224 348.906 10.112 349 5.568 349C5.18933 349 5 348.432 5 347.296C5 346.16 5.18933 345.592 5.568 345.592C12.5733 345.592 17.78 345.119 21.188 344.172C24.596 343.226 26.868 341.332 28.004 338.492C29.14 335.652 29.708 331.487 29.708 325.996V194.504C29.708 189.014 29.14 184.943 28.004 182.292C26.868 179.452 24.596 177.559 21.188 176.612C17.78 175.476 12.5733 174.908 5.568 174.908C5.18933 174.908 5 174.34 5 173.204C5 172.068 5.18933 171.5 5.568 171.5C10.112 171.5 15.224 171.69 20.904 172.068C26.584 172.258 32.548 172.352 38.796 172.352C43.7187 172.352 49.6827 172.068 56.688 171.5C63.8827 170.932 71.0773 170.648 78.272 170.648C89.064 170.648 98.72 172.258 107.24 175.476C115.949 178.695 122.86 183.712 127.972 190.528C133.084 197.344 135.735 206.243 135.924 217.224C135.924 227.259 134.031 235.874 130.244 243.068C126.647 250.263 121.724 256.227 115.476 260.96C109.417 265.504 102.696 268.912 95.312 271.184C87.928 273.456 80.544 274.592 73.16 274.592C70.888 274.592 68.5213 274.498 66.06 274.308C63.788 274.119 61.6107 273.74 59.528 273.172C58.7707 272.983 58.4867 272.32 58.676 271.184C59.0547 269.859 59.528 269.291 60.096 269.48C61.8 269.859 63.504 270.143 65.208 270.332C67.1013 270.522 68.8053 270.616 70.32 270.616C78.0827 270.616 85.372 268.912 92.188 265.504C99.004 262.096 104.495 256.89 108.66 249.884C112.825 242.69 114.908 233.791 114.908 223.188C114.908 212.775 113.015 204.066 109.228 197.06C105.441 189.866 100.235 184.375 93.608 180.588C86.9813 176.802 79.5973 174.908 71.456 174.908C65.208 174.908 60.38 175.287 56.972 176.044C53.7533 176.612 51.4813 178.316 50.156 181.156C48.8307 183.996 48.168 188.635 48.168 195.072V324.86Z" fill="white"/>
<path opacity="0.95" d="M4.418 93V85.95H13.63V34.25H4.418V27.2H37.412C41.2347 27.2 44.6187 27.8893 47.564 29.268C50.572 30.6467 52.8907 32.5893 54.52 35.096C56.212 37.54 57.058 40.4227 57.058 43.744V44.496C57.058 47.5667 56.4627 50.1047 55.272 52.11C54.0813 54.0527 52.6713 55.588 51.042 56.716C49.4127 57.7813 47.8147 58.5647 46.248 59.066V60.382C47.8147 60.758 49.444 61.51 51.136 62.638C52.828 63.7033 54.238 65.2387 55.366 67.244C56.5567 69.2493 57.152 71.7873 57.152 74.858V75.798C57.152 79.37 56.2747 82.472 54.52 85.104C52.828 87.6733 50.478 89.6473 47.47 91.026C44.5247 92.342 41.1407 93 37.318 93H4.418ZM21.526 85.856H36.472C40.608 85.856 43.7727 84.8847 45.966 82.942C48.1593 80.9993 49.256 78.3673 49.256 75.046V74.2C49.256 70.8787 48.1593 68.2467 45.966 66.304C43.7727 64.3613 40.608 63.39 36.472 63.39H21.526V85.856ZM21.526 56.246H36.754C40.514 56.246 43.522 55.306 45.778 53.426C48.034 51.4833 49.162 48.9453 49.162 45.812V44.872C49.162 41.676 48.034 39.138 45.778 37.258C43.5847 35.3153 40.5767 34.344 36.754 34.344H21.526V56.246ZM107.266 93V27.2H115.162V85.856H148.438V93H107.266ZM191.011 93L211.315 27.2H225.227L245.531 93H237.353L232.277 76.362H204.265L199.189 93H191.011ZM206.239 69.218H230.209L218.929 31.994H217.613L206.239 69.218ZM315.854 94.316C308.021 94.316 301.785 92.06 297.148 87.548C292.511 82.9733 290.192 76.3307 290.192 67.62V52.58C290.192 43.8693 292.511 37.258 297.148 32.746C301.785 28.1713 308.021 25.884 315.854 25.884C323.625 25.884 329.578 28.046 333.714 32.37C337.913 36.694 340.012 42.616 340.012 50.136V50.606H332.21V49.854C332.21 44.9033 330.863 40.8613 328.168 37.728C325.536 34.532 321.431 32.934 315.854 32.934C310.277 32.934 305.921 34.6573 302.788 38.104C299.655 41.488 298.088 46.2507 298.088 52.392V67.808C298.088 73.9493 299.655 78.7433 302.788 82.19C305.921 85.574 310.277 87.266 315.854 87.266C321.431 87.266 325.536 85.6993 328.168 82.566C330.863 79.37 332.21 75.2967 332.21 70.346V68.842H340.012V70.064C340.012 77.584 337.913 83.506 333.714 87.83C329.578 92.154 323.625 94.316 315.854 94.316ZM389.982 93V27.2H397.878V55.87H399.194L427.018 27.2H437.546L405.492 59.724L438.674 93H427.864L399.194 63.766H397.878V93H389.982Z" fill="white"/>
<g opacity="0.95">
<path d="M690.757 172H630.55V174.361C633.869 174.991 640.871 176.628 642.319 178.139C643.768 179.65 647.148 188.528 648.657 192.778V299.028C648.657 302.05 643.225 305.954 640.509 307.528H622.6C623.958 307.528 629.644 310.361 654.542 320.278C674.46 328.211 691.412 339 713.912 364L719 370L670.386 310.361V195.139C670.386 194.352 670.658 191.078 671.744 184.278C672.83 177.478 684.872 174.833 690.757 174.361V172Z" fill="white"/>
<path d="M775.862 184.278C774.775 177.478 763.639 174.833 758.207 174.361V172H819.772V174.361H811.171C806.825 174.361 801.514 184.435 799.401 189.472L803.023 302.05V310.361C795.931 315.398 784.282 324.528 778.125 328.306C771.969 332.083 747.795 356.287 740.402 364C743.57 361.481 756.034 350.028 765.45 348.139C777.22 345.778 789.895 347.667 803.023 350.5C816.151 353.333 845.603 347.94 853 341.805C860 336 856 339.5 863 332C866.378 328.381 863.834 332.123 861.705 335.256L861.641 335.349C859.5 338.5 862.264 334.599 856.951 341.805C853.823 346.047 853.432 347.44 845.614 354C835.704 362.315 812.982 366.083 808.908 366.556C804.834 367.028 794.875 363.722 784.915 360.889C774.956 358.056 765.45 359 756.396 358.056C749.153 357.3 739.639 364.176 733 370C743.261 357.407 759.656 335.106 765.45 328.306C771.244 321.506 778.125 312.76 778.125 308.17V226.778C777.823 215.444 776.948 191.078 775.862 184.278Z" fill="white"/>
<path d="M622.6 307.528C623.958 307.528 629.644 310.361 654.542 320.278C674.46 328.211 691.412 339 713.912 364L719 370L670.386 310.361V195.139C670.386 194.352 670.658 191.078 671.744 184.278C672.83 177.478 684.872 174.833 690.757 174.361V172H630.55V174.361C633.869 174.991 640.871 176.628 642.319 178.139C643.768 179.65 647.148 188.528 648.657 192.778C648.657 226.935 648.657 296.006 648.657 299.028C648.657 302.05 643.225 305.954 640.509 307.528H622.6ZM622.6 307.528C621.513 307.528 622.147 308.472 622.6 307.528ZM758.207 174.361C763.639 174.833 774.775 177.478 775.862 184.278C776.948 191.078 777.823 215.444 778.125 226.778V308.17C778.125 312.76 771.244 321.506 765.45 328.306C759.656 335.106 743.261 357.407 733 370C739.639 364.176 749.153 357.3 756.396 358.056C765.45 359 774.956 358.056 784.915 360.889C794.875 363.722 804.834 367.028 808.908 366.556C812.982 366.083 835.704 362.315 845.614 354C853.432 347.44 853.823 346.047 856.951 341.805C862.264 334.599 859.5 338.5 861.641 335.349C863.783 332.199 866.412 328.345 863 332C856 339.5 860 336 853 341.805C845.603 347.94 816.151 353.333 803.023 350.5C789.895 347.667 777.22 345.778 765.45 348.139C756.034 350.028 743.57 361.481 740.402 364C747.795 356.287 771.969 332.083 778.125 328.306C784.282 324.528 795.931 315.398 803.023 310.361V302.05L799.401 189.472C801.514 184.435 806.825 174.361 811.171 174.361C815.517 174.361 818.716 174.361 819.772 174.361V172H758.207V174.361Z" stroke="white"/>
</g>
</svg>
