<svg width="757" height="125" viewBox="0 0 757 125" fill="none" xmlns="http://www.w3.org/2000/svg">
<path d="M689.283 98.6999C690.409 96.1358 690.541 91.3222 690.674 90.6861C690.824 90.1336 691.057 88.9116 691.372 87.0202C691.671 85.045 691.986 82.7185 692.318 80.0404C692.733 77.3455 693.131 74.567 693.512 71.7048C693.894 68.8426 694.225 66.1645 694.507 63.6706C694.872 61.1599 695.17 59.1848 695.403 57.7452C695.469 57.2096 695.493 56.4649 695.475 55.511C695.441 54.4734 695.599 53.5277 695.949 52.6738C696.366 51.7194 697.244 51.1074 698.583 50.838C701.092 50.3329 702.465 50.6659 702.701 51.8371C702.785 52.2553 702.719 53.0085 702.503 54.0966C701.953 56.5573 701.388 59.3695 700.806 62.5332C700.224 65.6969 699.734 68.668 699.336 71.4466C698.938 74.2251 698.631 76.376 698.415 77.8991C699.016 76.5596 700.018 74.6171 701.42 72.0716C702.906 69.5092 704.568 66.7375 706.405 63.7564C708.243 60.7752 710.18 57.8609 712.219 55.0134C714.34 52.149 716.346 49.7869 718.234 47.9269C720.19 45.9665 721.963 44.8263 723.552 44.5064C725.56 44.1023 726.783 44.9877 727.22 47.1628C727.372 47.9157 727.39 49.0871 727.275 50.6771C726.943 52.92 726.393 55.1632 725.626 57.4067C724.843 59.5665 724.209 61.8266 723.727 64.1868C722.929 68.4386 722.649 71.8027 722.886 74.2792C722.87 74.6307 722.895 74.9737 722.962 75.3084C723.013 75.5593 723.072 75.8521 723.139 76.1867C723.813 79.533 725.279 80.9788 727.538 80.5241C728.792 80.2715 730.314 79.1819 732.102 77.2551C733.891 75.3284 735.662 73.1004 737.416 70.5712C739.254 68.0252 740.857 65.6133 742.227 63.3356C743.579 60.9743 744.489 59.2243 744.956 58.0857C745.157 57.7843 747.821 51.9311 748.072 51.8806C748.407 51.8133 746.244 57.5654 746.462 57.7827C746.764 57.9831 748.661 52.6875 748.578 53.1395C748.111 54.7132 745.389 62.3945 743.986 64.94C742.65 67.385 741.114 69.9139 739.376 72.5268C737.622 75.056 735.851 77.284 734.063 79.2107C732.976 80.2999 731.58 81.3643 729.875 82.4039C728.169 83.4436 726.387 84.1069 724.53 84.3937C722.137 84.6142 720.304 84.1562 719.031 83.0198C717.741 81.7997 716.902 80.2276 716.515 78.3036C716.06 76.0449 715.998 73.5765 716.33 70.8984C716.728 68.1199 717.244 65.4918 717.877 63.0142C718.509 60.5366 719.043 58.6449 719.476 57.339C719.876 55.8658 720 54.7527 719.849 53.9998C719.714 53.3306 719.354 53.0549 718.768 53.1728C718.183 53.2906 717.38 53.8439 716.36 54.8326C715.341 55.8212 714.012 57.4378 712.375 59.6823C710.854 61.6422 709.309 64.1293 707.74 67.1436C706.154 70.0742 704.626 73.0801 703.157 76.1612C701.772 79.2254 700.52 81.8712 699.402 84.0983C698.367 86.3087 693.716 96.52 693.198 96.9725C692.83 97.3076 686.372 115.607 687.842 103.163C691.849 88.2062 690.036 98.5484 689.283 98.6999Z" fill="black"/>
<path d="M635.168 123.76C634.144 123.504 633.248 123.248 632.48 122.992C630.859 122.139 629.707 121.157 629.024 120.048C628.341 119.024 628 117.915 628 116.72C628 114.757 628.683 112.624 630.048 110.32C631.328 108.101 633.035 105.797 635.168 103.408C637.301 100.848 639.989 98.2453 643.232 95.6C646.56 92.9547 650.016 90.3947 653.6 87.92C657.184 85.5307 660.341 83.44 663.072 81.648C666.059 75.5893 668.704 69.872 671.008 64.496C673.312 59.0347 674.933 54.8533 675.872 51.952C674.08 53.9147 672.16 56.1333 670.112 58.608C668.064 60.9973 666.571 62.7467 665.632 63.856C664.011 65.5627 662.176 67.44 660.128 69.488C658.08 71.4507 655.904 73.1573 653.6 74.608C651.381 75.9733 649.205 76.656 647.072 76.656C645.707 76.656 644.256 76.272 642.72 75.504C641.184 74.6507 639.947 73.584 639.008 72.304C637.728 70.5973 637.088 68.848 637.088 67.056C637.088 64.752 637.856 62.3627 639.392 59.888C641.013 57.4133 643.061 55.024 645.536 52.72C648.096 50.3307 650.784 48.1973 653.6 46.32C656.501 44.3573 659.232 42.736 661.792 41.456C664.437 40.0907 666.571 39.1947 668.192 38.768C669.728 38.256 671.605 38 673.824 38C674.848 38 676.085 38.1707 677.536 38.512C678.987 38.8533 680.267 39.408 681.376 40.176C682.571 40.8587 683.168 41.8827 683.168 43.248C683.168 43.9307 682.827 44.144 682.144 43.888C681.547 42.864 680.651 42.224 679.456 41.968C678.347 41.6267 677.195 41.456 676 41.456C672.672 41.456 668.917 42.5653 664.736 44.784C660.64 47.0027 656.971 49.6053 653.728 52.592C652.704 53.4453 651.296 54.9387 649.504 57.072C647.712 59.12 646.091 61.3813 644.64 63.856C643.275 66.3307 642.592 68.592 642.592 70.64C642.592 71.7493 642.891 72.7307 643.488 73.584C643.744 74.0107 644.256 74.224 645.024 74.224C646.645 74.224 648.608 73.4987 650.912 72.048C653.301 70.5973 655.819 68.7627 658.464 66.544C661.109 64.3253 663.669 61.9787 666.144 59.504C668.704 56.944 670.965 54.5973 672.928 52.464C674.891 50.3307 676.341 48.7093 677.28 47.6C677.451 47.1733 677.749 46.8747 678.176 46.704C678.603 46.5333 679.072 46.448 679.584 46.448C680.949 46.448 682.357 46.832 683.808 47.6C685.344 48.2827 685.984 48.88 685.728 49.392C684.107 52.8907 682.187 56.944 679.968 61.552C677.835 66.16 675.573 70.9813 673.184 76.016C674.293 75.4187 676.128 74.096 678.688 72.048C681.248 70 684.064 67.568 687.136 64.752C690.208 61.8507 693.067 58.864 695.712 55.792C696.736 54.6827 697.504 54.128 698.016 54.128C698.528 54.128 698.656 54.5973 698.4 55.536C698.144 56.3893 697.461 57.4987 696.352 58.864C694.987 60.4853 693.109 62.448 690.72 64.752C688.331 66.9707 685.813 69.2747 683.168 71.664C680.523 73.968 678.048 76.016 675.744 77.808C673.525 79.6853 671.776 80.9653 670.496 81.648C667.851 87.28 665.291 92.5707 662.816 97.52C660.341 102.555 658.08 106.608 656.032 109.68C654.667 111.813 653.003 113.989 651.04 116.208C649.077 118.427 646.944 120.261 644.64 121.712C642.336 123.248 639.904 124.016 637.344 124.016C637.003 124.016 636.661 123.973 636.32 123.888C635.979 123.888 635.595 123.845 635.168 123.76ZM633.888 120.432C634.4 120.773 635.125 120.773 636.064 120.432C637.088 120.091 638.368 119.323 639.904 118.128C643.232 115.483 646.091 112.368 648.48 108.784C650.869 105.285 653.045 101.573 655.008 97.648C656.971 93.808 658.848 90.096 660.64 86.512C657.312 88.9867 653.557 91.888 649.376 95.216C645.195 98.6293 641.397 102 637.984 105.328C636.277 107.035 634.869 108.912 633.76 110.96C632.565 113.093 631.968 115.013 631.968 116.72C631.968 118.512 632.608 119.749 633.888 120.432Z" fill="black"/>
<path d="M626.936 37.88C625.827 37.88 624.675 37.7947 623.48 37.624C622.285 37.368 621.688 36.5573 621.688 35.192C621.688 34.936 622.243 34.3387 623.352 33.4C624.547 32.4613 625.741 31.5227 626.936 30.584C628.216 29.56 628.984 28.9627 629.24 28.792C630.691 27.5973 631.587 27 631.928 27C632.355 27 632.355 27.5547 631.928 28.664C631.501 29.7733 631.288 30.7547 631.288 31.608C631.288 32.0347 631.032 32.76 630.52 33.784C630.008 34.808 629.411 35.7467 628.728 36.6C628.045 37.4533 627.448 37.88 626.936 37.88ZM612.984 83.704C611.448 83.704 610.04 83.3627 608.76 82.68C607.565 81.9973 606.669 80.7173 606.072 78.84C605.987 78.584 605.901 78.328 605.816 78.072C605.816 77.816 605.816 77.5173 605.816 77.176C605.816 75.4693 606.2 73.336 606.968 70.776C607.736 68.216 608.675 65.7413 609.784 63.352C609.272 64.0347 608.675 64.888 607.992 65.912C607.309 66.8507 606.328 68.088 605.048 69.624C604.707 69.9653 604.323 70.136 603.896 70.136C603.299 70.136 603 69.7947 603 69.112C603 68.6 603.171 68.1733 603.512 67.832C605.731 65.016 607.693 62.4987 609.4 60.28C611.192 58.0613 612.515 56.184 613.368 54.648C613.368 54.5627 613.325 54.52 613.24 54.52C613.24 54.4347 613.24 54.3493 613.24 54.264C613.24 54.008 613.368 53.624 613.624 53.112C614.307 51.064 614.989 49.3573 615.672 47.992C616.44 46.5413 617.251 45.7307 618.104 45.56C618.275 45.56 618.445 45.56 618.616 45.56C618.787 45.4747 618.957 45.432 619.128 45.432C620.067 45.432 620.92 45.6453 621.688 46.072C622.456 46.4987 622.84 47.1387 622.84 47.992C622.84 48.76 622.541 49.6987 621.944 50.808C621.432 51.9173 620.749 53.2827 619.896 54.904C618.019 58.8293 616.312 62.4133 614.776 65.656C613.325 68.8133 612.515 71.416 612.344 73.464C612.259 73.8053 612.216 74.1467 612.216 74.488C612.216 74.744 612.216 75.0427 612.216 75.384C612.216 78.7973 613.325 80.504 615.544 80.504C616.909 80.504 618.659 79.7787 620.792 78.328C622.925 76.792 625.101 74.9573 627.32 72.824C629.539 70.6053 631.544 68.5147 633.336 66.552C635.213 64.504 636.493 62.968 637.176 61.944C637.432 61.688 637.688 61.56 637.944 61.56C638.285 61.56 638.541 61.688 638.712 61.944C638.968 62.2 639.011 62.5413 638.84 62.968C638.072 64.4187 636.749 66.2533 634.872 68.472C633.08 70.6053 631.032 72.7813 628.728 75C626.509 77.1333 624.333 78.968 622.2 80.504C621.091 81.3573 619.683 82.0827 617.976 82.68C616.355 83.3627 614.691 83.704 612.984 83.704Z" fill="black"/>
<path d="M565.097 88.7679C561.699 88.4479 560.088 87.3533 560.264 85.4843C560.392 84.125 561.246 82.7912 562.826 81.4829C564.035 80.4824 565.351 79.7063 566.774 79.1547C568.197 78.603 569.079 78.3432 569.419 78.3752C569.844 78.4152 570.04 78.6051 570.008 78.9449C570.061 79.2927 569.867 79.5316 569.426 79.6615C568.529 80.0913 567.484 80.7214 566.291 81.552C565.192 82.3055 564.594 83.1921 564.498 84.2116C564.37 85.5709 565.113 86.3266 566.727 86.4785C568.681 86.6625 570.776 86.2598 573.012 85.2704C575.24 84.3659 577.33 83.1057 579.282 81.4895C581.319 79.8814 582.974 78.2373 584.246 76.5572C585.612 74.8001 586.359 73.2419 586.487 71.8826C586.591 70.7781 586.304 69.7227 585.628 68.7161C584.951 67.7096 583.483 66.4572 581.224 64.9588C579.698 63.8723 578.219 62.7473 576.785 61.5838C575.437 60.4283 574.449 59.0924 573.82 57.5762C573.028 58.7016 572 60.0619 570.736 61.657C569.564 63.1752 568.172 64.7584 566.56 66.4065C566.002 66.8682 565.469 67.0751 564.959 67.0271C564.449 66.9791 564.214 66.7427 564.254 66.3179C564.278 66.0631 564.531 65.6583 565.011 65.1036C567.561 62.6009 569.496 60.2547 570.817 58.0648C572.137 55.8749 573.066 54.2053 573.603 53.0559C574.175 50.6241 575.541 48.3958 577.703 46.3709C579.865 44.346 582.424 42.6584 585.38 41.3082C588.343 39.873 591.314 38.8242 594.29 38.1616C597.352 37.5071 600.029 37.2878 602.323 37.5038C604.617 37.7198 606.616 38.3365 608.32 39.3541C610.024 40.3717 610.788 41.815 610.612 43.6841C610.516 44.7035 610.115 45.78 609.408 46.9134C608.492 48.4556 607.081 49.7799 605.177 50.8863C605.084 50.9632 604.953 50.9937 604.783 50.9777C604.103 50.9137 603.791 50.5844 603.847 49.9897C603.887 49.5649 604.14 49.1601 604.604 48.7753C605.34 48.2446 605.96 47.5744 606.465 46.7649C606.97 45.9553 607.258 45.1682 607.33 44.4036C607.474 42.8743 606.654 42.0257 604.87 41.8577C603.001 41.6817 600.489 41.9595 597.335 42.691C594.265 43.4305 591.38 44.4874 588.68 45.8616C585.615 47.4587 583.002 49.2697 580.84 51.2946C578.678 53.3195 577.517 55.1815 577.357 56.8807C577.277 57.7302 577.456 58.5613 577.893 59.3739C578.424 60.1096 579.452 61.0207 580.979 62.1072C581.78 62.697 582.906 63.4886 584.355 64.4822C585.812 65.3908 587.061 66.2369 588.101 67.0206C591.385 69.4725 592.914 71.8879 592.69 74.2667C592.506 76.2207 591.469 78.1372 589.578 80.0162C587.695 81.8102 585.318 83.3863 582.447 84.7445C579.653 86.1957 576.722 87.2911 573.652 88.0306C570.583 88.7701 567.731 89.0158 565.097 88.7679Z" fill="black"/>
<path d="M536.208 83.704C532.368 83.704 529.04 82.808 526.224 81.016C523.408 79.224 522 76.4933 522 72.824C522 70.8613 522.597 68.472 523.792 65.656C524.645 63.6933 526.224 61.432 528.528 58.872C530.832 56.312 533.52 53.8373 536.592 51.448C539.664 48.9733 542.779 46.968 545.936 45.432C549.093 43.8107 551.952 43 554.512 43C555.451 43 556.304 43.128 557.072 43.384C558.523 43.896 559.504 44.7067 560.016 45.816C560.613 46.9253 560.912 48.0773 560.912 49.272C560.912 50.3813 560.741 51.448 560.4 52.472C560.059 53.496 559.632 54.392 559.12 55.16C557.584 57.464 555.365 59.512 552.464 61.304C549.648 63.096 546.747 64.504 543.76 65.528C540.859 66.552 538.469 67.1493 536.592 67.32H536.336C535.227 67.32 534.672 66.9787 534.672 66.296C534.672 65.8693 535.013 65.656 535.696 65.656C537.744 65.4853 540.304 64.5467 543.376 62.84C546.533 61.048 549.307 59.2133 551.696 57.336C552.72 56.4827 553.915 55.288 555.28 53.752C556.731 52.216 557.456 50.7227 557.456 49.272C557.456 47.736 556.731 46.968 555.28 46.968C554.512 46.968 553.701 47.1387 552.848 47.48C552.08 47.8213 551.44 48.0773 550.928 48.248C548.453 49.4427 545.723 51.32 542.736 53.88C539.749 56.3547 537.019 59.1707 534.544 62.328C532.155 65.4 530.491 68.5147 529.552 71.672C529.296 72.3547 529.125 73.0373 529.04 73.72C528.955 74.3173 528.912 74.9147 528.912 75.512C528.912 77.56 529.552 79.0107 530.832 79.864C532.197 80.7173 533.819 81.144 535.696 81.144C538.512 81.144 541.413 80.5467 544.4 79.352C547.387 78.072 550.288 76.4507 553.104 74.488C555.92 72.5253 558.48 70.4347 560.784 68.216C563.173 65.912 565.179 63.6933 566.8 61.56C567.056 61.2187 567.355 61.048 567.696 61.048C568.037 60.9627 568.251 61.0053 568.336 61.176C568.677 61.2613 568.848 61.5173 568.848 61.944C568.848 62.2853 568.763 62.6267 568.592 62.968C566.203 66.296 563.301 69.5387 559.888 72.696C556.56 75.8533 552.848 78.4987 548.752 80.632C544.741 82.68 540.56 83.704 536.208 83.704Z" fill="black"/>
<path d="M425.294 97.7839C423.69 97.5496 422.455 96.8518 421.59 95.6906C420.809 94.5417 420.264 93.2547 419.954 91.8297C419.645 90.4047 419.498 89.0466 419.515 87.7554C419.531 86.4642 419.576 85.5653 419.65 85.0586C420.057 82.2722 420.493 79.878 420.957 77.8762C421.519 75.8023 422.081 73.7283 422.642 71.6544L422.716 71.1478C422.79 70.6411 422.731 70.1582 422.54 69.699C422.445 69.1678 422.356 68.5942 422.274 67.9785C422.298 67.8096 422.275 67.6768 422.202 67.5801C422.215 67.4956 422.227 67.4112 422.239 67.3267C422.326 66.7357 422.708 66.1878 423.385 65.683C423.953 65.3348 424.678 65.0958 425.559 64.9658C426.538 64.7637 427.364 64.7119 428.04 64.8106C428.378 64.8599 428.703 64.9937 429.016 65.2119C429.16 65.4054 429.22 65.5866 429.196 65.7555C429.109 66.3466 428.793 67.0335 428.248 67.8162C427.665 68.8522 427.313 69.4907 427.192 69.7317C427.083 69.8882 426.942 70.5576 426.769 71.7397C426.671 72.4152 426.963 73.3635 427.647 74.5845C428.331 75.8055 429.142 77.045 430.079 78.303C431.029 79.4766 431.871 80.505 432.604 81.3882C433.422 82.2838 433.915 82.7439 434.084 82.7686C434.788 81.4916 435.862 79.7511 437.305 77.5472C438.76 75.2588 440.324 72.8139 441.998 70.2125C443.671 67.611 445.326 65.1362 446.963 62.7881C448.612 60.3555 449.988 58.3142 451.091 56.6644C451.649 55.7972 452.062 55.0382 452.329 54.3874C452.597 53.7366 452.755 53.2423 452.805 52.9045C452.854 52.5668 452.849 52.3073 452.789 52.1261C452.741 51.8604 452.682 51.6792 452.61 51.5825C452.926 50.5939 453.957 49.1489 455.7 47.2476C457.541 45.2742 459.683 43.3018 462.127 41.3303C464.583 39.2743 467.026 37.6045 469.456 36.3208C471.886 35.0372 473.945 34.5186 475.634 34.7653C476.14 34.8393 476.918 35.1253 477.966 35.6234C479.027 36.037 480.014 36.6556 480.929 37.479C481.844 38.3025 482.299 39.3177 482.295 40.5245L482.221 41.0311C482.197 41.2 482.142 41.2782 482.058 41.2659C481.973 41.2536 481.817 41.1445 481.588 40.9386C481.359 40.7327 481.076 40.6051 480.738 40.5558C478.796 40.2722 476.544 40.9349 473.98 42.544C471.429 44.0686 468.695 46.2565 465.777 49.1075C462.957 51.8864 460.129 55.0092 457.295 58.4759C454.46 61.9426 451.752 65.4278 449.17 68.9315C446.589 72.4353 444.262 75.6743 442.189 78.6486C440.212 81.5508 438.618 83.9051 437.406 85.7115C439.812 88.1327 442.467 90.0296 445.371 91.4024C448.287 92.6907 451.308 93.563 454.432 94.0193C459.498 94.7592 464.664 94.522 469.929 93.3075C475.195 92.093 480.203 90.2804 484.953 87.8696C489.8 85.3866 493.966 82.5456 497.452 79.3464C501.615 75.6425 504.91 71.6824 507.337 67.4662C509.848 63.2623 511.406 59.0916 512.01 54.9542C512.7 50.2257 512.135 45.8312 510.313 41.7706C508.504 37.6256 505.311 34.0978 500.734 31.1872C496.254 28.2044 490.257 26.1643 482.742 25.0667C477.338 24.2775 471.679 24.0546 465.764 24.3982C459.862 24.6573 454.103 25.4116 448.488 26.6612C442.872 27.9108 437.708 29.6143 432.995 31.7718C428.378 33.8572 424.51 35.8363 421.567 39.1579C418.624 42.4795 415.808 45.8195 416.433 48.6273C417.058 51.4351 416.566 52.4412 417.756 53.7362C418.959 54.9468 420.368 55.9287 421.983 56.6819C423.598 57.4352 424.833 58.133 425.687 58.7753C426.326 59.1272 426.621 59.4721 426.571 59.8099C426.497 60.3165 425.996 60.502 425.067 60.3663C424.054 60.2183 422.74 59.7677 421.125 59.0144C419.51 58.2612 417.932 57.2546 416.392 55.9947C414.851 54.7348 412.852 53.4566 412.748 51.7112C412.645 49.9659 412.11 51.618 412.386 46.2252C412.661 40.8323 412.411 45.7546 412.388 45.3201C412.366 44.8856 412.379 44.4994 412.428 44.1617C413.02 40.1087 412.468 39.7694 417.584 33.6605C422.699 27.5517 424.063 28.2683 428.486 26.3271C432.994 24.3982 437.946 22.9656 443.343 22.0291C448.825 21.1049 454.498 20.6399 460.364 20.6342C466.229 20.6284 471.948 21.0324 477.52 21.8463C482.502 22.5739 487.507 23.7361 492.534 25.3327C497.658 26.8572 502.255 29.0378 506.326 31.8744C510.408 34.6267 513.474 38.136 515.525 42.4024C517.659 46.6811 518.277 51.9025 517.376 58.0664C516.39 64.8214 513.957 70.8478 510.079 76.1456C506.285 81.4558 501.541 85.894 495.845 89.4604C490.163 92.9424 484.024 95.4092 477.431 96.8608C470.921 98.3248 464.458 98.5882 458.041 97.651C453.735 97.0221 449.635 95.8628 445.742 94.1731C441.922 92.5803 438.7 90.4281 436.078 87.7167C435.872 87.9453 435.339 88.6436 434.478 89.8115C433.715 90.9073 432.77 92.0629 431.644 93.2783C430.59 94.5904 429.482 95.6791 428.321 96.5443C427.232 97.5064 426.223 97.9196 425.294 97.7839ZM425.342 93.9102C426.018 94.0089 426.84 93.396 427.81 92.0715C428.767 90.8315 429.652 89.4947 430.465 88.0612C431.291 86.5432 431.812 85.6277 432.031 85.3146C431.213 84.419 430.125 83.0097 428.767 81.0866C427.494 79.1759 426.383 77.6337 425.433 76.4602C425.31 77.3045 425.032 79.2044 424.601 82.1597C424.253 85.1273 424.117 88.1258 424.192 91.1551C424.283 92.8932 424.667 93.8116 425.342 93.9102Z" fill="black"/>
<path d="M352.619 82.432C352.022 82.432 351.851 82.1333 352.107 81.536C352.363 81.024 352.832 79.872 353.515 78.08C354.198 76.2026 354.966 73.984 355.819 71.424C356.758 68.864 357.696 66.2187 358.635 63.488C359.574 60.7573 360.427 58.1973 361.195 55.808C362.048 53.4187 362.731 51.5413 363.243 50.176C363.414 49.664 363.584 48.9386 363.755 48C363.926 46.976 364.267 46.08 364.779 45.312C365.376 44.4587 366.358 44.032 367.723 44.032C370.283 44.032 371.563 44.6293 371.563 45.824C371.563 46.2507 371.35 46.976 370.923 48C369.899 50.304 368.79 52.9493 367.595 55.936C366.4 58.9227 365.334 61.7387 364.395 64.384C363.456 67.0293 362.731 69.0773 362.219 70.528C363.072 69.3333 364.438 67.6267 366.315 65.408C368.278 63.1893 370.454 60.8 372.843 58.24C375.232 55.68 377.707 53.2053 380.267 50.816C382.912 48.4266 385.344 46.5066 387.563 45.056C389.867 43.52 391.83 42.752 393.451 42.752C395.499 42.752 396.523 43.8613 396.523 46.08C396.523 46.848 396.31 48 395.883 49.536C395.115 51.6693 394.134 53.76 392.939 55.808C391.744 57.7707 390.678 59.8613 389.739 62.08C388.118 66.0907 387.179 69.3333 386.923 71.808C386.838 72.1493 386.795 72.4907 386.795 72.832C386.795 73.088 386.795 73.3867 386.795 73.728C386.795 77.1413 387.947 78.848 390.251 78.848C391.531 78.848 393.238 78.08 395.371 76.544C397.504 75.008 399.68 73.1733 401.899 71.04C404.203 68.9067 406.251 66.8587 408.043 64.896C409.835 62.848 411.072 61.312 411.755 60.288C412.011 60.032 412.267 59.904 412.523 59.904C412.864 59.904 413.12 60.032 413.291 60.288C413.547 60.544 413.59 60.8853 413.419 61.312C412.651 62.7627 411.328 64.5973 409.451 66.816C407.659 68.9493 405.654 71.1253 403.435 73.344C401.216 75.4773 399.04 77.312 396.907 78.848C395.627 79.7013 394.048 80.4693 392.171 81.152C390.294 81.8347 388.416 82.1333 386.539 82.048C384.15 81.792 382.443 80.9813 381.419 79.616C380.395 78.1653 379.883 76.4586 379.883 74.496C379.883 72.192 380.31 69.76 381.163 67.2C382.102 64.5547 383.126 62.08 384.235 59.776C385.344 57.472 386.24 55.7226 386.923 54.528C387.606 53.1626 387.947 52.096 387.947 51.328C387.947 50.6453 387.648 50.304 387.051 50.304C386.454 50.304 385.558 50.688 384.363 51.456C383.168 52.224 381.547 53.5467 379.499 55.424C377.622 57.0453 375.616 59.1787 373.483 61.824C371.35 64.384 369.259 67.0293 367.211 69.76C365.248 72.4906 363.499 74.8373 361.963 76.8C360.512 78.7627 359.488 79.9147 358.891 80.256C358.464 80.512 357.483 80.9387 355.947 81.536C354.496 82.1333 353.387 82.432 352.619 82.432Z" fill="black"/>
<path d="M328.768 82.688C324.928 82.688 321.6 81.792 318.784 80C315.968 78.208 314.56 75.4773 314.56 71.808C314.56 69.8453 315.157 67.456 316.352 64.64C317.205 62.6773 318.784 60.416 321.088 57.856C323.392 55.296 326.08 52.8213 329.152 50.432C332.224 47.9573 335.339 45.952 338.496 44.416C341.653 42.7947 344.512 41.984 347.072 41.984C348.011 41.984 348.864 42.112 349.632 42.368C351.083 42.88 352.064 43.6907 352.576 44.8C353.173 45.9093 353.472 47.0613 353.472 48.256C353.472 49.3653 353.301 50.432 352.96 51.456C352.619 52.48 352.192 53.376 351.68 54.144C350.144 56.448 347.925 58.496 345.024 60.288C342.208 62.08 339.307 63.488 336.32 64.512C333.419 65.536 331.029 66.1333 329.152 66.304H328.896C327.787 66.304 327.232 65.9627 327.232 65.28C327.232 64.8533 327.573 64.64 328.256 64.64C330.304 64.4693 332.864 63.5307 335.936 61.824C339.093 60.032 341.867 58.1973 344.256 56.32C345.28 55.4667 346.475 54.272 347.84 52.736C349.291 51.2 350.016 49.7067 350.016 48.256C350.016 46.72 349.291 45.952 347.84 45.952C347.072 45.952 346.261 46.1227 345.408 46.464C344.64 46.8053 344 47.0613 343.488 47.232C341.013 48.4267 338.283 50.304 335.296 52.864C332.309 55.3387 329.579 58.1547 327.104 61.312C324.715 64.384 323.051 67.4987 322.112 70.656C321.856 71.3387 321.685 72.0213 321.6 72.704C321.515 73.3013 321.472 73.8987 321.472 74.496C321.472 76.544 322.112 77.9947 323.392 78.848C324.757 79.7013 326.379 80.128 328.256 80.128C331.072 80.128 333.973 79.5307 336.96 78.336C339.947 77.056 342.848 75.4347 345.664 73.472C348.48 71.5093 351.04 69.4187 353.344 67.2C355.733 64.896 357.739 62.6773 359.36 60.544C359.616 60.2027 359.915 60.032 360.256 60.032C360.597 59.9467 360.811 59.9893 360.896 60.16C361.237 60.2453 361.408 60.5013 361.408 60.928C361.408 61.2693 361.323 61.6107 361.152 61.952C358.763 65.28 355.861 68.5227 352.448 71.68C349.12 74.8373 345.408 77.4827 341.312 79.616C337.301 81.664 333.12 82.688 328.768 82.688Z" fill="black"/>
<path d="M317.664 100.48C314.507 100.48 311.477 99.328 308.576 97.024C305.76 94.8053 303.157 91.8186 300.768 88.064C298.379 84.3946 296.331 80.384 294.624 76.032C293.003 71.5946 291.808 67.2853 291.04 63.104C288.139 67.2 285.621 70.9546 283.488 74.368C281.44 77.7813 279.947 79.744 279.008 80.256C278.581 80.512 277.6 80.9386 276.064 81.536C274.528 82.1333 273.376 82.432 272.608 82.432C272.011 82.432 271.84 82.1333 272.096 81.536C272.267 81.1946 272.693 80.128 273.376 78.336C274.059 76.4586 274.869 74.1546 275.808 71.424C276.747 68.6933 277.728 65.8347 278.752 62.848C279.861 59.8613 280.928 57.0453 281.952 54.4C281.099 55.3386 280.117 56.5333 279.008 57.984C277.899 59.3493 276.619 61.0986 275.168 63.232C274.912 63.6586 274.485 63.872 273.888 63.872C273.291 63.872 272.992 63.616 272.992 63.104C272.992 62.592 273.291 61.9946 273.888 61.312C275.083 59.8613 276.363 58.1973 277.728 56.32C279.093 54.4427 280.416 52.608 281.696 50.816C282.976 49.024 284 47.5733 284.768 46.464C283.488 45.7813 282.848 44.8853 282.848 43.776C282.848 43.0933 283.104 42.5813 283.616 42.24C284.213 41.8133 284.811 41.8133 285.408 42.24C285.749 42.4106 286.048 42.496 286.304 42.496C287.755 38.656 289.589 34.5173 291.808 30.08C294.027 25.5573 296.587 21.2906 299.488 17.28C302.389 13.184 305.504 9.85598 308.832 7.29598C312.245 4.73598 315.829 3.45598 319.584 3.45598C320.011 3.45598 320.437 3.49864 320.864 3.58398C321.376 3.58398 321.845 3.62664 322.272 3.71198C322.784 3.79731 323.253 3.96798 323.68 4.22398C324.192 4.47998 324.661 4.69331 325.088 4.86398C327.051 5.97331 328.032 7.59465 328.032 9.72798C328.032 11.264 327.605 12.9706 326.752 14.848C325.899 16.64 324.832 18.432 323.552 20.224C322.357 22.016 321.163 23.6373 319.968 25.088C318.773 26.5386 317.835 27.648 317.152 28.416C312.971 32.6826 308.448 36.5653 303.584 40.064C298.805 43.5626 294.624 46.0373 291.04 47.488C289.675 50.3893 288.395 53.376 287.2 56.448C286.005 59.4347 284.981 62.208 284.128 64.768C283.36 67.2426 282.763 69.1627 282.336 70.528C283.787 68.736 285.152 66.944 286.432 65.152C287.797 63.2747 289.163 61.44 290.528 59.648C290.528 59.3066 290.485 58.9653 290.4 58.624C290.4 58.2827 290.4 57.9413 290.4 57.6C290.4 57.088 290.4 56.6186 290.4 56.192C290.485 55.68 290.571 55.2106 290.656 54.784C290.741 54.272 290.955 53.76 291.296 53.248C291.637 52.736 291.979 52.48 292.32 52.48C292.832 52.48 293.131 52.992 293.216 54.016C293.301 54.272 293.387 54.5706 293.472 54.912C293.557 55.2533 293.643 55.5946 293.728 55.936C294.837 54.656 296.203 53.0773 297.824 51.2C299.531 49.3226 301.28 47.5306 303.072 45.824C304.864 44.1173 306.485 42.9226 307.936 42.24C309.131 41.6426 310.325 41.344 311.52 41.344C312.715 41.344 313.696 41.6426 314.464 42.24C315.232 42.752 315.616 43.392 315.616 44.16C315.616 45.3546 314.72 46.3786 312.928 47.232C311.563 47.8293 309.728 48.6827 307.424 49.792C305.205 50.9013 302.901 52.224 300.512 53.76C298.123 55.296 296.075 56.96 294.368 58.752C295.648 63.2747 296.885 67.1573 298.08 70.4C299.36 73.6427 300.853 76.7573 302.56 79.744C304.352 82.6453 306.699 85.9306 309.6 89.6C311.563 91.8187 313.568 93.6106 315.616 94.976C317.664 96.3413 319.499 97.024 321.12 97.024C322.571 97.024 323.552 96.6827 324.064 96C324.661 95.4027 324.96 94.6347 324.96 93.696C324.96 92.5867 324.96 91.268 325 89.768C325.034 88.4967 325.097 88.1213 324.5 87.268C324.073 86.756 324 85.6947 324 85.268C324 85.012 324.659 84.768 325 84.768C325.768 84.768 326 85.768 326.5 86.768C327 87.768 327 87.768 327.52 89.268C327.5 91.268 327.52 91.8187 327.52 92.928C327.52 94.6347 326.923 96.0427 325.728 97.152C324.533 98.3467 323.168 99.2 321.632 99.712C320.096 100.224 318.773 100.48 317.664 100.48ZM292.576 43.136C296.245 41.5146 299.957 39.296 303.712 36.48C307.467 33.664 310.965 30.336 314.208 26.496C314.635 25.984 315.36 25.0453 316.384 23.68C317.408 22.2293 318.517 20.608 319.712 18.816C320.992 17.024 322.059 15.232 322.912 13.44C323.765 11.648 324.192 10.1546 324.192 8.95998C324.192 8.10664 323.936 7.50931 323.424 7.16798C323.168 6.91198 322.784 6.78398 322.272 6.78398C320.907 6.78398 319.328 7.50931 317.536 8.95998C311.819 13.3973 307.04 18.3893 303.2 23.936C299.445 29.3973 295.904 35.7973 292.576 43.136Z" fill="black"/>
<path d="M264.469 36.224C263.36 36.224 262.208 36.1386 261.013 35.968C259.818 35.712 259.221 34.9013 259.221 33.536C259.221 33.28 259.776 32.6826 260.885 31.744C262.08 30.8053 263.274 29.8666 264.469 28.928C265.749 27.904 266.517 27.3066 266.773 27.136C268.224 25.9413 269.12 25.344 269.461 25.344C269.888 25.344 269.888 25.8986 269.461 27.008C269.034 28.1173 268.821 29.0986 268.821 29.952C268.821 30.3786 268.565 31.104 268.053 32.128C267.541 33.152 266.944 34.0906 266.261 34.944C265.578 35.7973 264.981 36.224 264.469 36.224ZM250.517 82.048C248.981 82.048 247.573 81.7066 246.293 81.024C245.098 80.3413 244.202 79.0613 243.605 77.184C243.52 76.928 243.434 76.672 243.349 76.416C243.349 76.16 243.349 75.8613 243.349 75.52C243.349 73.8133 243.733 71.68 244.501 69.12C245.269 66.56 246.208 64.0853 247.317 61.696C246.805 62.3787 246.208 63.232 245.525 64.256C244.842 65.1946 243.861 66.432 242.581 67.968C242.24 68.3093 241.856 68.48 241.429 68.48C240.832 68.48 240.533 68.1387 240.533 67.456C240.533 66.944 240.704 66.5173 241.045 66.176C243.264 63.36 245.226 60.8427 246.933 58.624C248.725 56.4053 250.048 54.528 250.901 52.992C250.901 52.9066 250.858 52.864 250.773 52.864C250.773 52.7786 250.773 52.6933 250.773 52.608C250.773 52.352 250.901 51.968 251.157 51.456C251.84 49.408 252.522 47.7013 253.205 46.336C253.973 44.8853 254.784 44.0747 255.637 43.904C255.808 43.904 255.978 43.904 256.149 43.904C256.32 43.8187 256.49 43.776 256.661 43.776C257.6 43.776 258.453 43.9893 259.221 44.416C259.989 44.8426 260.373 45.4826 260.373 46.336C260.373 47.104 260.074 48.0427 259.477 49.152C258.965 50.2613 258.282 51.6266 257.429 53.248C255.552 57.1733 253.845 60.7573 252.309 64C250.858 67.1573 250.048 69.76 249.877 71.808C249.792 72.1493 249.749 72.4907 249.749 72.832C249.749 73.088 249.749 73.3866 249.749 73.728C249.749 77.1413 250.858 78.848 253.077 78.848C254.442 78.848 256.192 78.1226 258.325 76.672C260.458 75.136 262.634 73.3013 264.853 71.168C267.072 68.9493 269.077 66.8586 270.869 64.896C272.746 62.848 274.026 61.312 274.709 60.288C274.965 60.032 275.221 59.904 275.477 59.904C275.818 59.904 276.074 60.032 276.245 60.288C276.501 60.544 276.544 60.8853 276.373 61.312C275.605 62.7626 274.282 64.5973 272.405 66.816C270.613 68.9493 268.565 71.1253 266.261 73.344C264.042 75.4773 261.866 77.312 259.733 78.848C258.624 79.7013 257.216 80.4266 255.509 81.024C253.888 81.7066 252.224 82.048 250.517 82.048Z" fill="black"/>
<path d="M187.019 82.432C186.336 82.432 186.166 82.1333 186.507 81.536C186.678 81.024 187.104 79.744 187.787 77.696C188.555 75.648 189.451 73.1733 190.475 70.272C191.499 67.3706 192.566 64.4266 193.675 61.44C194.784 58.368 195.808 55.6373 196.747 53.248C196.15 54.016 195.211 55.1253 193.931 56.576C192.736 58.0266 191.456 59.5627 190.091 61.184C188.726 62.8053 187.446 64.2133 186.251 65.408C185.995 65.664 185.824 65.792 185.739 65.792C185.483 65.792 185.355 65.536 185.355 65.024C185.355 64 185.611 63.0613 186.123 62.208C188 59.8187 189.792 57.6 191.499 55.552C193.291 53.4186 194.912 51.4133 196.363 49.536C195.51 49.024 195.083 48.384 195.083 47.616C195.083 46.4213 195.68 45.824 196.875 45.824C197.387 45.824 197.771 45.9093 198.027 46.08C198.112 46.1653 198.198 46.208 198.283 46.208C198.368 46.208 198.454 46.2933 198.539 46.464C198.966 45.8666 199.307 45.312 199.563 44.8C199.904 44.288 200.203 43.7333 200.459 43.136C200.8 42.368 201.483 40.9173 202.507 38.784C203.616 36.5653 204.982 33.9626 206.603 30.976C208.224 27.9893 210.059 24.9173 212.107 21.76C214.24 18.5173 216.502 15.5306 218.891 12.8C221.366 9.98398 223.883 7.72265 226.443 6.01598C229.088 4.30931 231.776 3.45598 234.507 3.45598C234.848 3.45598 235.19 3.49864 235.531 3.58398C235.872 3.58398 236.214 3.62664 236.555 3.71198C238.688 4.13865 240.182 4.90665 241.035 6.01598C241.888 7.03998 242.315 8.27731 242.315 9.72798C242.315 10.752 242.102 11.8613 241.675 13.056C241.334 14.1653 240.822 15.2746 240.139 16.384C238.432 19.3706 236.171 22.4 233.355 25.472C230.539 28.4586 227.382 31.4453 223.883 34.432C220.47 37.3333 217.014 40.192 213.515 43.008C210.102 45.7386 206.902 48.3413 203.915 50.816C201.867 55.168 200.288 59.0506 199.179 62.464C198.07 65.792 197.216 68.48 196.619 70.528C197.558 69.3333 198.966 67.6266 200.843 65.408C202.72 63.1893 204.854 60.8 207.243 58.24C209.632 55.68 212.107 53.248 214.667 50.944C217.227 48.5546 219.659 46.6347 221.963 45.184C224.267 43.648 226.23 42.88 227.851 42.88C229.899 42.88 230.923 43.9466 230.923 46.08C230.923 48.128 230.198 50.3893 228.747 52.864C227.296 55.3386 226.102 57.4293 225.163 59.136C223.968 61.6106 222.987 64 222.219 66.304C221.536 68.5226 221.11 70.3573 220.939 71.808C220.854 72.1493 220.811 72.4907 220.811 72.832C220.811 73.088 220.811 73.3866 220.811 73.728C220.811 77.1413 222.006 78.848 224.395 78.848C225.675 78.848 227.382 78.08 229.515 76.544C231.648 75.008 233.824 73.1733 236.043 71.04C238.262 68.9067 240.267 66.8586 242.059 64.896C243.936 62.848 245.216 61.312 245.899 60.288C246.155 60.032 246.454 59.904 246.795 59.904C247.136 59.904 247.392 60.032 247.563 60.288C247.734 60.544 247.734 60.8853 247.563 61.312C246.71 62.7626 245.387 64.5973 243.595 66.816C241.803 68.9493 239.798 71.1253 237.579 73.344C235.36 75.4773 233.184 77.312 231.051 78.848C229.942 79.7013 228.491 80.4266 226.699 81.024C224.992 81.7066 223.286 82.048 221.579 82.048C220.214 82.048 218.891 81.7066 217.611 81.024C216.331 80.3413 215.392 79.0613 214.795 77.184C214.539 76.416 214.411 75.3493 214.411 73.984C214.411 73.5573 214.411 73.1306 214.411 72.704C214.411 72.192 214.454 71.68 214.539 71.168C214.88 68.4373 215.776 65.5786 217.227 62.592C218.763 59.52 220.171 56.7893 221.451 54.4C221.792 53.7173 222.048 53.12 222.219 52.608C222.475 52.096 222.603 51.6693 222.603 51.328C222.603 50.6453 222.304 50.304 221.707 50.304C221.11 50.304 220.171 50.688 218.891 51.456C217.611 52.224 215.904 53.5466 213.771 55.424C211.894 57.0453 209.888 59.1786 207.755 61.824C205.707 64.384 203.659 67.0293 201.611 69.76C199.648 72.4906 197.899 74.8373 196.363 76.8C194.912 78.7626 193.888 79.9146 193.291 80.256C192.864 80.512 191.883 80.9386 190.347 81.536C188.811 82.1333 187.702 82.432 187.019 82.432ZM206.347 45.056C209.76 42.752 213.472 39.8933 217.483 36.48C221.494 32.9813 225.248 29.2693 228.747 25.344C232.331 21.3333 235.062 17.536 236.939 13.952C237.963 11.9893 238.475 10.368 238.475 9.08798C238.475 7.63731 237.835 6.91198 236.555 6.91198C235.958 6.91198 235.275 7.08265 234.507 7.42398C233.739 7.67998 232.843 8.19198 231.819 8.95998C226.102 13.3973 221.28 18.688 217.355 24.832C213.43 30.8906 209.76 37.632 206.347 45.056Z" fill="black"/>
<path d="M149.528 87.168C146.115 87.168 144.408 86.2293 144.408 84.352C144.408 82.9867 145.133 81.5787 146.584 80.128C147.693 79.0187 148.931 78.1226 150.296 77.44C151.661 76.7573 152.515 76.416 152.856 76.416C153.283 76.416 153.496 76.5867 153.496 76.928C153.581 77.2693 153.411 77.5253 152.984 77.696C152.131 78.208 151.149 78.9333 150.04 79.872C149.016 80.7253 148.504 81.664 148.504 82.688C148.504 84.0533 149.315 84.736 150.936 84.736C152.899 84.736 154.947 84.1387 157.08 82.944C159.213 81.8347 161.176 80.384 162.968 78.592C164.845 76.8 166.339 75.008 167.448 73.216C168.643 71.3387 169.24 69.7173 169.24 68.352C169.24 67.2427 168.856 66.2187 168.088 65.28C167.32 64.3413 165.741 63.232 163.352 61.952C161.731 61.0133 160.152 60.032 158.616 59.008C157.165 57.984 156.056 56.7467 155.288 55.296C154.605 56.4907 153.709 57.9413 152.6 59.648C151.576 61.2693 150.339 62.976 148.888 64.768C148.376 65.28 147.864 65.536 147.352 65.536C146.84 65.536 146.584 65.3227 146.584 64.896C146.584 64.64 146.797 64.2133 147.224 63.616C149.528 60.8853 151.235 58.368 152.344 56.064C153.453 53.76 154.221 52.0106 154.648 50.816C154.989 48.3413 156.141 45.9946 158.104 43.776C160.067 41.5573 162.456 39.6373 165.272 38.016C168.088 36.3093 170.947 34.9867 173.848 34.048C176.835 33.1093 179.48 32.64 181.784 32.64C184.088 32.64 186.136 33.0667 187.928 33.92C189.72 34.7733 190.616 36.1387 190.616 38.016C190.616 39.04 190.317 40.1493 189.72 41.344C188.952 42.9653 187.672 44.416 185.88 45.696C185.795 45.7813 185.667 45.824 185.496 45.824C184.813 45.824 184.472 45.5253 184.472 44.928C184.472 44.5013 184.685 44.0746 185.112 43.648C185.795 43.0507 186.349 42.3253 186.776 41.472C187.203 40.6187 187.416 39.808 187.416 39.04C187.416 37.504 186.52 36.736 184.728 36.736C182.851 36.736 180.376 37.248 177.304 38.272C174.317 39.296 171.544 40.6186 168.984 42.24C166.083 44.1173 163.651 46.1653 161.688 48.384C159.725 50.6027 158.744 52.5653 158.744 54.272C158.744 55.1253 159 55.936 159.512 56.704C160.109 57.3867 161.219 58.1973 162.84 59.136C163.693 59.648 164.888 60.3307 166.424 61.184C167.96 61.952 169.283 62.6773 170.392 63.36C173.891 65.4933 175.64 67.7547 175.64 70.144C175.64 72.1067 174.787 74.112 173.08 76.16C171.373 78.1227 169.155 79.9147 166.424 81.536C163.779 83.2427 160.963 84.608 157.976 85.632C154.989 86.656 152.173 87.168 149.528 87.168Z" fill="black"/>
<path d="M125.421 82.048C123.885 82.048 122.52 81.7067 121.325 81.024C120.13 80.3413 119.234 79.0613 118.637 77.184C118.552 76.7573 118.424 76.288 118.253 75.776C118.168 75.1787 118.125 74.5813 118.125 73.984C118.125 71.936 118.381 69.632 118.893 67.072C119.49 64.512 120.13 62.3787 120.813 60.672C120.472 60.928 119.874 61.7813 119.021 63.232C118.168 64.6827 117.101 66.3893 115.821 68.352C114.541 70.2293 113.09 72.1493 111.469 74.112C109.933 75.9893 108.226 77.568 106.349 78.848C104.557 80.0427 102.637 80.64 100.589 80.64C99.2237 80.64 97.5597 80.256 95.597 79.488C93.7197 78.72 92.3543 77.6533 91.501 76.288C90.6477 74.9227 90.221 73.216 90.221 71.168C90.221 68.6933 90.7757 66.0053 91.885 63.104C92.9943 60.1173 94.4023 57.344 96.109 54.784C96.7063 53.9307 97.389 52.9067 98.157 51.712C98.925 50.5173 99.693 49.4933 100.461 48.64C101.229 47.7013 102.159 47.1893 102.5 47.104C103.524 46.7627 106.635 44.768 108 44.768C109.451 44.768 110.5 44.268 110.5 47.104C108.781 49.664 109.805 47.6587 109.805 48C109.805 48.4267 109.464 48.9813 108.781 49.664C107.842 50.5173 106.562 51.7973 104.941 53.504C103.32 55.2107 101.698 57.2587 100.077 59.648C98.541 62.0373 97.261 64.6827 96.237 67.584C95.3837 69.888 94.957 71.8933 94.957 73.6C94.957 76.5867 96.1517 78.08 98.541 78.08C100.589 78.08 102.765 77.2267 105.069 75.52C107.373 73.8133 109.592 71.7227 111.725 69.248C113.944 66.7733 115.906 64.3413 117.613 61.952C119.405 59.4773 120.77 57.5147 121.709 56.064C122.562 54.8693 123.501 53.3333 124.525 51.456C125.634 49.5787 126.701 47.744 127.725 45.952C128.749 44.16 129.56 42.8373 130.157 41.984C130.754 41.984 131.65 42.112 132.845 42.368C134.125 42.5387 135.192 42.88 136.045 43.392C136.984 43.904 137.24 44.544 136.813 45.312C136.301 46.1653 135.49 47.488 134.381 49.28C133.357 51.072 132.29 52.9067 131.181 54.784C130.157 56.576 129.346 58.0267 128.749 59.136C126.701 63.0613 125.378 67.2853 124.781 71.808C124.696 72.1493 124.653 72.4907 124.653 72.832C124.653 73.088 124.653 73.3867 124.653 73.728C124.653 77.1413 125.805 78.848 128.109 78.848C129.389 78.848 131.096 78.08 133.229 76.544C135.362 75.008 137.538 73.1733 139.757 71.04C142.061 68.9067 144.109 66.8587 145.901 64.896C147.778 62.848 149.058 61.312 149.741 60.288C149.912 60.032 150.168 59.904 150.509 59.904C150.85 59.904 151.106 60.032 151.277 60.288C151.533 60.544 151.533 60.8853 151.277 61.312C150.509 62.7627 149.186 64.5973 147.309 66.816C145.517 68.9493 143.512 71.1253 141.293 73.344C139.074 75.4773 136.898 77.312 134.765 78.848C133.656 79.7013 132.248 80.4267 130.541 81.024C128.834 81.7067 127.128 82.048 125.421 82.048Z" fill="black"/>
<path d="M26.624 124.416C23.552 124.416 21.0773 123.563 19.2 121.856C17.408 120.149 16.512 117.845 16.512 114.944C16.512 112.64 17.152 110.037 18.432 107.136C19.712 104.32 21.76 101.333 24.576 98.176C30.3787 91.52 36.8213 86.0587 43.904 81.792C51.072 77.5253 58.752 74.0693 66.944 71.424C68.1387 68.1813 69.248 64.896 70.272 61.568C71.296 58.1547 72.32 54.7413 73.344 51.328C69.1627 55.2533 64.5547 59.1787 59.52 63.104C54.4853 66.944 49.152 70.1867 43.52 72.832C37.888 75.392 32.0427 76.672 25.984 76.672C21.5467 76.672 17.3227 75.8613 13.312 74.24C9.38667 72.5333 6.18667 69.9733 3.712 66.56C1.23733 63.1467 0 58.752 0 53.376C0 40.1493 5.888 28.2453 17.664 17.664C24.4907 11.4347 31.5307 7.08267 39.552 4.35201C47.6587 1.536 56.576 0 65.536 0C66.56 0 68.0107 0.128001 69.888 0.384003C71.8507 0.554672 73.856 0.981338 75.904 1.664C77.952 2.26134 79.744 3.15734 81.28 4.35201C82.816 5.46134 83.712 6.91201 83.968 8.704C84.0533 9.04534 84.096 9.34401 84.096 9.60001C84.096 9.856 84.096 10.112 84.096 10.368C84.096 11.392 79.8693 19.044 79.528 19.556C79.1867 20.068 82.8587 13.44 82.432 13.44C74.112 32.056 81.152 12.7573 81.152 11.392C80.9813 9.08801 80.2133 7.33867 78.848 6.14401C77.568 4.86401 75.9467 4.01067 73.984 3.58401C72.1067 3.15734 70.1867 2.944 68.224 2.944C65.0667 2.944 61.2693 3.62667 56.832 4.992C52.48 6.272 47.872 8.10667 43.008 10.496C38.144 12.8 33.3227 15.5733 28.544 18.816C23.8507 21.9733 19.584 25.472 15.744 29.312C11.904 33.0667 8.832 37.0347 6.528 41.216C4.224 45.3973 3.072 49.6213 3.072 53.888C3.072 59.776 4.992 64.0427 8.832 66.688C12.7573 69.248 19.1147 71.424 25.088 71.424C30.8907 71.424 37.0347 68.736 43.52 66.688C48.384 65.2373 51.1573 64.2134 54.656 62.08C58.1547 59.8614 61.4827 57.344 64.64 54.528C67.7973 51.6267 71.168 48.4693 74.752 45.056C76.288 41.1307 78.2933 38.6133 80.768 37.504C83.2427 36.3947 85.5467 35.84 87.68 35.84C88.8747 35.84 89.9413 35.9253 90.88 36.096C91.8187 36.2667 92.4587 36.352 92.8 36.352C93.4827 36.4373 93.824 36.6933 93.824 37.12C93.824 37.888 93.312 38.1867 92.288 38.016C89.6427 37.8453 87.3387 39.0827 85.376 41.728C83.4133 44.288 81.8347 47.36 80.64 50.944C79.5307 53.9307 78.464 57.0027 77.44 60.16C76.416 63.3174 75.3067 66.4747 74.112 69.632C78.464 68.4373 83.2427 69.632 85.376 69.632C86.4 69.632 110.687 74.8 111.028 75.056C137.604 85.128 102.028 73.5573 102.028 73.984C102.625 74.24 102.028 74.752 102.028 73.984C101.516 73.8133 89.1253 71.424 88.528 71.424C87.4187 71.424 85.404 71.556 81.528 71.056C79.028 71.056 76.3733 71.2107 75.008 71.808C73.6427 72.4053 73.6853 74.2027 73.344 75.056C69.6747 84.3573 66.432 91.136 62.336 97.536C58.24 103.936 52.5653 109.099 48.384 113.024C44.288 117.035 40.3627 119.936 36.608 121.728C32.8533 123.52 29.5253 124.416 26.624 124.416ZM30.208 121.088C33.3653 121.088 36.48 119.851 39.552 117.376C42.624 114.987 45.568 111.872 48.384 108.032C51.2853 104.192 53.888 100.096 56.192 95.744C58.5813 91.392 60.6293 87.2533 62.336 83.328C64.0427 79.4027 65.3227 76.2453 66.176 73.856C59.1787 76.16 52.6933 79.232 46.72 83.072C40.7467 86.912 35.4133 91.7333 30.72 97.536C28.16 100.693 26.2827 103.637 25.088 106.368C23.9787 109.099 23.424 111.531 23.424 113.664C23.424 115.968 24.0213 117.76 25.216 119.04C26.496 120.405 28.16 121.088 30.208 121.088Z" fill="black"/>
</svg>
