<svg width="958" height="288" viewBox="0 0 958 288" fill="none" xmlns="http://www.w3.org/2000/svg">
<path d="M908.825 159.332C909.516 156.755 910.315 153.944 911.22 150.899C912.126 147.776 913.095 144.653 914.127 141.531C915.159 138.33 916.234 135.169 917.35 132.048C918.508 128.926 919.708 125.962 920.948 123.154C922.188 120.424 923.422 118.477 924.651 117.312C925.922 116.069 927.105 115.452 928.2 115.459C930.388 115.475 931.998 116.973 933.03 119.953C934.061 122.933 934.562 126.614 934.531 130.995C934.524 132.012 934.473 133.263 934.378 134.749C934.326 136.157 934.253 137.682 934.157 139.324C934.103 140.967 934.028 142.648 933.932 144.369C933.879 146.011 933.847 147.576 933.836 149.062C933.823 150.94 933.852 152.739 933.925 154.461C934.039 156.183 934.239 157.71 934.524 159.042C934.81 160.296 935.224 161.316 935.765 162.102C936.307 162.81 937.021 163.167 937.904 163.173C939.504 163.184 941.069 162.061 942.6 159.803C944.132 157.467 945.54 154.738 946.825 151.618C948.152 148.419 949.29 145.18 950.239 141.901C951.23 138.622 951.964 135.967 952.442 133.937C952.658 133.077 952.957 132.415 953.339 131.948C953.764 131.481 954.207 131.25 954.67 131.253C955.386 131.258 955.95 131.77 956.364 132.79C956.821 133.733 957.045 134.751 957.037 135.846C957.033 136.394 956.966 136.941 956.836 137.488C956.664 138.113 956.318 139.401 955.799 141.353C955.28 143.306 954.591 145.57 953.731 148.145C952.914 150.643 951.948 153.336 950.833 156.223C949.719 159.031 948.48 161.604 947.117 163.942C945.796 166.28 944.351 168.226 942.783 169.779C941.257 171.333 939.652 172.104 937.968 172.093C936.074 172.079 934.543 171.404 933.373 170.065C932.205 168.649 931.291 166.843 930.633 164.648C929.976 162.374 929.53 159.907 929.296 157.245C929.105 154.506 929.019 151.767 929.038 149.029C929.046 147.855 929.076 146.525 929.129 145.039C929.224 143.553 929.319 141.989 929.414 140.347C929.552 138.705 929.648 137.063 929.701 135.42C929.797 133.778 929.85 132.214 929.861 130.727C929.878 128.224 929.679 126.54 929.265 125.677C928.85 124.735 928.475 124.263 928.138 124.261C927.465 124.256 926.681 124.994 925.786 126.474C924.935 127.876 924.017 129.747 923.032 132.088C922.09 134.428 921.103 137.081 920.072 140.047C919.084 142.935 918.137 145.823 917.233 148.711C916.371 151.6 915.552 154.372 914.776 157.026C914.042 159.603 913.459 161.75 913.026 163.468C912.161 166.748 911.304 168.933 910.454 170.022C909.604 171.19 908.738 171.771 907.854 171.764C906.633 171.756 905.649 171.084 904.9 169.749C904.195 168.335 903.851 166.377 903.868 163.874C903.872 163.326 903.921 162.27 904.017 160.706C904.112 159.064 904.231 157.148 904.372 154.958C904.515 152.69 904.658 150.266 904.802 147.685C904.947 145.105 905.091 142.563 905.234 140.06C905.379 137.48 905.501 135.094 905.6 132.904C905.7 130.714 905.755 128.876 905.765 127.39C905.779 125.434 905.75 123.556 905.678 121.756C905.607 119.956 905.446 118.86 905.196 118.467C904.816 118.699 904.132 120.181 903.145 122.912C902.158 125.565 900.883 130.289 899.32 137.085C899.104 137.944 898.784 138.607 898.359 139.073C897.935 139.54 897.492 139.771 897.029 139.768C896.313 139.763 895.748 139.329 895.333 138.465C894.919 137.524 894.716 136.466 894.724 135.293C894.728 134.745 894.795 134.159 894.926 133.534C896.878 125.176 898.689 119.047 900.358 115.147C902.07 111.169 903.746 109.186 905.388 109.197C906.356 109.204 907.173 109.679 907.84 110.623C908.507 111.488 909.025 112.665 909.394 114.154C909.804 115.644 910.087 117.288 910.243 119.089C910.441 120.89 910.533 122.729 910.52 124.607C910.51 126.015 910.432 128.205 910.285 131.177C910.18 134.149 910.031 137.356 909.838 140.797C909.646 144.16 909.455 147.522 909.263 150.885C909.113 154.248 908.967 157.064 908.825 159.332Z" fill="black" fill-opacity="0.79"/>
<path d="M870.751 176.872C881.549 158.903 889.061 143.968 893.289 132.066C893.578 131.258 893.951 130.671 894.408 130.306C894.922 129.868 895.491 129.651 896.115 129.655C897.08 129.662 897.872 130.11 898.49 130.998C899.109 131.812 899.414 132.772 899.406 133.877C899.403 134.392 899.314 134.907 899.14 135.421C896.591 142.768 892.986 150.955 888.325 159.981C883.664 169.008 877.774 179.204 870.655 190.57C870.623 195.209 870.619 199.849 870.643 204.49C870.667 209.13 870.66 214.211 870.621 219.735C870.583 225.258 870.431 230.707 870.166 236.082C869.958 241.531 869.581 246.684 869.036 251.541C868.491 256.471 867.75 260.996 866.813 265.113C865.932 269.305 864.771 272.906 863.331 275.916C861.947 278.999 860.256 281.381 858.257 283.061C854.501 286.263 857.169 286.281 854.501 286.263C850.634 287.48 844.59 284.496 842.612 279.969C840.595 276.198 839.611 270.852 839.659 263.929C839.685 260.247 839.968 256.235 840.51 251.893C841.107 247.626 841.933 243.212 842.987 238.654C844.04 234.095 845.293 229.463 846.745 224.76C848.254 220.131 849.903 215.613 851.694 211.206C853.484 206.8 855.415 202.578 857.487 198.542C859.616 194.506 861.855 190.84 864.206 187.542C864.298 182.387 864.363 177.269 864.398 172.187C864.491 167.106 864.609 162.43 864.752 158.159C863.03 160.946 860.971 163.141 858.575 164.744C856.237 166.348 853.904 167.142 851.577 167.126C849.59 167.112 847.777 166.621 846.138 165.652C844.555 164.609 843.203 163.201 842.08 161.425C840.958 159.576 840.093 157.434 839.486 154.999C838.878 152.565 838.585 149.911 838.605 147.039C838.645 141.295 839.418 136.255 840.924 131.92C842.488 127.512 844.444 123.843 846.791 120.914C849.139 117.984 851.709 115.793 854.501 114.339C857.349 112.886 860.079 112.169 862.69 112.187C864.449 112.199 866.065 112.505 867.537 113.105C869.008 113.704 870.253 114.376 871.269 115.12C872.342 115.864 873.161 116.569 873.724 117.236C874.287 117.903 874.596 118.273 874.652 118.347C875.271 119.235 875.576 120.232 875.568 121.336C875.56 122.441 875.241 123.433 874.611 124.312C873.981 125.118 873.24 125.518 872.388 125.512C871.594 125.507 870.83 125.096 870.098 124.281C869.873 124.058 869.562 123.762 869.168 123.391C868.83 122.946 868.351 122.501 867.73 122.055C867.165 121.609 866.458 121.236 865.609 120.935C864.816 120.635 863.852 120.481 862.717 120.473C861.014 120.461 859.137 120.963 857.087 121.98C855.037 122.923 853.124 124.457 851.35 126.58C849.575 128.703 848.08 131.455 846.864 134.834C845.649 138.14 845.025 142.149 844.992 146.863C844.967 150.398 845.543 153.274 846.72 155.492C847.897 157.636 849.734 158.717 852.231 158.734C853.423 158.743 854.675 158.31 855.987 157.435C857.355 156.561 858.67 155.207 859.932 153.375C861.194 151.543 862.288 149.23 863.216 146.438C864.201 143.646 864.905 140.337 865.329 136.51C865.45 135.48 865.825 134.636 866.454 133.977C867.084 133.245 867.824 132.882 868.675 132.888C869.64 132.895 870.375 133.342 870.88 134.229C871.441 135.117 871.718 136.113 871.71 137.218C871.71 137.291 871.673 138.433 871.601 140.642C871.53 142.777 871.453 145.649 871.371 149.257C871.289 152.865 871.174 157.063 871.027 161.849C870.937 166.562 870.845 171.569 870.751 176.872ZM864.111 201.019C861.41 205.787 858.961 210.963 856.765 216.545C854.568 222.2 852.684 227.895 851.111 233.629C849.538 239.362 848.307 244.914 847.418 250.284C846.585 255.729 846.154 260.587 846.124 264.858C846.105 267.583 846.26 269.757 846.589 271.379C846.975 273.002 847.42 274.258 847.925 275.145C848.486 276.033 849.078 276.626 849.701 276.925C850.38 277.224 851.003 277.376 851.571 277.38C853.33 277.392 854.869 276.482 856.188 274.65C857.506 272.818 858.63 270.359 859.56 267.272C860.489 264.259 861.252 260.766 861.847 256.793C862.443 252.82 862.897 248.699 863.211 244.429C863.524 240.234 863.752 236.037 863.895 231.84C864.038 227.643 864.122 223.777 864.147 220.242C864.169 217.075 864.191 213.908 864.213 210.742C864.236 207.575 864.201 204.334 864.111 201.019Z" fill="black" fill-opacity="0.79"/>
<path d="M811.052 92.5769C811.032 95.3754 810.249 97.7636 808.703 99.7413C807.213 101.646 805.39 102.59 803.233 102.575C801.076 102.56 799.238 101.59 797.719 99.6644C796.257 97.6656 795.536 95.2669 795.556 92.4683C795.566 91.069 795.773 89.7816 796.179 88.6061C796.585 87.3569 797.132 86.2928 797.819 85.4138C798.564 84.4615 799.392 83.7308 800.304 83.2217C801.272 82.7129 802.296 82.4623 803.374 82.4699C804.453 82.4774 805.444 82.7421 806.349 83.264C807.31 83.7863 808.128 84.5285 808.802 85.4907C809.534 86.3796 810.094 87.4515 810.483 88.7063C810.872 89.8874 811.062 91.1776 811.052 92.5769ZM796.805 157.215C796.88 146.61 797.464 136.046 798.56 125.521C798.681 124.491 799.027 123.61 799.6 122.877C800.23 122.072 801.028 121.672 801.993 121.679C802.844 121.685 803.551 122.132 804.112 123.019C804.674 123.833 804.951 124.793 804.943 125.898C804.94 126.339 804.846 127.664 804.66 129.873C804.531 132.081 804.342 134.731 804.093 137.823C803.902 140.841 803.709 144.08 803.514 147.541C803.377 150.928 803.298 154.057 803.278 156.929C803.251 160.833 803.513 164.001 804.063 166.436C804.671 168.797 805.424 170.643 806.323 171.975C807.279 173.308 808.266 174.198 809.285 174.647C810.36 175.097 811.38 175.325 812.345 175.332C813.935 175.343 815.586 174.618 817.299 173.157C819.012 171.696 820.758 169.646 822.536 167.007C824.371 164.368 826.21 161.214 828.052 157.545C829.894 153.802 831.712 149.653 833.503 145.099C833.792 144.365 834.193 143.815 834.707 143.451C835.221 143.012 835.79 142.795 836.414 142.8C837.322 142.806 838.057 143.253 838.619 144.141C839.237 145.029 839.542 145.989 839.535 147.02C839.53 147.756 839.412 148.381 839.181 148.895C838.488 150.584 837.622 152.64 836.584 155.064C835.545 157.487 834.364 159.983 833.04 162.551C831.717 165.12 830.251 167.687 828.644 170.254C827.094 172.747 825.432 175.018 823.658 177.068C821.884 179.044 820.028 180.652 818.089 181.89C816.151 183.128 814.188 183.741 812.201 183.727C809.647 183.709 807.41 182.994 805.49 181.581C803.57 180.168 801.937 178.278 800.591 175.912C799.302 173.546 798.328 170.778 797.669 167.606C797.067 164.361 796.779 160.898 796.805 157.215ZM806.284 92.5435C806.291 91.5124 805.985 90.6265 805.366 89.8856C804.804 89.0716 804.126 88.6617 803.331 88.6562C802.536 88.6506 801.852 89.0509 801.279 89.857C800.706 90.5895 800.416 91.4713 800.409 92.5023C800.402 93.5334 800.679 94.4191 801.242 95.1596C801.804 95.9 802.483 96.273 803.277 96.2786C804.072 96.2841 804.756 95.9207 805.329 95.1882C805.958 94.4561 806.277 93.5745 806.284 92.5435Z" fill="black" fill-opacity="0.79"/>
<path d="M752.748 133.713C752.399 134.889 751.964 136.212 751.443 137.681C750.979 139.151 750.429 140.694 749.793 142.31C749.273 143.558 748.727 144.549 748.154 145.281C747.639 145.94 746.955 146.267 746.104 146.261C745.139 146.254 744.375 145.881 743.813 145.14C743.251 144.326 742.974 143.404 742.981 142.372C742.983 142.004 743.014 141.71 743.072 141.489C743.131 141.195 743.276 140.754 743.507 140.167C745.009 136.495 746.11 133.299 746.81 130.578C747.567 127.785 748.184 124.88 748.659 121.864C748.273 120.167 748 118.729 747.838 117.55C747.676 116.37 747.599 115.154 747.608 113.902C747.625 111.472 748.036 109.523 748.841 108.056C749.646 106.515 750.759 105.749 752.178 105.759C753.483 105.768 754.5 106.512 755.227 107.99C756.012 109.469 756.396 111.276 756.381 113.411C756.373 114.59 756.28 115.768 756.101 116.945C755.923 118.122 755.685 119.593 755.389 121.359C756.665 125.566 757.945 129.294 759.227 132.544C760.51 135.793 761.653 138.784 762.656 141.516C763.659 144.174 764.464 146.684 765.072 149.045C765.737 151.407 766.061 153.766 766.044 156.122C766.023 159.216 765.52 162.158 764.535 164.95C763.55 167.742 761.945 170.087 759.717 171.987C760.001 172.062 760.284 172.101 760.568 172.103C760.852 172.105 761.136 172.107 761.42 172.109C764.655 172.132 767.642 171.195 770.38 169.299C773.118 167.404 775.576 164.954 777.754 161.949C779.989 158.872 781.971 155.498 783.7 151.827C785.429 148.083 786.931 144.374 788.205 140.701C788.785 139.011 789.585 138.169 790.607 138.177C791.572 138.183 792.307 138.63 792.812 139.518C793.373 140.406 793.65 141.365 793.643 142.396C793.639 142.985 793.55 143.537 793.376 144.051C792.737 146.035 791.898 148.313 790.859 150.883C789.876 153.38 788.666 155.986 787.228 158.701C785.847 161.343 784.239 163.946 782.405 166.511C780.57 169.076 778.511 171.382 776.226 173.428C773.998 175.401 771.546 176.967 768.87 178.127C766.194 179.36 763.266 179.966 760.087 179.943C756.284 179.917 752.743 179.008 749.463 177.218C746.24 175.501 743.62 172.647 741.605 168.656C741.269 167.991 741.103 167.29 741.108 166.553C741.116 165.449 741.435 164.493 742.065 163.688C742.752 162.809 743.522 162.372 744.373 162.378C745.281 162.385 746.045 162.795 746.664 163.61C746.719 163.757 746.916 164.016 747.254 164.387C747.593 164.684 747.987 165.055 748.438 165.5C748.947 165.872 749.512 166.207 750.134 166.506C750.813 166.806 751.493 166.958 752.175 166.962C753.537 166.972 754.675 166.612 755.588 165.882C756.558 165.152 757.331 164.273 757.905 163.246C758.481 162.146 758.886 161.007 759.121 159.83C759.414 158.58 759.563 157.513 759.57 156.63C759.583 154.788 759.368 152.946 758.927 151.101C758.486 149.257 757.903 147.412 757.178 145.565C756.51 143.719 755.757 141.836 754.918 139.915C754.138 137.921 753.414 135.854 752.748 133.713Z" fill="black" fill-opacity="0.79"/>
<path d="M705.583 166.75C706.756 168.904 708.272 170.654 710.13 171.998C711.988 173.269 714.276 173.914 716.992 173.933C719.764 173.953 722.288 173.12 724.563 171.434C726.839 169.674 728.92 167.394 730.807 164.596C732.694 161.797 734.386 158.664 735.881 155.197C737.377 151.73 738.731 148.262 739.943 144.792C740.232 143.98 740.632 143.391 741.144 143.025C741.656 142.585 742.224 142.367 742.846 142.371C743.808 142.378 744.569 142.827 745.128 143.719C745.745 144.611 746.049 145.575 746.042 146.611C746.039 146.981 746.009 147.314 745.95 147.609C745.892 147.831 745.805 148.089 745.69 148.384C741.707 159.604 737.375 168.046 732.696 173.71C728.073 179.376 722.846 182.262 717.017 182.369C713.283 182.343 710.064 181.358 707.362 179.416C704.659 177.547 702.441 175.126 700.707 172.154C698.974 169.109 697.697 165.696 696.875 161.916C696.052 158.137 695.654 154.36 695.681 150.587C695.707 146.813 696.071 143.338 696.772 140.161C697.53 136.985 698.568 134.217 699.886 131.859C701.261 129.501 702.858 127.662 704.678 126.343C706.555 125.024 708.596 124.372 710.803 124.388C712.104 124.397 713.375 124.776 714.615 125.524C715.911 126.199 717.064 127.206 718.073 128.545C719.083 129.81 719.893 131.37 720.502 133.224C721.112 135.078 721.408 137.189 721.391 139.557C721.37 142.59 720.954 145.436 720.143 148.094C719.333 150.753 718.212 153.224 716.781 155.507C715.407 157.792 713.751 159.889 711.814 161.799C709.877 163.709 707.8 165.36 705.583 166.75ZM703.088 159.518C704.848 158.569 706.441 157.359 707.866 155.889C709.348 154.419 710.604 152.8 711.635 151.032C712.666 149.263 713.471 147.419 714.05 145.499C714.63 143.505 714.927 141.509 714.941 139.512C714.957 137.292 714.544 135.624 713.703 134.508C712.862 133.319 711.876 132.72 710.745 132.712C709.217 132.701 707.912 133.247 706.829 134.349C705.746 135.452 704.859 136.888 704.167 138.659C703.476 140.43 702.953 142.424 702.598 144.642C702.3 146.786 702.143 148.93 702.128 151.076C702.119 152.408 702.194 153.814 702.353 155.295C702.569 156.777 702.814 158.184 703.088 159.518Z" fill="black" fill-opacity="0.79"/>
<path d="M619.345 40.9375C625.381 41.5398 631.444 43.0901 637.535 45.5885C643.633 48.0055 649.46 51.3818 655.016 55.7175C660.571 60.0531 665.683 65.331 670.351 71.5511C675.028 77.6898 678.942 84.7389 682.094 92.6984C685.246 100.658 687.464 109.511 688.747 119.257C690.08 129.007 690.155 139.66 688.973 151.216C687.791 162.771 685.469 173.349 682.008 182.95C678.547 192.552 674.241 200.712 669.092 207.433C663.942 214.153 658.092 219.241 651.542 222.698C644.991 226.154 638.035 227.516 630.673 226.781C627.189 226.433 623.627 225.626 619.989 224.359C616.343 223.173 612.746 221.499 609.199 219.336C605.653 217.174 602.197 214.61 598.832 211.643C595.524 208.601 592.413 205.084 589.5 201.094C584.973 207.055 579.975 211.57 574.505 214.642C569.092 217.636 563.564 218.852 557.92 218.289C554.877 217.985 552.089 217.132 549.555 215.728C547.022 214.325 544.882 212.467 543.135 210.155C541.438 207.849 540.179 205.134 539.358 202.01C538.586 198.892 538.388 195.501 538.762 191.84C539.087 188.666 539.857 185.742 541.072 183.069C542.337 180.4 543.936 178.093 545.871 176.149C547.854 174.21 550.11 172.75 552.64 171.769C555.218 170.793 557.956 170.45 560.851 170.739C569.39 171.591 578.967 177.807 589.582 189.388C592.199 185.128 594.482 180.259 596.43 174.782C598.593 168.668 600.428 162.357 601.937 155.849C603.503 149.264 604.942 142.708 606.254 136.18C607.616 129.658 608.961 123.298 610.289 117.101C611.666 110.908 613.251 105.107 615.044 99.6956C616.886 94.2895 619.046 89.4083 621.525 85.0521C624.06 80.6195 627.139 76.9397 630.76 74.0129C631.292 73.6549 631.755 73.4956 632.147 73.5348C632.834 73.6033 633.431 74.0738 633.936 74.9463C634.491 75.8237 634.694 76.9948 634.544 78.4595C634.369 80.1684 633.769 81.4238 632.745 82.2259C629.886 84.489 627.427 87.4495 625.367 91.1076C623.364 94.6892 621.582 98.786 620.019 103.398C618.457 108.01 617.078 113.01 615.882 118.398C614.686 123.787 613.49 129.422 612.293 135.303C611.303 140.137 610.239 145.209 609.101 150.521C607.97 155.752 606.693 160.968 605.269 166.169C603.853 171.289 602.199 176.303 600.309 181.211C598.476 186.042 596.362 190.476 593.966 194.511C594.056 194.603 594.096 194.689 594.088 194.77C594.137 194.775 594.207 194.823 594.296 194.914C599.896 201.721 605.896 207.046 612.295 210.89C618.693 214.735 625.107 216.978 631.536 217.619C638.505 218.314 644.933 217.024 650.821 213.748C656.758 210.477 661.969 205.818 666.455 199.771C670.949 193.643 674.643 186.367 677.538 177.942C680.432 169.517 682.371 160.504 683.353 150.901C684.352 141.137 684.299 131.965 683.193 123.388C682.096 114.729 680.183 106.77 677.456 99.5107C674.777 92.2561 671.357 85.7084 667.195 79.8677C663.082 74.0318 658.485 69.0519 653.404 64.928C648.38 60.7275 642.97 57.3928 637.175 54.9238C631.436 52.3784 625.573 50.807 619.586 50.2096C611.538 49.4066 604.06 49.8113 597.152 51.4238C590.302 52.9599 584.252 55.6444 579.001 59.4773C573.799 63.3152 569.553 68.2348 566.262 74.2362C562.971 80.2375 560.917 87.2255 560.101 95.2001C559.635 99.7571 559.616 103.824 560.043 107.402C560.519 110.984 561.238 114.138 562.198 116.865C563.216 119.515 564.37 121.808 565.659 123.745C566.948 125.682 568.172 127.284 569.332 128.551C570.499 129.736 571.5 130.617 572.333 131.193C573.216 131.774 573.727 132.113 573.865 132.209C574.478 132.517 574.911 133.135 575.163 134.065C575.472 134.918 575.573 135.873 575.465 136.931C575.323 138.314 574.92 139.343 574.257 140.016C573.593 140.69 572.917 140.993 572.23 140.924C571.249 140.826 570.059 140.337 568.662 139.458C567.273 138.498 565.823 137.161 564.313 135.448C562.86 133.659 561.42 131.502 559.992 128.975C558.623 126.372 557.442 123.378 556.45 119.99C555.458 116.603 554.757 112.793 554.347 108.56C553.986 104.331 554.064 99.6945 554.58 94.6493C555.521 85.454 557.765 77.3342 561.311 70.2896C564.915 63.1686 569.556 57.3019 575.233 52.6895C580.911 48.0771 587.474 44.745 594.922 42.6932C602.419 40.6463 610.56 40.061 619.345 40.9375ZM584.895 195.949C580.249 190.964 575.858 187.115 571.724 184.401C567.589 181.686 563.706 180.148 560.074 179.786C558.013 179.58 556.057 179.796 554.207 180.433C552.415 180.994 550.814 181.862 549.405 183.037C547.996 184.212 546.835 185.617 545.924 187.252C545.014 188.887 544.462 190.641 544.271 192.513C544.088 194.303 544.224 196.125 544.678 197.979C545.182 199.837 546.026 201.525 547.21 203.04C548.442 204.561 550.019 205.869 551.939 206.965C553.86 208.061 556.17 208.743 558.869 209.012C563.482 209.473 568.012 208.568 572.458 206.299C576.962 203.954 581.107 200.504 584.895 195.949Z" fill="black" fill-opacity="0.79"/>
<path d="M480.205 166.888C481.13 164.464 482.199 161.82 483.411 158.956C484.623 156.018 485.921 153.081 487.304 150.145C488.688 147.135 490.128 144.162 491.624 141.227C493.177 138.292 494.786 135.504 496.451 132.865C498.115 130.299 499.774 128.469 501.428 127.376C503.139 126.209 504.732 125.631 506.208 125.642C509.16 125.662 511.335 127.077 512.735 129.885C514.134 132.694 514.819 136.16 514.79 140.284C514.784 141.242 514.719 142.42 514.595 143.818C514.529 145.144 514.434 146.579 514.31 148.125C514.242 149.671 514.146 151.254 514.021 152.873C513.954 154.419 513.915 155.892 513.905 157.291C513.893 159.059 513.938 160.753 514.04 162.374C514.199 163.996 514.472 165.434 514.861 166.688C515.25 167.87 515.811 168.831 516.544 169.573C517.277 170.241 518.24 170.579 519.432 170.587C521.588 170.602 523.696 169.549 525.755 167.428C527.813 165.233 529.705 162.668 531.428 159.734C533.209 156.727 534.734 153.681 536.005 150.597C537.332 147.513 538.315 145.016 538.952 143.105C539.242 142.297 539.644 141.674 540.157 141.235C540.728 140.798 541.326 140.581 541.95 140.585C542.915 140.592 543.678 141.076 544.239 142.037C544.857 142.926 545.163 143.885 545.155 144.916C545.152 145.432 545.063 145.947 544.889 146.461C544.658 147.049 544.195 148.261 543.501 150.097C542.807 151.933 541.884 154.063 540.732 156.485C539.637 158.834 538.342 161.366 536.847 164.081C535.353 166.722 533.69 169.14 531.858 171.337C530.083 173.534 528.14 175.362 526.029 176.82C523.976 178.279 521.813 179 519.543 178.984C516.989 178.966 514.921 178.326 513.341 177.062C511.761 175.726 510.524 174.023 509.63 171.955C508.737 169.813 508.129 167.488 507.806 164.982C507.54 162.402 507.416 159.824 507.434 157.246C507.442 156.141 507.479 154.89 507.546 153.491C507.669 152.092 507.793 150.62 507.917 149.074C508.098 147.529 508.223 145.983 508.29 144.437C508.415 142.891 508.482 141.419 508.491 140.019C508.508 137.663 508.235 136.077 507.673 135.263C507.112 134.375 506.604 133.93 506.15 133.927C505.242 133.92 504.187 134.613 502.985 136.004C501.841 137.321 500.608 139.08 499.287 141.281C498.023 143.481 496.7 145.976 495.318 148.765C493.993 151.481 492.725 154.197 491.514 156.914C490.36 159.631 489.263 162.237 488.224 164.734C487.242 167.158 486.461 169.178 485.882 170.794C484.725 173.879 483.576 175.933 482.433 176.956C481.29 178.053 480.123 178.597 478.931 178.589C477.285 178.578 475.955 177.942 474.942 176.683C473.987 175.351 473.517 173.506 473.534 171.149C473.537 170.634 473.601 169.64 473.725 168.168C473.849 166.622 474.004 164.819 474.188 162.758C474.374 160.623 474.56 158.341 474.747 155.912C474.935 153.483 475.122 151.091 475.308 148.735C475.496 146.306 475.653 144.061 475.781 142C475.909 139.938 475.978 138.208 475.988 136.809C476.001 134.968 475.956 133.2 475.855 131.505C475.753 129.81 475.533 128.778 475.195 128.407C474.683 128.625 473.765 130.017 472.441 132.586C471.118 135.081 469.413 139.525 467.324 145.918C467.035 146.726 466.605 147.349 466.034 147.787C465.463 148.225 464.866 148.441 464.241 148.437C463.276 148.43 462.513 148.02 461.951 147.206C461.39 146.318 461.113 145.322 461.121 144.217C461.124 143.702 461.213 143.15 461.388 142.562C463.997 134.7 466.422 128.935 468.661 125.268C470.958 121.528 473.213 119.666 475.427 119.681C476.732 119.69 477.836 120.14 478.738 121.03C479.641 121.847 480.342 122.956 480.843 124.359C481.401 125.762 481.788 127.312 482.003 129.007C482.275 130.703 482.405 132.435 482.392 134.202C482.383 135.528 482.283 137.589 482.093 140.387C481.96 143.185 481.769 146.203 481.519 149.442C481.27 152.607 481.021 155.772 480.771 158.937C480.579 162.103 480.39 164.753 480.205 166.888Z" fill="black" fill-opacity="0.79"/>
<path d="M426.921 164.305C428.098 166.449 429.619 168.19 431.483 169.529C433.347 170.794 435.641 171.436 438.366 171.455C441.147 171.475 443.679 170.646 445.961 168.968C448.244 167.216 450.332 164.948 452.225 162.162C454.117 159.377 455.814 156.258 457.314 152.807C458.814 149.356 460.172 145.904 461.388 142.451C461.678 141.643 462.079 141.057 462.593 140.692C463.107 140.254 463.676 140.037 464.3 140.041C465.265 140.048 466.028 140.495 466.59 141.383C467.208 142.271 467.513 143.231 467.506 144.262C467.504 144.63 467.473 144.961 467.414 145.255C467.356 145.476 467.269 145.733 467.153 146.027C463.158 157.194 458.814 165.596 454.12 171.234C449.482 176.873 444.24 179.745 438.392 179.852C434.646 179.825 431.417 178.845 428.706 176.911C425.994 175.051 423.769 172.642 422.03 169.684C420.292 166.652 419.01 163.255 418.185 159.493C417.36 155.731 416.96 151.972 416.987 148.216C417.013 144.46 417.378 141.001 418.081 137.839C418.841 134.678 419.882 131.923 421.204 129.576C422.583 127.228 424.185 125.398 426.011 124.086C427.893 122.773 429.941 122.125 432.155 122.14C433.461 122.149 434.735 122.526 435.979 123.272C437.28 123.944 438.436 124.946 439.449 126.279C440.462 127.538 441.274 129.09 441.885 130.936C442.497 132.781 442.794 134.882 442.778 137.239C442.757 140.259 442.339 143.091 441.526 145.737C440.713 148.383 439.589 150.842 438.154 153.115C436.776 155.389 435.115 157.476 433.171 159.377C431.228 161.279 429.145 162.921 426.921 164.305ZM424.417 157.106C426.184 156.161 427.781 154.957 429.211 153.494C430.697 152.032 431.957 150.42 432.991 148.66C434.025 146.9 434.833 145.064 435.414 143.153C435.995 141.169 436.293 139.182 436.307 137.194C436.322 134.984 435.908 133.324 435.065 132.214C434.221 131.029 433.232 130.433 432.097 130.425C430.564 130.415 429.255 130.958 428.169 132.055C427.083 133.152 426.193 134.582 425.499 136.345C424.806 138.107 424.281 140.092 423.925 142.299C423.626 144.433 423.469 146.568 423.454 148.704C423.445 150.029 423.52 151.429 423.68 152.903C423.897 154.378 424.143 155.779 424.417 157.106Z" fill="black" fill-opacity="0.79"/>
<path d="M377.208 162.52C378.153 165.326 379.727 167.583 381.929 169.292C384.131 170.928 386.623 171.756 389.404 171.775C390.256 171.781 391.647 171.644 393.579 171.363C395.512 171.008 397.733 169.919 400.244 168.095C402.811 166.198 405.528 163.234 408.395 159.204C411.261 155.173 414.054 149.485 416.774 142.139C417.063 141.331 417.465 140.744 417.978 140.38C418.492 139.941 419.061 139.724 419.686 139.729C420.651 139.735 421.414 140.183 421.975 141.07C422.593 141.959 422.899 142.918 422.892 143.949C422.888 144.391 422.771 144.979 422.539 145.714C420.514 151.077 418.267 155.885 415.796 160.139C413.326 164.32 410.661 167.91 407.802 170.91C404.943 173.836 401.948 176.061 398.815 177.586C395.738 179.185 392.582 179.973 389.347 179.95C386.793 179.932 384.384 179.4 382.121 178.353C379.914 177.306 377.994 175.93 376.36 174.225C374.783 172.446 373.519 170.486 372.569 168.343C371.677 166.127 371.238 163.878 371.254 161.595C371.256 161.3 371.288 160.895 371.348 160.38C371.408 159.865 371.554 159.314 371.785 158.726C372.074 158.065 372.447 157.479 372.904 156.967C373.419 156.381 374.104 155.907 374.958 155.545C377.291 154.677 379.427 153.624 381.366 152.386C383.362 151.074 385.075 149.613 386.506 148.003C387.936 146.393 389.055 144.633 389.863 142.724C390.672 140.741 391.084 138.608 391.1 136.325C391.114 134.336 390.615 132.712 389.602 131.453C388.589 130.194 387.344 129.559 385.869 129.549C384.336 129.538 382.827 130.227 381.341 131.616C379.856 132.932 378.396 134.726 376.961 136.999C375.583 139.199 374.26 141.767 372.99 144.704C371.722 147.568 370.537 150.579 369.436 153.738C368.392 156.898 367.462 160.059 366.645 163.22C365.829 166.307 365.156 169.175 364.626 171.823C364.45 172.632 364.246 173.514 364.012 174.47C363.835 175.426 363.545 176.308 363.142 177.115C362.738 177.996 362.251 178.692 361.68 179.204C361.108 179.789 360.368 180.078 359.46 180.072C358.608 180.066 357.789 179.582 357.001 178.619C356.212 177.729 355.826 176.18 355.841 173.971C355.844 173.529 355.856 171.835 355.877 168.889C355.954 165.944 356.038 162.114 356.128 157.401C356.218 152.615 356.313 147.165 356.412 141.053C356.569 134.868 356.7 128.35 356.805 121.502C356.91 114.579 357.045 107.473 357.21 100.183C357.374 92.8927 357.509 85.7864 357.614 78.864C357.72 71.9417 357.822 65.3876 357.922 59.2017C358.08 52.9425 358.204 47.4196 358.294 42.633C358.385 37.7727 358.441 33.8329 358.462 30.8133C358.54 27.7206 358.582 25.8796 358.586 25.2905C358.594 24.1121 358.941 23.1571 359.627 22.4254C360.314 21.6201 361.055 21.2202 361.85 21.2258C362.758 21.2321 363.521 21.6425 364.14 22.457C364.759 23.1979 365.064 24.1943 365.056 25.4463C365.055 25.5936 365.016 27.0663 364.94 29.8645C364.92 32.5894 364.866 36.2715 364.777 40.9108C364.688 45.5501 364.565 50.9626 364.408 57.1481C364.308 63.334 364.176 69.9247 364.014 76.9203C363.909 83.8427 363.773 90.9858 363.608 98.3496C363.5 105.714 363.365 112.894 363.202 119.889C363.096 126.885 362.993 133.55 362.892 139.883C362.791 146.216 362.695 151.813 362.604 156.673C363.538 152.924 364.73 148.992 366.177 144.878C367.626 140.69 369.327 136.835 371.282 133.314C373.237 129.792 375.414 126.898 377.814 124.632C380.271 122.366 382.975 121.243 385.927 121.264C387.573 121.275 389.102 121.691 390.516 122.511C391.93 123.258 393.143 124.334 394.154 125.74C395.224 127.074 396.036 128.663 396.59 130.508C397.202 132.353 397.5 134.344 397.485 136.48C397.462 139.794 396.873 142.846 395.718 145.637C394.564 148.354 393.042 150.811 391.154 153.007C389.265 155.129 387.095 156.992 384.643 158.595C382.248 160.199 379.77 161.507 377.208 162.52Z" fill="black" fill-opacity="0.79"/>
<path d="M333.531 89.08C333.512 91.8786 332.729 94.2667 331.182 96.2444C329.693 98.1489 327.87 99.0936 325.713 99.0785C323.556 99.0634 321.718 98.093 320.199 96.1675C318.737 94.1687 318.016 91.77 318.036 88.9715C318.045 87.5722 318.253 86.2848 318.659 85.1092C319.065 83.86 319.611 82.7959 320.299 81.9169C321.043 80.9647 321.872 80.234 322.783 79.7248C323.752 79.2161 324.775 78.9655 325.854 78.973C326.932 78.9806 327.924 79.2453 328.828 79.7672C329.79 80.2895 330.608 81.0317 331.282 81.9939C332.014 82.8828 332.574 83.9546 332.963 85.2094C333.352 86.3905 333.541 87.6807 333.531 89.08ZM319.285 153.719C319.359 143.113 319.944 132.549 321.04 122.025C321.16 120.994 321.507 120.113 322.08 119.38C322.71 118.575 323.507 118.175 324.472 118.182C325.324 118.188 326.03 118.635 326.592 119.523C327.154 120.337 327.431 121.296 327.423 122.401C327.42 122.843 327.325 124.168 327.14 126.376C327.011 128.584 326.822 131.234 326.573 134.326C326.382 137.344 326.189 140.584 325.994 144.044C325.857 147.431 325.778 150.56 325.758 153.432C325.731 157.336 325.992 160.505 326.543 162.939C327.151 165.3 327.904 167.146 328.803 168.478C329.759 169.811 330.746 170.702 331.764 171.151C332.84 171.6 333.86 171.828 334.825 171.835C336.414 171.846 338.066 171.121 339.779 169.66C341.492 168.199 343.238 166.149 345.016 163.51C346.851 160.872 348.689 157.718 350.531 154.048C352.374 150.305 354.191 146.156 355.983 141.602C356.272 140.868 356.673 140.318 357.186 139.954C357.7 139.515 358.27 139.298 358.894 139.303C359.802 139.309 360.537 139.756 361.098 140.644C361.716 141.532 362.022 142.492 362.015 143.523C362.01 144.259 361.892 144.884 361.661 145.398C360.968 147.087 360.102 149.144 359.063 151.567C358.025 153.99 356.844 156.486 355.52 159.054C354.196 161.623 352.731 164.19 351.124 166.757C349.573 169.25 347.911 171.521 346.137 173.571C344.364 175.547 342.508 177.155 340.569 178.393C338.63 179.632 336.668 180.244 334.681 180.23C332.127 180.212 329.89 179.497 327.969 178.084C326.049 176.671 324.416 174.782 323.071 172.415C321.782 170.05 320.808 167.281 320.149 164.109C319.547 160.864 319.259 157.401 319.285 153.719ZM328.763 89.0466C328.771 88.0156 328.465 87.1296 327.845 86.3888C327.284 85.5747 326.605 85.1649 325.811 85.1593C325.016 85.1537 324.332 85.554 323.759 86.3602C323.186 87.0926 322.896 87.9744 322.889 89.0055C322.881 90.0365 323.159 90.9223 323.721 91.6627C324.284 92.4031 324.963 92.7761 325.757 92.7817C326.552 92.7873 327.236 92.4238 327.808 91.6913C328.438 90.9592 328.756 90.0777 328.763 89.0466Z" fill="black" fill-opacity="0.79"/>
<path d="M260.278 165.899C261.204 163.402 262.273 160.721 263.485 157.857C264.697 154.92 265.996 151.946 267.379 148.936C268.763 145.852 270.232 142.806 271.785 139.797C273.339 136.789 274.948 133.964 276.613 131.325C278.277 128.759 279.936 126.929 281.59 125.836C283.301 124.669 284.895 124.091 286.37 124.102C287.846 124.112 289.12 124.526 290.193 125.344C291.323 126.088 292.224 127.125 292.896 128.456C293.625 129.787 294.153 131.337 294.481 133.107C294.866 134.877 295.052 136.793 295.037 138.856C295.025 140.549 294.867 142.831 294.563 145.702C294.317 148.499 294.183 151.444 294.161 154.537C294.149 156.304 294.193 158.072 294.294 159.841C294.452 161.536 294.697 163.084 295.028 164.486C295.416 165.814 295.976 166.923 296.707 167.812C297.44 168.627 298.402 169.039 299.594 169.047C300.956 169.057 302.322 168.588 303.691 167.64C305.06 166.618 306.403 165.302 307.72 163.691C309.038 162.006 310.299 160.174 311.505 158.194C312.712 156.14 313.804 154.122 314.783 152.14C315.763 150.085 316.628 148.139 317.378 146.303C318.13 144.394 318.737 142.815 319.2 141.566C319.779 139.876 320.778 139.036 322.197 139.046C323.162 139.053 323.926 139.5 324.487 140.388C325.048 141.275 325.326 142.235 325.318 143.266C325.314 143.855 325.225 144.407 325.051 144.921C324.82 145.509 324.358 146.721 323.663 148.557C323.026 150.394 322.131 152.523 320.979 154.946C319.884 157.368 318.589 159.9 317.094 162.541C315.6 165.182 313.937 167.638 312.104 169.908C310.329 172.105 308.386 173.933 306.276 175.391C304.223 176.776 302.061 177.461 299.79 177.445C297.179 177.426 295.084 176.712 293.505 175.302C291.926 173.818 290.69 171.968 289.797 169.752C288.961 167.536 288.382 165.065 288.061 162.338C287.796 159.611 287.673 156.959 287.691 154.381C287.7 153.055 287.738 151.656 287.805 150.184C287.93 148.638 288.054 147.129 288.178 145.657C288.302 144.185 288.396 142.823 288.462 141.571C288.585 140.247 288.649 139.142 288.655 138.258C288.671 135.975 288.427 134.427 287.921 133.613C287.473 132.8 286.937 132.391 286.312 132.387C285.404 132.381 284.349 133.073 283.147 134.464C282.003 135.781 280.77 137.54 279.449 139.741C278.185 141.941 276.89 144.436 275.565 147.226C274.297 149.942 273.058 152.658 271.847 155.375C270.636 158.091 269.539 160.698 268.556 163.196C267.574 165.619 266.765 167.639 266.13 169.255C264.916 172.339 263.681 174.393 262.425 175.415C261.226 176.512 260.143 177.056 259.178 177.05C257.419 177.037 256.063 176.144 255.11 174.37C254.215 172.522 253.776 170.31 253.794 167.732L253.843 160.772C253.94 146.853 254.033 133.597 254.121 121.003C254.267 108.337 254.491 96.591 254.794 85.7666C255.154 74.8689 255.649 65.0401 256.278 56.2801C256.964 47.4469 257.925 39.9414 259.16 33.7634C260.396 27.5118 261.934 22.6985 263.774 19.3235C265.671 15.9489 268.01 14.2713 270.791 14.2908C273.175 14.3075 275.184 15.1686 276.819 16.874C278.453 18.5794 279.771 20.9086 280.772 23.8616C281.773 26.741 282.487 30.1339 282.914 34.0403C283.341 37.8731 283.54 41.9252 283.51 46.1967C283.449 54.887 282.765 63.4256 281.458 71.8126C280.207 80.1262 278.533 88.2528 276.433 96.1923C274.334 104.132 271.896 111.885 269.118 119.451C266.341 126.944 263.423 134.252 260.365 141.375C260.355 142.7 260.344 144.284 260.331 146.125C260.319 147.966 260.306 149.807 260.293 151.648C260.28 153.489 260.268 155.22 260.256 156.84C260.245 158.461 260.236 159.749 260.229 160.707L260.278 165.899ZM260.564 125.136C262.995 118.377 265.198 111.801 267.173 105.407C269.205 98.9404 270.925 92.5081 272.332 86.1104C273.796 79.7131 274.948 73.24 275.789 66.691C276.63 60.0684 277.075 53.1852 277.125 46.0415C277.134 44.8632 277.09 42.9848 276.994 40.4064C276.956 37.8284 276.719 35.2121 276.283 32.5577C275.904 29.9036 275.268 27.5792 274.374 25.5844C273.536 23.59 272.323 22.5872 270.733 22.576C269.485 22.5673 268.398 23.6644 267.475 25.8675C266.552 27.9969 265.736 30.9371 265.029 34.6883C264.322 38.3659 263.724 42.6702 263.235 47.6014C262.747 52.5325 262.341 57.7588 262.019 63.2803C261.696 68.8018 261.429 74.471 261.218 80.2878C261.064 86.1051 260.939 91.7753 260.844 97.2984C260.749 102.748 260.685 107.866 260.651 112.653C260.618 117.44 260.588 121.601 260.564 125.136Z" fill="black" fill-opacity="0.79"/>
<path d="M218.949 134.125C218.6 135.3 218.165 136.623 217.644 138.092C217.18 139.562 216.63 141.105 215.994 142.721C215.474 143.969 214.928 144.96 214.355 145.692C213.84 146.351 213.156 146.678 212.305 146.672C211.34 146.665 210.576 146.292 210.014 145.551C209.452 144.737 209.175 143.815 209.182 142.784C209.184 142.415 209.215 142.121 209.273 141.9C209.332 141.606 209.477 141.165 209.708 140.578C211.21 136.906 212.311 133.71 213.011 130.99C213.768 128.196 214.385 125.291 214.86 122.275C214.475 120.578 214.201 119.14 214.039 117.961C213.877 116.781 213.8 115.565 213.809 114.313C213.826 111.883 214.237 109.934 215.042 108.467C215.847 106.926 216.96 106.16 218.379 106.17C219.684 106.179 220.701 106.923 221.428 108.401C222.213 109.88 222.597 111.687 222.582 113.823C222.574 115.001 222.481 116.179 222.302 117.356C222.124 118.533 221.886 120.004 221.59 121.77C222.866 125.977 224.146 129.705 225.429 132.955C226.711 136.204 227.854 139.195 228.857 141.927C229.86 144.586 230.665 147.095 231.273 149.456C231.938 151.818 232.262 154.177 232.245 156.534C232.224 159.627 231.721 162.569 230.736 165.361C229.751 168.153 228.146 170.498 225.919 172.398C226.202 172.473 226.485 172.512 226.769 172.514C227.053 172.516 227.337 172.518 227.621 172.52C230.856 172.543 233.843 171.606 236.581 169.711C239.319 167.815 241.777 165.365 243.955 162.36C246.19 159.283 248.172 155.909 249.901 152.238C251.63 148.494 253.132 144.785 254.406 141.112C254.986 139.422 255.786 138.581 256.808 138.588C257.773 138.595 258.508 139.042 259.013 139.929C259.574 140.817 259.851 141.776 259.844 142.807C259.84 143.396 259.751 143.948 259.577 144.462C258.939 146.446 258.099 148.724 257.06 151.294C256.077 153.791 254.867 156.397 253.429 159.112C252.048 161.754 250.44 164.357 248.606 166.922C246.771 169.487 244.712 171.793 242.427 173.839C240.199 175.812 237.747 177.378 235.071 178.538C232.395 179.771 229.467 180.377 226.289 180.354C222.486 180.328 218.944 179.419 215.664 177.629C212.441 175.912 209.821 173.058 207.806 169.067C207.47 168.402 207.304 167.701 207.309 166.965C207.317 165.86 207.636 164.905 208.266 164.099C208.954 163.22 209.723 162.783 210.574 162.789C211.482 162.796 212.246 163.206 212.865 164.021C212.92 164.168 213.117 164.427 213.455 164.798C213.794 165.095 214.188 165.466 214.639 165.911C215.148 166.283 215.713 166.618 216.335 166.917C217.014 167.217 217.695 167.369 218.376 167.373C219.738 167.383 220.876 167.023 221.789 166.293C222.759 165.563 223.532 164.685 224.107 163.657C224.682 162.557 225.087 161.418 225.323 160.241C225.615 158.991 225.764 157.924 225.771 157.041C225.784 155.199 225.569 153.357 225.128 151.512C224.687 149.668 224.104 147.823 223.379 145.976C222.711 144.13 221.958 142.247 221.12 140.326C220.339 138.332 219.615 136.265 218.949 134.125Z" fill="black" fill-opacity="0.79"/>
<path d="M176.434 162.329C174.418 166.513 172.067 169.811 169.382 172.223C166.754 174.635 164.106 175.831 161.439 175.813C159.282 175.798 157.355 175.268 155.66 174.225C153.964 173.183 152.498 171.736 151.263 169.886C150.027 167.963 149.078 165.673 148.416 163.017C147.81 160.361 147.519 157.376 147.542 154.062C147.578 148.907 147.979 144.343 148.745 140.372C149.567 136.4 150.442 133.092 151.369 130.447C152.296 127.729 153.162 125.673 153.966 124.279C154.771 122.885 155.173 122.188 155.173 122.188C155.46 121.748 155.803 121.419 156.202 121.201C156.657 120.984 157.112 120.876 157.566 120.879C158.474 120.886 159.209 121.333 159.771 122.221C160.389 123.035 160.695 123.995 160.687 125.099C160.684 125.541 160.596 125.982 160.422 126.423C160.306 126.864 160.161 127.305 159.987 127.746C159.699 128.407 159.237 129.435 158.603 130.829C157.97 132.151 157.305 133.914 156.608 136.118C155.911 138.323 155.297 140.933 154.765 143.949C154.233 146.891 153.954 150.277 153.927 154.107C153.897 158.452 154.527 161.771 155.816 164.063C157.163 166.282 159.057 167.4 161.497 167.417C162.519 167.424 163.686 167.027 164.997 166.226C166.365 165.352 167.68 164.036 168.941 162.277C170.259 160.518 171.41 158.28 172.394 155.562C173.378 152.844 174.025 149.645 174.335 145.964L175.745 126.972C175.866 125.869 176.241 124.951 176.871 124.218C177.501 123.486 178.241 123.123 179.092 123.129C180.057 123.136 180.82 123.62 181.381 124.581C181.943 125.469 182.219 126.502 182.211 127.681L180.976 146.011C180.851 147.557 180.865 149.582 181.018 152.087C181.228 154.593 181.636 157.063 182.244 159.498C182.851 161.932 183.773 164.038 185.009 165.814C186.246 167.517 187.886 168.375 189.93 168.389C191.405 168.4 192.856 167.931 194.282 166.984C195.708 165.963 197.08 164.647 198.397 163.035C199.713 161.424 200.918 159.628 202.01 157.647C203.16 155.593 204.196 153.538 205.119 151.483C206.098 149.427 206.935 147.481 207.629 145.645C208.324 143.735 208.903 142.119 209.366 140.796C209.655 139.988 210.057 139.365 210.571 138.927C211.085 138.488 211.654 138.271 212.279 138.276C213.3 138.283 214.092 138.73 214.653 139.618C215.215 140.506 215.492 141.465 215.485 142.496C215.481 143.086 215.392 143.637 215.218 144.152C214.986 144.739 214.524 145.988 213.829 147.898C213.192 149.735 212.325 151.865 211.23 154.287C210.192 156.637 208.925 159.132 207.431 161.773C205.937 164.414 204.273 166.87 202.441 169.14C200.609 171.337 198.609 173.164 196.442 174.622C194.332 176.006 192.057 176.69 189.616 176.673C186.267 176.649 183.494 175.415 181.298 172.969C179.102 170.449 177.48 166.903 176.434 162.329Z" fill="black" fill-opacity="0.79"/>
<path d="M172.578 89.0454C172.108 90.0482 171.402 90.8215 170.46 91.3654C169.569 91.9327 168.711 92.0284 167.887 91.6525C167.114 91.3001 166.6 90.6604 166.346 89.7335C166.093 88.8065 166.18 87.7512 166.609 86.5677C166.683 86.2768 167.149 84.9478 168.007 82.5808C168.916 80.2372 169.7 77.2278 170.358 73.5525C171.098 69.8339 171.469 65.7032 171.469 61.1606C171.501 56.5511 170.723 51.937 169.133 47.3184C167.595 42.7232 164.982 38.287 161.294 34.0098C157.607 29.7326 152.413 26.0669 145.714 23.0128C139.788 20.3111 133.262 18.7559 126.138 18.3471C126.138 18.3471 111.832 18.518 104.346 20.2161C96.8918 21.8474 89.4067 24.4788 81.8912 28.1103C74.407 31.675 67.2594 36.1233 60.4486 41.4553C53.6893 46.8107 47.4323 52.963 41.6776 59.9122C35.9745 66.8848 31.1667 74.5496 27.2543 82.9065C23.7174 90.4612 21.4801 97.3103 20.5423 103.454C19.6358 109.531 19.8016 114.92 21.0395 119.621C22.2775 124.323 24.4275 128.346 27.4897 131.689C30.6347 134.988 34.4231 137.648 38.8548 139.669C46.533 143.169 54.4941 144.73 62.738 144.351C71.0647 143.928 79.4238 142.101 87.8154 138.869C96.2898 135.593 104.687 131.147 113.007 125.53C121.359 119.846 129.408 113.537 137.156 106.604C141.387 98.6358 145.02 92.7472 148.053 88.9383C151.17 85.0861 153.785 83.6416 155.897 84.6048C157.083 85.1451 157.764 86.2266 157.943 87.8493C158.173 89.4954 157.818 91.3213 156.879 93.327C155.846 95.5332 154.093 98.1414 151.621 101.152C149.149 104.162 145.962 107.496 142.062 111.153C140.436 114.224 138.778 117.565 137.088 121.175C134.615 126.457 132.062 132.31 129.429 138.736C126.848 145.185 124.259 152.117 121.663 159.532C124.484 159.115 126.629 158.876 128.096 158.814C129.645 158.71 130.751 158.686 131.411 158.744C132.103 158.735 132.511 158.799 132.634 158.937C132.789 159.007 132.918 159.066 133.021 159.113C133.794 159.465 134.514 161.132 134.514 161.132C134.514 161.132 134.706 163.126 134.174 164.263C133.798 165.065 136.768 166.9 136.768 166.9C136.768 166.9 131.265 166.871 130.521 166.856C130.387 166.876 129.266 166.933 127.158 167.027C125.134 167.077 122.308 167.371 118.68 167.907C117.247 171.635 115.747 175.373 114.181 179.12C112.614 182.868 110.954 186.613 109.201 190.357C105.07 199.182 100.636 207.383 95.9012 214.959C91.1661 222.535 86.2407 228.848 81.1251 233.898C76.0609 238.972 70.8443 242.435 65.4751 244.287C60.0746 246.205 54.669 245.931 49.2581 243.465C46.5785 242.243 44.3866 240.513 42.6826 238.276C40.9786 236.039 39.8029 233.475 39.1555 230.584C38.5081 227.693 38.4248 224.532 38.9057 221.1C39.3553 217.736 40.4096 214.282 42.0685 210.739C44.4159 205.724 47.3763 201.071 50.9494 196.778C54.5741 192.508 58.5329 188.594 62.8256 185.034C67.1698 181.498 71.7137 178.337 76.4572 175.551C81.1695 172.832 85.8181 170.449 90.4033 168.402C94.9884 166.355 99.3342 164.685 103.441 163.394C107.599 162.125 111.264 161.241 114.437 160.741C116.898 153.75 119.424 146.951 122.016 140.345C124.64 133.672 127.325 127.271 130.07 121.14C121.236 128.389 112.455 134.323 103.726 138.943C95.049 143.586 86.6463 146.976 78.5181 149.111C70.3899 151.247 62.6291 152.13 55.2357 151.761C47.9251 151.348 41.2036 149.744 35.0713 146.949C29.5059 144.411 24.9566 141.039 21.4234 136.833C17.9215 132.559 15.5332 127.576 14.2586 121.884C12.984 116.192 12.926 109.838 14.0848 102.822C15.2436 95.8056 17.7166 88.2528 21.5039 80.1633C25.5103 71.6058 30.4847 63.6519 36.4271 56.3016C42.4008 48.8844 48.9699 42.266 56.1342 36.4462C63.3298 30.5595 70.9137 25.58 78.8857 21.5076C86.9093 17.4587 94.964 14.4786 103.05 12.5673C111.218 10.6126 119.211 9.83515 127.028 10.2349C134.928 10.5913 142.33 12.3435 149.235 15.4916C155.883 18.5222 161.185 22.1563 165.141 26.3937C169.129 30.5644 172.104 34.9626 174.065 39.5885C176.109 44.171 177.343 48.749 177.765 53.3224C178.271 57.8524 178.391 62.0039 178.125 65.7768C177.872 68.9877 177.435 71.9926 176.812 74.7915C176.241 77.6139 175.631 80.0533 174.981 82.1096C174.382 84.1893 173.827 85.8426 173.315 87.0695C172.855 88.3199 172.609 88.9785 172.578 89.0454ZM111.236 169.381C107.783 170.079 104.055 171.097 100.052 172.435C96.1312 173.731 92.1369 175.317 88.069 177.194C84.0526 179.095 80.0555 181.288 76.0777 183.775C72.0999 186.261 68.3429 189.01 64.8068 192.022C61.2706 195.034 58.0482 198.31 55.1396 201.852C52.2512 205.484 49.8524 209.339 47.9431 213.417C46.7537 215.957 45.9987 218.371 45.6781 220.659C45.3262 223.013 45.3884 225.151 45.8648 227.072C46.3099 229.059 47.1177 230.807 48.288 232.314C49.4584 233.821 50.9711 234.997 52.8263 235.843C60.0923 239.156 68.1083 236.726 76.8742 228.553C85.6089 220.448 94.4677 206.801 103.451 187.614C104.797 184.739 106.122 181.774 107.428 178.719C108.702 175.73 109.971 172.618 111.236 169.381Z" fill="black" fill-opacity="0.79"/>
</svg>
