<svg width="576" height="198" viewBox="0 0 576 198" fill="none" xmlns="http://www.w3.org/2000/svg">
<path d="M498.283 174.7C499.409 172.136 499.541 167.322 499.674 166.686C499.824 166.134 500.057 164.912 500.372 163.02C500.671 161.045 500.986 158.718 501.318 156.04C501.733 153.346 502.131 150.567 502.512 147.705C502.894 144.843 503.225 142.165 503.507 139.671C503.872 137.16 504.17 135.185 504.403 133.745C504.469 133.21 504.493 132.465 504.475 131.511C504.441 130.473 504.599 129.528 504.949 128.674C505.366 127.719 506.244 127.107 507.583 126.838C510.092 126.333 511.465 126.666 511.701 127.837C511.785 128.255 511.719 129.009 511.503 130.097C510.953 132.557 510.388 135.37 509.806 138.533C509.224 141.697 508.734 144.668 508.336 147.447C507.938 150.225 507.631 152.376 507.415 153.899C508.016 152.56 509.018 150.617 510.42 148.072C511.906 145.509 513.568 142.737 515.405 139.756C517.243 136.775 519.18 133.861 521.219 131.013C523.34 128.149 525.346 125.787 527.234 123.927C529.19 121.967 530.963 120.826 532.552 120.506C534.56 120.102 535.783 120.988 536.22 123.163C536.372 123.916 536.39 125.087 536.275 126.677C535.943 128.92 535.393 131.163 534.626 133.407C533.843 135.567 533.209 137.827 532.727 140.187C531.929 144.439 531.649 147.803 531.886 150.279C531.87 150.631 531.895 150.974 531.962 151.308C532.013 151.559 532.072 151.852 532.139 152.187C532.813 155.533 534.279 156.979 536.538 156.524C537.792 156.272 543.5 154 546.5 152C549.5 150 549.807 149.5 552.5 146.898C555.5 144 553.5 145.5 556.5 143.144C558 141 562.533 137.139 563 136C563.2 135.699 558.318 142.71 559.318 139.756C561.318 138.511 562.5 137.184 567.5 129.173C567.5 136 564.083 137.548 564 138C563.533 139.574 560.5 143 558.5 145C555.5 148.5 554.273 149 552 151.308C548 154.5 551 152.5 546.5 155C545.259 155.689 540.58 157.364 538.875 158.404C537.169 159.444 535.387 160.107 533.53 160.394C531.137 160.614 529.304 160.156 528.031 159.02C526.741 157.8 525.902 156.228 525.515 154.304C525.06 152.045 524.998 149.576 525.33 146.898C525.728 144.12 526.244 141.492 526.877 139.014C527.509 136.537 528.043 134.645 528.476 133.339C528.876 131.866 529 130.753 528.849 130C528.714 129.331 528.354 129.055 527.768 129.173C527.183 129.291 526.38 129.844 525.36 130.833C524.341 131.821 523.012 133.438 521.375 135.682C519.854 137.642 518.309 140.129 516.74 143.144C515.154 146.074 513.626 149.08 512.157 152.161C510.772 155.225 509.52 157.871 508.402 160.098C507.367 162.309 502.716 172.52 502.198 172.972C501.83 173.308 495.372 191.607 496.842 179.163C500.849 164.206 499.036 174.548 498.283 174.7Z" fill="black"/>
<path d="M442.168 191.76C441.144 191.504 440.248 191.248 439.48 190.992C437.859 190.139 436.707 189.157 436.024 188.048C435.341 187.024 435 185.915 435 184.72C435 182.757 435.683 180.624 437.048 178.32C438.328 176.101 440.035 173.797 442.168 171.408C444.301 168.848 446.989 166.245 450.232 163.6C453.56 160.955 457.016 158.395 460.6 155.92C464.184 153.531 467.341 151.44 470.072 149.648C473.059 143.589 475.704 137.872 478.008 132.496C480.312 127.035 481.933 122.853 482.872 119.952C481.08 121.915 479.16 124.133 477.112 126.608C475.064 128.997 473.571 130.747 472.632 131.856C471.011 133.563 469.176 135.44 467.128 137.488C465.08 139.451 462.904 141.157 460.6 142.608C458.381 143.973 456.205 144.656 454.072 144.656C452.707 144.656 451.256 144.272 449.72 143.504C448.184 142.651 446.947 141.584 446.008 140.304C444.728 138.597 444.088 136.848 444.088 135.056C444.088 132.752 444.856 130.363 446.392 127.888C448.013 125.413 450.061 123.024 452.536 120.72C455.096 118.331 457.784 116.197 460.6 114.32C463.501 112.357 466.232 110.736 468.792 109.456C471.437 108.091 473.571 107.195 475.192 106.768C476.728 106.256 478.605 106 480.824 106C481.848 106 483.085 106.171 484.536 106.512C485.987 106.853 487.267 107.408 488.376 108.176C489.571 108.859 490.168 109.883 490.168 111.248C490.168 111.931 489.827 112.144 489.144 111.888C488.547 110.864 487.651 110.224 486.456 109.968C485.347 109.627 484.195 109.456 483 109.456C479.672 109.456 475.917 110.565 471.736 112.784C467.64 115.003 463.971 117.605 460.728 120.592C459.704 121.445 458.296 122.939 456.504 125.072C454.712 127.12 453.091 129.381 451.64 131.856C450.275 134.331 449.592 136.592 449.592 138.64C449.592 139.749 449.891 140.731 450.488 141.584C450.744 142.011 451.256 142.224 452.024 142.224C453.645 142.224 455.608 141.499 457.912 140.048C460.301 138.597 462.819 136.763 465.464 134.544C468.109 132.325 470.669 129.979 473.144 127.504C475.704 124.944 477.965 122.597 479.928 120.464C481.891 118.331 483.341 116.709 484.28 115.6C484.451 115.173 484.749 114.875 485.176 114.704C485.603 114.533 486.072 114.448 486.584 114.448C487.949 114.448 489.357 114.832 490.808 115.6C492.344 116.283 492.984 116.88 492.728 117.392C491.107 120.891 489.187 124.944 486.968 129.552C484.835 134.16 482.573 138.981 480.184 144.016C481.293 143.419 483.128 142.096 485.688 140.048C488.248 138 491.064 135.568 494.136 132.752C497.208 129.851 500.067 126.864 502.712 123.792C503.736 122.683 504.504 122.128 505.016 122.128C505.528 122.128 505.656 122.597 505.4 123.536C505.144 124.389 504.461 125.499 503.352 126.864C501.987 128.485 500.109 130.448 497.72 132.752C495.331 134.971 492.813 137.275 490.168 139.664C487.523 141.968 485.048 144.016 482.744 145.808C480.525 147.685 478.776 148.965 477.496 149.648C474.851 155.28 472.291 160.571 469.816 165.52C467.341 170.555 465.08 174.608 463.032 177.68C461.667 179.813 460.003 181.989 458.04 184.208C456.077 186.427 453.944 188.261 451.64 189.712C449.336 191.248 446.904 192.016 444.344 192.016C444.003 192.016 443.661 191.973 443.32 191.888C442.979 191.888 442.595 191.845 442.168 191.76ZM440.888 188.432C441.4 188.773 442.125 188.773 443.064 188.432C444.088 188.091 445.368 187.323 446.904 186.128C450.232 183.483 453.091 180.368 455.48 176.784C457.869 173.285 460.045 169.573 462.008 165.648C463.971 161.808 465.848 158.096 467.64 154.512C464.312 156.987 460.557 159.888 456.376 163.216C452.195 166.629 448.397 170 444.984 173.328C443.277 175.035 441.869 176.912 440.76 178.96C439.565 181.093 438.968 183.013 438.968 184.72C438.968 186.512 439.608 187.749 440.888 188.432Z" fill="black"/>
<path d="M429.936 129.88C428.827 129.88 427.675 129.795 426.48 129.624C425.285 129.368 424.688 128.557 424.688 127.192C424.688 126.936 425.243 126.339 426.352 125.4C427.547 124.461 428.741 123.523 429.936 122.584C431.216 121.56 431.984 120.963 432.24 120.792C433.691 119.597 434.587 119 434.928 119C435.355 119 435.355 119.555 434.928 120.664C434.501 121.773 434.288 122.755 434.288 123.608C434.288 124.035 434.032 124.76 433.52 125.784C433.008 126.808 432.411 127.747 431.728 128.6C431.045 129.453 430.448 129.88 429.936 129.88ZM415.984 175.704C414.448 175.704 413.04 175.363 411.76 174.68C410.565 173.997 409.669 172.717 409.072 170.84C408.987 170.584 408.901 170.328 408.816 170.072C408.816 169.816 408.816 169.517 408.816 169.176C408.816 167.469 409.2 165.336 409.968 162.776C410.736 160.216 411.675 157.741 412.784 155.352C412.272 156.035 411.675 156.888 410.992 157.912C410.309 158.851 409.328 160.088 408.048 161.624C407.707 161.965 407.323 162.136 406.896 162.136C406.299 162.136 406 161.795 406 161.112C406 160.6 406.171 160.173 406.512 159.832C408.731 157.016 410.693 154.499 412.4 152.28C414.192 150.061 415.515 148.184 416.368 146.648C416.368 146.563 416.325 146.52 416.24 146.52C416.24 146.435 416.24 146.349 416.24 146.264C416.24 146.008 416.368 145.624 416.624 145.112C417.307 143.064 417.989 141.357 418.672 139.992C419.44 138.541 420.251 137.731 421.104 137.56C421.275 137.56 421.445 137.56 421.616 137.56C421.787 137.475 421.957 137.432 422.128 137.432C423.067 137.432 423.92 137.645 424.688 138.072C425.456 138.499 425.84 139.139 425.84 139.992C425.84 140.76 425.541 141.699 424.944 142.808C424.432 143.917 423.749 145.283 422.896 146.904C421.019 150.829 419.312 154.413 417.776 157.656C416.325 160.813 415.515 163.416 415.344 165.464C415.259 165.805 415.216 166.147 415.216 166.488C415.216 166.744 415.216 167.043 415.216 167.384C415.216 170.797 416.325 172.504 418.544 172.504C419.909 172.504 421.659 171.779 423.792 170.328C425.925 168.792 428.101 166.957 430.32 164.824C432.539 162.605 434.544 160.515 436.336 158.552C438.213 156.504 439.493 154.968 440.176 153.944C440.432 153.688 440.688 153.56 440.944 153.56C441.285 153.56 441.541 153.688 441.712 153.944C441.968 154.2 442.011 154.541 441.84 154.968C441.072 156.419 439.749 158.253 437.872 160.472C436.08 162.605 434.032 164.781 431.728 167C429.509 169.133 427.333 170.968 425.2 172.504C424.091 173.357 422.683 174.083 420.976 174.68C419.355 175.363 417.691 175.704 415.984 175.704Z" fill="black"/>
<path d="M370.643 173.722C367.245 173.402 365.634 172.308 365.81 170.438C365.938 169.079 366.792 167.745 368.372 166.437C369.581 165.437 370.897 164.661 372.32 164.109C373.743 163.557 374.625 163.297 374.965 163.329C375.389 163.369 375.586 163.559 375.554 163.899C375.607 164.247 375.413 164.486 374.972 164.616C374.075 165.045 373.029 165.676 371.837 166.506C370.738 167.26 370.14 168.146 370.044 169.166C369.916 170.525 370.659 171.281 372.273 171.433C374.227 171.617 376.322 171.214 378.558 170.225C380.786 169.32 382.876 168.06 384.828 166.444C386.865 164.836 388.52 163.191 389.792 161.511C391.158 159.754 391.904 158.196 392.032 156.837C392.136 155.732 391.85 154.677 391.173 153.67C390.497 152.664 389.029 151.411 386.77 149.913C385.244 148.826 383.764 147.701 382.331 146.538C380.983 145.383 379.994 144.047 379.366 142.53C378.574 143.656 377.546 145.016 376.282 146.611C375.11 148.129 373.718 149.713 372.106 151.361C371.548 151.822 371.015 152.029 370.505 151.981C369.995 151.933 369.76 151.697 369.8 151.272C369.824 151.017 370.077 150.612 370.557 150.058C373.107 147.555 375.042 145.209 376.363 143.019C377.683 140.829 378.612 139.159 379.149 138.01C379.72 135.578 381.087 133.35 383.249 131.325C385.411 129.3 387.97 127.613 390.926 126.262C393.889 124.827 396.859 123.778 399.836 123.116C402.897 122.461 405.575 122.242 407.869 122.458C410.163 122.674 412.162 123.291 413.866 124.308C415.57 125.326 416.334 126.769 416.158 128.638C416.062 129.658 415.661 130.734 414.954 131.868C414.037 133.41 412.627 134.734 410.723 135.84C410.63 135.917 410.499 135.948 410.329 135.932C409.649 135.868 409.337 135.539 409.393 134.944C409.433 134.519 409.686 134.114 410.15 133.729C410.886 133.199 411.506 132.529 412.011 131.719C412.516 130.909 412.804 130.122 412.876 129.358C413.02 127.829 412.2 126.98 410.416 126.812C408.547 126.636 406.035 126.914 402.881 127.645C399.811 128.385 396.926 129.442 394.225 130.816C391.161 132.413 388.548 134.224 386.386 136.249C384.224 138.274 383.063 140.136 382.903 141.835C382.823 142.684 383.001 143.516 383.439 144.328C383.97 145.064 384.998 145.975 386.525 147.061C387.326 147.651 388.452 148.443 389.901 149.436C391.358 150.345 392.607 151.191 393.647 151.975C396.931 154.427 398.46 156.842 398.236 159.221C398.052 161.175 397.015 163.091 395.124 164.97C393.24 166.764 390.864 168.341 387.993 169.699C385.199 171.15 382.268 172.245 379.198 172.985C376.129 173.724 373.277 173.97 370.643 173.722Z" fill="black"/>
<path d="M341.208 169.704C337.368 169.704 334.04 168.808 331.224 167.016C328.408 165.224 327 162.493 327 158.824C327 156.861 327.597 154.472 328.792 151.656C329.645 149.693 331.224 147.432 333.528 144.872C335.832 142.312 338.52 139.837 341.592 137.448C344.664 134.973 347.779 132.968 350.936 131.432C354.093 129.811 356.952 129 359.512 129C360.451 129 361.304 129.128 362.072 129.384C363.523 129.896 364.504 130.707 365.016 131.816C365.613 132.925 365.912 134.077 365.912 135.272C365.912 136.381 365.741 137.448 365.4 138.472C365.059 139.496 364.632 140.392 364.12 141.16C362.584 143.464 360.365 145.512 357.464 147.304C354.648 149.096 351.747 150.504 348.76 151.528C345.859 152.552 343.469 153.149 341.592 153.32H341.336C340.227 153.32 339.672 152.979 339.672 152.296C339.672 151.869 340.013 151.656 340.696 151.656C342.744 151.485 345.304 150.547 348.376 148.84C351.533 147.048 354.307 145.213 356.696 143.336C357.72 142.483 358.915 141.288 360.28 139.752C361.731 138.216 362.456 136.723 362.456 135.272C362.456 133.736 361.731 132.968 360.28 132.968C359.512 132.968 358.701 133.139 357.848 133.48C357.08 133.821 356.44 134.077 355.928 134.248C353.453 135.443 350.723 137.32 347.736 139.88C344.749 142.355 342.019 145.171 339.544 148.328C337.155 151.4 335.491 154.515 334.552 157.672C334.296 158.355 334.125 159.037 334.04 159.72C333.955 160.317 333.912 160.915 333.912 161.512C333.912 163.56 334.552 165.011 335.832 165.864C337.197 166.717 338.819 167.144 340.696 167.144C343.512 167.144 346.413 166.547 349.4 165.352C352.387 164.072 355.288 162.451 358.104 160.488C360.92 158.525 363.48 156.435 365.784 154.216C368.173 151.912 370.179 149.693 371.8 147.56C372.056 147.219 372.355 147.048 372.696 147.048C373.037 146.963 373.251 147.005 373.336 147.176C373.677 147.261 373.848 147.517 373.848 147.944C373.848 148.285 373.763 148.627 373.592 148.968C371.203 152.296 368.301 155.539 364.888 158.696C361.56 161.853 357.848 164.499 353.752 166.632C349.741 168.68 345.56 169.704 341.208 169.704Z" fill="black"/>
<path d="M230.294 185.552C228.69 185.318 227.455 184.62 226.59 183.459C225.809 182.31 225.264 181.023 224.954 179.598C224.645 178.173 224.498 176.815 224.515 175.523C224.531 174.232 224.576 173.333 224.65 172.827C225.057 170.04 225.493 167.646 225.957 165.644C226.519 163.57 227.081 161.496 227.642 159.422L227.716 158.916C227.79 158.409 227.731 157.926 227.54 157.467C227.445 156.936 227.356 156.362 227.274 155.747C227.298 155.578 227.275 155.445 227.202 155.348C227.215 155.264 227.227 155.179 227.239 155.095C227.326 154.504 227.708 153.956 228.385 153.451C228.953 153.103 229.678 152.864 230.559 152.734C231.538 152.532 232.364 152.48 233.04 152.579C233.378 152.628 233.703 152.762 234.016 152.98C234.16 153.173 234.22 153.355 234.196 153.524C234.109 154.115 233.793 154.802 233.248 155.584C232.665 156.62 232.313 157.259 232.192 157.5C232.083 157.656 231.942 158.326 231.769 159.508C231.671 160.183 231.963 161.131 232.647 162.352C233.331 163.574 234.142 164.813 235.079 166.071C236.029 167.245 236.871 168.273 237.604 169.156C238.422 170.052 238.915 170.512 239.084 170.537C239.788 169.26 240.862 167.519 242.305 165.315C243.76 163.027 245.324 160.582 246.998 157.98C248.671 155.379 250.326 152.904 251.963 150.556C253.612 148.124 254.988 146.082 256.091 144.432C256.649 143.565 257.062 142.806 257.329 142.155C257.597 141.505 257.755 141.01 257.805 140.673C257.854 140.335 257.849 140.075 257.789 139.894C257.741 139.628 257.682 139.447 257.61 139.35C257.926 138.362 258.957 136.917 260.7 135.016C262.541 133.042 264.683 131.07 267.127 129.098C269.583 127.042 272.026 125.373 274.456 124.089C276.886 122.805 278.945 122.287 280.634 122.533C281.14 122.607 281.918 122.893 282.966 123.391C284.027 123.805 285.014 124.424 285.929 125.247C286.844 126.071 287.299 127.086 287.295 128.292L287.221 128.799C287.197 128.968 287.142 129.046 287.058 129.034C286.973 129.022 286.817 128.913 286.588 128.707C286.359 128.501 286.076 128.373 285.738 128.324C283.796 128.04 281.544 128.703 278.98 130.312C276.429 131.837 273.695 134.025 270.778 136.876C267.957 139.654 265.129 142.777 262.295 146.244C259.46 149.711 256.752 153.196 254.17 156.7C251.589 160.203 249.262 163.442 247.189 166.417C245.212 169.319 243.618 171.673 242.406 173.48C244.812 175.901 247.467 177.798 250.371 179.17C253.287 180.459 256.308 181.331 259.432 181.787C264.498 182.527 269.664 182.29 274.929 181.076C280.195 179.861 285.203 178.048 289.953 175.638C294.8 173.155 298.966 170.314 302.452 167.114C306.615 163.411 309.91 159.45 312.337 155.234C314.848 151.03 316.406 146.86 317.01 142.722C317.7 137.994 317.135 133.599 315.313 129.539C313.504 125.394 310.311 121.866 305.734 118.955C301.254 115.972 295.257 113.932 287.742 112.835C282.338 112.046 276.679 111.823 270.764 112.166C264.862 112.425 259.103 113.18 253.488 114.429C247.872 115.679 242.708 117.382 237.995 119.54C233.378 121.625 229.51 123.604 226.567 126.926C223.624 130.247 220.808 133.588 221.433 136.395C222.058 139.203 221.566 140.209 222.756 141.504C223.959 142.715 225.368 143.697 226.983 144.45C228.598 145.203 229.833 145.901 230.687 146.543C231.326 146.895 231.621 147.24 231.571 147.578C231.497 148.085 230.996 148.27 230.067 148.134C229.054 147.986 227.74 147.536 226.125 146.782C224.51 146.029 222.932 145.023 221.392 143.763C219.851 142.503 217.852 141.225 217.749 139.479C217.645 137.734 217.11 139.386 217.386 133.993C217.661 128.6 217.411 133.523 217.388 133.088C217.366 132.654 217.379 132.267 217.428 131.93C218.02 127.877 217.468 127.537 222.584 121.429C227.699 115.32 229.063 116.036 233.486 114.095C237.994 112.166 242.946 110.734 248.343 109.797C253.825 108.873 259.498 108.408 265.364 108.402C271.229 108.396 276.948 108.8 282.52 109.614C287.502 110.342 292.507 111.504 297.534 113.101C302.658 114.625 307.255 116.806 311.326 119.642C315.408 122.395 318.474 125.904 320.525 130.17C322.659 134.449 323.277 139.671 322.376 145.834C321.39 152.589 318.957 158.616 315.079 163.914C311.285 169.224 306.541 173.662 300.845 177.228C295.163 180.71 289.024 183.177 282.431 184.629C275.921 186.093 269.458 186.356 263.041 185.419C258.735 184.79 254.635 183.631 250.742 181.941C246.922 180.348 243.7 178.196 241.078 175.485C240.872 175.713 240.339 176.412 239.479 177.58C238.715 178.675 237.77 179.831 236.644 181.046C235.59 182.358 234.482 183.447 233.321 184.312C232.232 185.274 231.223 185.688 230.294 185.552ZM230.342 181.678C231.018 181.777 231.84 181.164 232.81 179.84C233.767 178.6 234.652 177.263 235.465 175.829C236.291 174.311 236.812 173.396 237.031 173.083C236.213 172.187 235.125 170.778 233.767 168.855C232.494 166.944 231.383 165.402 230.433 164.228C230.31 165.073 230.032 166.972 229.601 169.928C229.253 172.895 229.117 175.894 229.192 178.923C229.283 180.661 229.667 181.58 230.342 181.678Z" fill="black"/>
<path d="M352.619 82.432C352.022 82.432 351.851 82.1333 352.107 81.536C352.363 81.024 352.832 79.872 353.515 78.08C354.198 76.2026 354.966 73.984 355.819 71.424C356.758 68.864 357.696 66.2187 358.635 63.488C359.574 60.7573 360.427 58.1973 361.195 55.808C362.048 53.4187 362.731 51.5413 363.243 50.176C363.414 49.664 363.584 48.9386 363.755 48C363.926 46.976 364.267 46.08 364.779 45.312C365.376 44.4587 366.358 44.032 367.723 44.032C370.283 44.032 371.563 44.6293 371.563 45.824C371.563 46.2507 371.35 46.976 370.923 48C369.899 50.304 368.79 52.9493 367.595 55.936C366.4 58.9227 365.334 61.7387 364.395 64.384C363.456 67.0293 362.731 69.0773 362.219 70.528C363.072 69.3333 364.438 67.6267 366.315 65.408C368.278 63.1893 370.454 60.8 372.843 58.24C375.232 55.68 377.707 53.2053 380.267 50.816C382.912 48.4266 385.344 46.5066 387.563 45.056C389.867 43.52 391.83 42.752 393.451 42.752C395.499 42.752 396.523 43.8613 396.523 46.08C396.523 46.848 396.31 48 395.883 49.536C395.115 51.6693 394.134 53.76 392.939 55.808C391.744 57.7707 390.678 59.8613 389.739 62.08C388.118 66.0907 387.179 69.3333 386.923 71.808C386.838 72.1493 386.795 72.4907 386.795 72.832C386.795 73.088 386.795 73.3867 386.795 73.728C386.795 77.1413 387.947 78.848 390.251 78.848C391.531 78.848 393.238 78.08 395.371 76.544C397.504 75.008 399.68 73.1733 401.899 71.04C404.203 68.9067 406.251 66.8587 408.043 64.896C409.835 62.848 411.072 61.312 411.755 60.288C412.011 60.032 412.267 59.904 412.523 59.904C412.864 59.904 413.12 60.032 413.291 60.288C413.547 60.544 413.59 60.8853 413.419 61.312C412.651 62.7627 411.328 64.5973 409.451 66.816C407.659 68.9493 405.654 71.1253 403.435 73.344C401.216 75.4773 399.04 77.312 396.907 78.848C395.627 79.7013 394.048 80.4693 392.171 81.152C390.294 81.8347 388.416 82.1333 386.539 82.048C384.15 81.792 382.443 80.9813 381.419 79.616C380.395 78.1653 379.883 76.4586 379.883 74.496C379.883 72.192 380.31 69.76 381.163 67.2C382.102 64.5547 383.126 62.08 384.235 59.776C385.344 57.472 386.24 55.7226 386.923 54.528C387.606 53.1626 387.947 52.096 387.947 51.328C387.947 50.6453 387.648 50.304 387.051 50.304C386.454 50.304 385.558 50.688 384.363 51.456C383.168 52.224 381.547 53.5467 379.499 55.424C377.622 57.0453 375.616 59.1787 373.483 61.824C371.35 64.384 369.259 67.0293 367.211 69.76C365.248 72.4906 363.499 74.8373 361.963 76.8C360.512 78.7627 359.488 79.9147 358.891 80.256C358.464 80.512 357.483 80.9387 355.947 81.536C354.496 82.1333 353.387 82.432 352.619 82.432Z" fill="black"/>
<path d="M328.768 82.688C324.928 82.688 321.6 81.792 318.784 80C315.968 78.208 314.56 75.4773 314.56 71.808C314.56 69.8453 315.157 67.456 316.352 64.64C317.205 62.6773 318.784 60.416 321.088 57.856C323.392 55.296 326.08 52.8213 329.152 50.432C332.224 47.9573 335.339 45.952 338.496 44.416C341.653 42.7947 344.512 41.984 347.072 41.984C348.011 41.984 348.864 42.112 349.632 42.368C351.083 42.88 352.064 43.6907 352.576 44.8C353.173 45.9093 353.472 47.0613 353.472 48.256C353.472 49.3653 353.301 50.432 352.96 51.456C352.619 52.48 352.192 53.376 351.68 54.144C350.144 56.448 347.925 58.496 345.024 60.288C342.208 62.08 339.307 63.488 336.32 64.512C333.419 65.536 331.029 66.1333 329.152 66.304H328.896C327.787 66.304 327.232 65.9627 327.232 65.28C327.232 64.8533 327.573 64.64 328.256 64.64C330.304 64.4693 332.864 63.5307 335.936 61.824C339.093 60.032 341.867 58.1973 344.256 56.32C345.28 55.4667 346.475 54.272 347.84 52.736C349.291 51.2 350.016 49.7067 350.016 48.256C350.016 46.72 349.291 45.952 347.84 45.952C347.072 45.952 346.261 46.1227 345.408 46.464C344.64 46.8053 344 47.0613 343.488 47.232C341.013 48.4267 338.283 50.304 335.296 52.864C332.309 55.3387 329.579 58.1547 327.104 61.312C324.715 64.384 323.051 67.4987 322.112 70.656C321.856 71.3387 321.685 72.0213 321.6 72.704C321.515 73.3013 321.472 73.8987 321.472 74.496C321.472 76.544 322.112 77.9947 323.392 78.848C324.757 79.7013 326.379 80.128 328.256 80.128C331.072 80.128 333.973 79.5307 336.96 78.336C339.947 77.056 342.848 75.4347 345.664 73.472C348.48 71.5093 351.04 69.4187 353.344 67.2C355.733 64.896 357.739 62.6773 359.36 60.544C359.616 60.2027 359.915 60.032 360.256 60.032C360.597 59.9467 360.811 59.9893 360.896 60.16C361.237 60.2453 361.408 60.5013 361.408 60.928C361.408 61.2693 361.323 61.6107 361.152 61.952C358.763 65.28 355.861 68.5227 352.448 71.68C349.12 74.8373 345.408 77.4827 341.312 79.616C337.301 81.664 333.12 82.688 328.768 82.688Z" fill="black"/>
<path d="M317.664 100.48C314.507 100.48 311.477 99.328 308.576 97.024C305.76 94.8053 303.157 91.8186 300.768 88.064C298.379 84.3946 296.331 80.384 294.624 76.032C293.003 71.5946 291.808 67.2853 291.04 63.104C288.139 67.2 285.621 70.9546 283.488 74.368C281.44 77.7813 279.947 79.744 279.008 80.256C278.581 80.512 277.6 80.9386 276.064 81.536C274.528 82.1333 273.376 82.432 272.608 82.432C272.011 82.432 271.84 82.1333 272.096 81.536C272.267 81.1946 272.693 80.128 273.376 78.336C274.059 76.4586 274.869 74.1546 275.808 71.424C276.747 68.6933 277.728 65.8347 278.752 62.848C279.861 59.8613 280.928 57.0453 281.952 54.4C281.099 55.3386 280.117 56.5333 279.008 57.984C277.899 59.3493 276.619 61.0986 275.168 63.232C274.912 63.6586 274.485 63.872 273.888 63.872C273.291 63.872 272.992 63.616 272.992 63.104C272.992 62.592 273.291 61.9946 273.888 61.312C275.083 59.8613 276.363 58.1973 277.728 56.32C279.093 54.4427 280.416 52.608 281.696 50.816C282.976 49.024 284 47.5733 284.768 46.464C283.488 45.7813 282.848 44.8853 282.848 43.776C282.848 43.0933 283.104 42.5813 283.616 42.24C284.213 41.8133 284.811 41.8133 285.408 42.24C285.749 42.4106 286.048 42.496 286.304 42.496C287.755 38.656 289.589 34.5173 291.808 30.08C294.027 25.5573 296.587 21.2906 299.488 17.28C302.389 13.184 305.504 9.85598 308.832 7.29598C312.245 4.73598 315.829 3.45598 319.584 3.45598C320.011 3.45598 320.437 3.49864 320.864 3.58398C321.376 3.58398 321.845 3.62664 322.272 3.71198C322.784 3.79731 323.253 3.96798 323.68 4.22398C324.192 4.47998 324.661 4.69331 325.088 4.86398C327.051 5.97331 328.032 7.59465 328.032 9.72798C328.032 11.264 327.605 12.9706 326.752 14.848C325.899 16.64 324.832 18.432 323.552 20.224C322.357 22.016 321.163 23.6373 319.968 25.088C318.773 26.5386 317.835 27.648 317.152 28.416C312.971 32.6826 308.448 36.5653 303.584 40.064C298.805 43.5626 294.624 46.0373 291.04 47.488C289.675 50.3893 288.395 53.376 287.2 56.448C286.005 59.4347 284.981 62.208 284.128 64.768C283.36 67.2426 282.763 69.1627 282.336 70.528C283.787 68.736 285.152 66.944 286.432 65.152C287.797 63.2747 289.163 61.44 290.528 59.648C290.528 59.3066 290.485 58.9653 290.4 58.624C290.4 58.2827 290.4 57.9413 290.4 57.6C290.4 57.088 290.4 56.6186 290.4 56.192C290.485 55.68 290.571 55.2106 290.656 54.784C290.741 54.272 290.955 53.76 291.296 53.248C291.637 52.736 291.979 52.48 292.32 52.48C292.832 52.48 293.131 52.992 293.216 54.016C293.301 54.272 293.387 54.5706 293.472 54.912C293.557 55.2533 293.643 55.5946 293.728 55.936C294.837 54.656 296.203 53.0773 297.824 51.2C299.531 49.3226 301.28 47.5306 303.072 45.824C304.864 44.1173 306.485 42.9226 307.936 42.24C309.131 41.6426 310.325 41.344 311.52 41.344C312.715 41.344 313.696 41.6426 314.464 42.24C315.232 42.752 315.616 43.392 315.616 44.16C315.616 45.3546 314.72 46.3786 312.928 47.232C311.563 47.8293 309.728 48.6827 307.424 49.792C305.205 50.9013 302.901 52.224 300.512 53.76C298.123 55.296 296.075 56.96 294.368 58.752C295.648 63.2747 296.885 67.1573 298.08 70.4C299.36 73.6427 300.853 76.7573 302.56 79.744C304.352 82.6453 306.699 85.9306 309.6 89.6C311.563 91.8187 313.568 93.6106 315.616 94.976C317.664 96.3413 319.499 97.024 321.12 97.024C322.571 97.024 323.552 96.6827 324.064 96C324.661 95.4027 324.96 94.6347 324.96 93.696C324.96 92.5867 324.96 91.268 325 89.768C325.034 88.4967 325.097 88.1213 324.5 87.268C324.073 86.756 324 85.6947 324 85.268C324 85.012 324.659 84.768 325 84.768C325.768 84.768 326 85.768 326.5 86.768C327 87.768 327 87.768 327.52 89.268C327.5 91.268 327.52 91.8187 327.52 92.928C327.52 94.6347 326.923 96.0427 325.728 97.152C324.533 98.3467 323.168 99.2 321.632 99.712C320.096 100.224 318.773 100.48 317.664 100.48ZM292.576 43.136C296.245 41.5146 299.957 39.296 303.712 36.48C307.467 33.664 310.965 30.336 314.208 26.496C314.635 25.984 315.36 25.0453 316.384 23.68C317.408 22.2293 318.517 20.608 319.712 18.816C320.992 17.024 322.059 15.232 322.912 13.44C323.765 11.648 324.192 10.1546 324.192 8.95998C324.192 8.10664 323.936 7.50931 323.424 7.16798C323.168 6.91198 322.784 6.78398 322.272 6.78398C320.907 6.78398 319.328 7.50931 317.536 8.95998C311.819 13.3973 307.04 18.3893 303.2 23.936C299.445 29.3973 295.904 35.7973 292.576 43.136Z" fill="black"/>
<path d="M264.469 36.224C263.36 36.224 262.208 36.1386 261.013 35.968C259.818 35.712 259.221 34.9013 259.221 33.536C259.221 33.28 259.776 32.6826 260.885 31.744C262.08 30.8053 263.274 29.8666 264.469 28.928C265.749 27.904 266.517 27.3066 266.773 27.136C268.224 25.9413 269.12 25.344 269.461 25.344C269.888 25.344 269.888 25.8986 269.461 27.008C269.034 28.1173 268.821 29.0986 268.821 29.952C268.821 30.3786 268.565 31.104 268.053 32.128C267.541 33.152 266.944 34.0906 266.261 34.944C265.578 35.7973 264.981 36.224 264.469 36.224ZM250.517 82.048C248.981 82.048 247.573 81.7066 246.293 81.024C245.098 80.3413 244.202 79.0613 243.605 77.184C243.52 76.928 243.434 76.672 243.349 76.416C243.349 76.16 243.349 75.8613 243.349 75.52C243.349 73.8133 243.733 71.68 244.501 69.12C245.269 66.56 246.208 64.0853 247.317 61.696C246.805 62.3787 246.208 63.232 245.525 64.256C244.842 65.1946 243.861 66.432 242.581 67.968C242.24 68.3093 241.856 68.48 241.429 68.48C240.832 68.48 240.533 68.1387 240.533 67.456C240.533 66.944 240.704 66.5173 241.045 66.176C243.264 63.36 245.226 60.8427 246.933 58.624C248.725 56.4053 250.048 54.528 250.901 52.992C250.901 52.9066 250.858 52.864 250.773 52.864C250.773 52.7786 250.773 52.6933 250.773 52.608C250.773 52.352 250.901 51.968 251.157 51.456C251.84 49.408 252.522 47.7013 253.205 46.336C253.973 44.8853 254.784 44.0747 255.637 43.904C255.808 43.904 255.978 43.904 256.149 43.904C256.32 43.8187 256.49 43.776 256.661 43.776C257.6 43.776 258.453 43.9893 259.221 44.416C259.989 44.8426 260.373 45.4826 260.373 46.336C260.373 47.104 260.074 48.0427 259.477 49.152C258.965 50.2613 258.282 51.6266 257.429 53.248C255.552 57.1733 253.845 60.7573 252.309 64C250.858 67.1573 250.048 69.76 249.877 71.808C249.792 72.1493 249.749 72.4907 249.749 72.832C249.749 73.088 249.749 73.3866 249.749 73.728C249.749 77.1413 250.858 78.848 253.077 78.848C254.442 78.848 256.192 78.1226 258.325 76.672C260.458 75.136 262.634 73.3013 264.853 71.168C267.072 68.9493 269.077 66.8586 270.869 64.896C272.746 62.848 274.026 61.312 274.709 60.288C274.965 60.032 275.221 59.904 275.477 59.904C275.818 59.904 276.074 60.032 276.245 60.288C276.501 60.544 276.544 60.8853 276.373 61.312C275.605 62.7626 274.282 64.5973 272.405 66.816C270.613 68.9493 268.565 71.1253 266.261 73.344C264.042 75.4773 261.866 77.312 259.733 78.848C258.624 79.7013 257.216 80.4266 255.509 81.024C253.888 81.7066 252.224 82.048 250.517 82.048Z" fill="black"/>
<path d="M187.019 82.432C186.336 82.432 186.166 82.1333 186.507 81.536C186.678 81.024 187.104 79.744 187.787 77.696C188.555 75.648 189.451 73.1733 190.475 70.272C191.499 67.3706 192.566 64.4266 193.675 61.44C194.784 58.368 195.808 55.6373 196.747 53.248C196.15 54.016 195.211 55.1253 193.931 56.576C192.736 58.0266 191.456 59.5627 190.091 61.184C188.726 62.8053 187.446 64.2133 186.251 65.408C185.995 65.664 185.824 65.792 185.739 65.792C185.483 65.792 185.355 65.536 185.355 65.024C185.355 64 185.611 63.0613 186.123 62.208C188 59.8187 189.792 57.6 191.499 55.552C193.291 53.4186 194.912 51.4133 196.363 49.536C195.51 49.024 195.083 48.384 195.083 47.616C195.083 46.4213 195.68 45.824 196.875 45.824C197.387 45.824 197.771 45.9093 198.027 46.08C198.112 46.1653 198.198 46.208 198.283 46.208C198.368 46.208 198.454 46.2933 198.539 46.464C198.966 45.8666 199.307 45.312 199.563 44.8C199.904 44.288 200.203 43.7333 200.459 43.136C200.8 42.368 201.483 40.9173 202.507 38.784C203.616 36.5653 204.982 33.9626 206.603 30.976C208.224 27.9893 210.059 24.9173 212.107 21.76C214.24 18.5173 216.502 15.5306 218.891 12.8C221.366 9.98398 223.883 7.72265 226.443 6.01598C229.088 4.30931 231.776 3.45598 234.507 3.45598C234.848 3.45598 235.19 3.49864 235.531 3.58398C235.872 3.58398 236.214 3.62664 236.555 3.71198C238.688 4.13865 240.182 4.90665 241.035 6.01598C241.888 7.03998 242.315 8.27731 242.315 9.72798C242.315 10.752 242.102 11.8613 241.675 13.056C241.334 14.1653 240.822 15.2746 240.139 16.384C238.432 19.3706 236.171 22.4 233.355 25.472C230.539 28.4586 227.382 31.4453 223.883 34.432C220.47 37.3333 217.014 40.192 213.515 43.008C210.102 45.7386 206.902 48.3413 203.915 50.816C201.867 55.168 200.288 59.0506 199.179 62.464C198.07 65.792 197.216 68.48 196.619 70.528C197.558 69.3333 198.966 67.6266 200.843 65.408C202.72 63.1893 204.854 60.8 207.243 58.24C209.632 55.68 212.107 53.248 214.667 50.944C217.227 48.5546 219.659 46.6347 221.963 45.184C224.267 43.648 226.23 42.88 227.851 42.88C229.899 42.88 230.923 43.9466 230.923 46.08C230.923 48.128 230.198 50.3893 228.747 52.864C227.296 55.3386 226.102 57.4293 225.163 59.136C223.968 61.6106 222.987 64 222.219 66.304C221.536 68.5226 221.11 70.3573 220.939 71.808C220.854 72.1493 220.811 72.4907 220.811 72.832C220.811 73.088 220.811 73.3866 220.811 73.728C220.811 77.1413 222.006 78.848 224.395 78.848C225.675 78.848 227.382 78.08 229.515 76.544C231.648 75.008 233.824 73.1733 236.043 71.04C238.262 68.9067 240.267 66.8586 242.059 64.896C243.936 62.848 245.216 61.312 245.899 60.288C246.155 60.032 246.454 59.904 246.795 59.904C247.136 59.904 247.392 60.032 247.563 60.288C247.734 60.544 247.734 60.8853 247.563 61.312C246.71 62.7626 245.387 64.5973 243.595 66.816C241.803 68.9493 239.798 71.1253 237.579 73.344C235.36 75.4773 233.184 77.312 231.051 78.848C229.942 79.7013 228.491 80.4266 226.699 81.024C224.992 81.7066 223.286 82.048 221.579 82.048C220.214 82.048 218.891 81.7066 217.611 81.024C216.331 80.3413 215.392 79.0613 214.795 77.184C214.539 76.416 214.411 75.3493 214.411 73.984C214.411 73.5573 214.411 73.1306 214.411 72.704C214.411 72.192 214.454 71.68 214.539 71.168C214.88 68.4373 215.776 65.5786 217.227 62.592C218.763 59.52 220.171 56.7893 221.451 54.4C221.792 53.7173 222.048 53.12 222.219 52.608C222.475 52.096 222.603 51.6693 222.603 51.328C222.603 50.6453 222.304 50.304 221.707 50.304C221.11 50.304 220.171 50.688 218.891 51.456C217.611 52.224 215.904 53.5466 213.771 55.424C211.894 57.0453 209.888 59.1786 207.755 61.824C205.707 64.384 203.659 67.0293 201.611 69.76C199.648 72.4906 197.899 74.8373 196.363 76.8C194.912 78.7626 193.888 79.9146 193.291 80.256C192.864 80.512 191.883 80.9386 190.347 81.536C188.811 82.1333 187.702 82.432 187.019 82.432ZM206.347 45.056C209.76 42.752 213.472 39.8933 217.483 36.48C221.494 32.9813 225.248 29.2693 228.747 25.344C232.331 21.3333 235.062 17.536 236.939 13.952C237.963 11.9893 238.475 10.368 238.475 9.08798C238.475 7.63731 237.835 6.91198 236.555 6.91198C235.958 6.91198 235.275 7.08265 234.507 7.42398C233.739 7.67998 232.843 8.19198 231.819 8.95998C226.102 13.3973 221.28 18.688 217.355 24.832C213.43 30.8906 209.76 37.632 206.347 45.056Z" fill="black"/>
<path d="M149.528 87.168C146.115 87.168 144.408 86.2293 144.408 84.352C144.408 82.9867 145.133 81.5787 146.584 80.128C147.693 79.0187 148.931 78.1226 150.296 77.44C151.661 76.7573 152.515 76.416 152.856 76.416C153.283 76.416 153.496 76.5867 153.496 76.928C153.581 77.2693 153.411 77.5253 152.984 77.696C152.131 78.208 151.149 78.9333 150.04 79.872C149.016 80.7253 148.504 81.664 148.504 82.688C148.504 84.0533 149.315 84.736 150.936 84.736C152.899 84.736 154.947 84.1387 157.08 82.944C159.213 81.8347 161.176 80.384 162.968 78.592C164.845 76.8 166.339 75.008 167.448 73.216C168.643 71.3387 169.24 69.7173 169.24 68.352C169.24 67.2427 168.856 66.2187 168.088 65.28C167.32 64.3413 165.741 63.232 163.352 61.952C161.731 61.0133 160.152 60.032 158.616 59.008C157.165 57.984 156.056 56.7467 155.288 55.296C154.605 56.4907 153.709 57.9413 152.6 59.648C151.576 61.2693 150.339 62.976 148.888 64.768C148.376 65.28 147.864 65.536 147.352 65.536C146.84 65.536 146.584 65.3227 146.584 64.896C146.584 64.64 146.797 64.2133 147.224 63.616C149.528 60.8853 151.235 58.368 152.344 56.064C153.453 53.76 154.221 52.0106 154.648 50.816C154.989 48.3413 156.141 45.9946 158.104 43.776C160.067 41.5573 162.456 39.6373 165.272 38.016C168.088 36.3093 170.947 34.9867 173.848 34.048C176.835 33.1093 179.48 32.64 181.784 32.64C184.088 32.64 186.136 33.0667 187.928 33.92C189.72 34.7733 190.616 36.1387 190.616 38.016C190.616 39.04 190.317 40.1493 189.72 41.344C188.952 42.9653 187.672 44.416 185.88 45.696C185.795 45.7813 185.667 45.824 185.496 45.824C184.813 45.824 184.472 45.5253 184.472 44.928C184.472 44.5013 184.685 44.0746 185.112 43.648C185.795 43.0507 186.349 42.3253 186.776 41.472C187.203 40.6187 187.416 39.808 187.416 39.04C187.416 37.504 186.52 36.736 184.728 36.736C182.851 36.736 180.376 37.248 177.304 38.272C174.317 39.296 171.544 40.6186 168.984 42.24C166.083 44.1173 163.651 46.1653 161.688 48.384C159.725 50.6027 158.744 52.5653 158.744 54.272C158.744 55.1253 159 55.936 159.512 56.704C160.109 57.3867 161.219 58.1973 162.84 59.136C163.693 59.648 164.888 60.3307 166.424 61.184C167.96 61.952 169.283 62.6773 170.392 63.36C173.891 65.4933 175.64 67.7547 175.64 70.144C175.64 72.1067 174.787 74.112 173.08 76.16C171.373 78.1227 169.155 79.9147 166.424 81.536C163.779 83.2427 160.963 84.608 157.976 85.632C154.989 86.656 152.173 87.168 149.528 87.168Z" fill="black"/>
<path d="M125.421 82.048C123.885 82.048 122.52 81.7067 121.325 81.024C120.13 80.3413 119.234 79.0613 118.637 77.184C118.552 76.7573 118.424 76.288 118.253 75.776C118.168 75.1787 118.125 74.5813 118.125 73.984C118.125 71.936 118.381 69.632 118.893 67.072C119.49 64.512 120.13 62.3787 120.813 60.672C120.472 60.928 119.874 61.7813 119.021 63.232C118.168 64.6827 117.101 66.3893 115.821 68.352C114.541 70.2293 113.09 72.1493 111.469 74.112C109.933 75.9893 108.226 77.568 106.349 78.848C104.557 80.0427 102.637 80.64 100.589 80.64C99.2237 80.64 97.5597 80.256 95.597 79.488C93.7197 78.72 92.3543 77.6533 91.501 76.288C90.6477 74.9227 90.221 73.216 90.221 71.168C90.221 68.6933 90.7757 66.0053 91.885 63.104C92.9943 60.1173 94.4023 57.344 96.109 54.784C96.7063 53.9307 97.389 52.9067 98.157 51.712C98.925 50.5173 99.693 49.4933 100.461 48.64C101.229 47.7013 102.159 47.1893 102.5 47.104C103.524 46.7627 106.635 44.768 108 44.768C109.451 44.768 110.5 44.268 110.5 47.104C108.781 49.664 109.805 47.6587 109.805 48C109.805 48.4267 109.464 48.9813 108.781 49.664C107.842 50.5173 106.562 51.7973 104.941 53.504C103.32 55.2107 101.698 57.2587 100.077 59.648C98.541 62.0373 97.261 64.6827 96.237 67.584C95.3837 69.888 94.957 71.8933 94.957 73.6C94.957 76.5867 96.1517 78.08 98.541 78.08C100.589 78.08 102.765 77.2267 105.069 75.52C107.373 73.8133 109.592 71.7227 111.725 69.248C113.944 66.7733 115.906 64.3413 117.613 61.952C119.405 59.4773 120.77 57.5147 121.709 56.064C122.562 54.8693 123.501 53.3333 124.525 51.456C125.634 49.5787 126.701 47.744 127.725 45.952C128.749 44.16 129.56 42.8373 130.157 41.984C130.754 41.984 131.65 42.112 132.845 42.368C134.125 42.5387 135.192 42.88 136.045 43.392C136.984 43.904 137.24 44.544 136.813 45.312C136.301 46.1653 135.49 47.488 134.381 49.28C133.357 51.072 132.29 52.9067 131.181 54.784C130.157 56.576 129.346 58.0267 128.749 59.136C126.701 63.0613 125.378 67.2853 124.781 71.808C124.696 72.1493 124.653 72.4907 124.653 72.832C124.653 73.088 124.653 73.3867 124.653 73.728C124.653 77.1413 125.805 78.848 128.109 78.848C129.389 78.848 131.096 78.08 133.229 76.544C135.362 75.008 137.538 73.1733 139.757 71.04C142.061 68.9067 144.109 66.8587 145.901 64.896C147.778 62.848 149.058 61.312 149.741 60.288C149.912 60.032 150.168 59.904 150.509 59.904C150.85 59.904 151.106 60.032 151.277 60.288C151.533 60.544 151.533 60.8853 151.277 61.312C150.509 62.7627 149.186 64.5973 147.309 66.816C145.517 68.9493 143.512 71.1253 141.293 73.344C139.074 75.4773 136.898 77.312 134.765 78.848C133.656 79.7013 132.248 80.4267 130.541 81.024C128.834 81.7067 127.128 82.048 125.421 82.048Z" fill="black"/>
<path d="M26.624 124.416C23.552 124.416 21.0773 123.563 19.2 121.856C17.408 120.149 16.512 117.845 16.512 114.944C16.512 112.64 17.152 110.037 18.432 107.136C19.712 104.32 21.76 101.333 24.576 98.176C30.3787 91.52 36.8213 86.0587 43.904 81.792C51.072 77.5253 58.752 74.0693 66.944 71.424C68.1387 68.1813 69.248 64.896 70.272 61.568C71.296 58.1547 72.32 54.7413 73.344 51.328C69.1627 55.2533 64.5547 59.1787 59.52 63.104C54.4853 66.944 49.152 70.1867 43.52 72.832C37.888 75.392 32.0427 76.672 25.984 76.672C21.5467 76.672 17.3227 75.8613 13.312 74.24C9.38667 72.5333 6.18667 69.9733 3.712 66.56C1.23733 63.1467 0 58.752 0 53.376C0 40.1493 5.888 28.2453 17.664 17.664C24.4907 11.4347 31.5307 7.08267 39.552 4.35201C47.6587 1.536 56.576 0 65.536 0C66.56 0 68.0107 0.128001 69.888 0.384003C71.8507 0.554672 73.856 0.981338 75.904 1.664C77.952 2.26134 79.744 3.15734 81.28 4.35201C82.816 5.46134 83.712 6.91201 83.968 8.704C84.0533 9.04534 84.096 9.34401 84.096 9.60001C84.096 9.856 84.096 10.112 84.096 10.368C84.096 11.392 79.8693 19.044 79.528 19.556C79.1867 20.068 82.8587 13.44 82.432 13.44C74.112 32.056 81.152 12.7573 81.152 11.392C80.9813 9.08801 80.2133 7.33867 78.848 6.14401C77.568 4.86401 75.9467 4.01067 73.984 3.58401C72.1067 3.15734 70.1867 2.944 68.224 2.944C65.0667 2.944 61.2693 3.62667 56.832 4.992C52.48 6.272 47.872 8.10667 43.008 10.496C38.144 12.8 33.3227 15.5733 28.544 18.816C23.8507 21.9733 19.584 25.472 15.744 29.312C11.904 33.0667 8.832 37.0347 6.528 41.216C4.224 45.3973 3.072 49.6213 3.072 53.888C3.072 59.776 4.992 64.0427 8.832 66.688C12.7573 69.248 19.1147 71.424 25.088 71.424C30.8907 71.424 37.0347 68.736 43.52 66.688C48.384 65.2373 51.1573 64.2134 54.656 62.08C58.1547 59.8614 61.4827 57.344 64.64 54.528C67.7973 51.6267 71.168 48.4693 74.752 45.056C76.288 41.1307 78.2933 38.6133 80.768 37.504C83.2427 36.3947 85.5467 35.84 87.68 35.84C88.8747 35.84 89.9413 35.9253 90.88 36.096C91.8187 36.2667 92.4587 36.352 92.8 36.352C93.4827 36.4373 93.824 36.6933 93.824 37.12C93.824 37.888 93.312 38.1867 92.288 38.016C89.6427 37.8453 87.3387 39.0827 85.376 41.728C83.4133 44.288 81.8347 47.36 80.64 50.944C79.5307 53.9307 78.464 57.0027 77.44 60.16C76.416 63.3174 75.3067 66.4747 74.112 69.632C78.464 68.4373 83.2427 69.632 85.376 69.632C86.4 69.632 110.687 74.8 111.028 75.056C137.604 85.128 102.028 73.5573 102.028 73.984C102.625 74.24 102.028 74.752 102.028 73.984C101.516 73.8133 89.1253 71.424 88.528 71.424C87.4187 71.424 85.404 71.556 81.528 71.056C79.028 71.056 76.3733 71.2107 75.008 71.808C73.6427 72.4053 73.6853 74.2027 73.344 75.056C69.6747 84.3573 66.432 91.136 62.336 97.536C58.24 103.936 52.5653 109.099 48.384 113.024C44.288 117.035 40.3627 119.936 36.608 121.728C32.8533 123.52 29.5253 124.416 26.624 124.416ZM30.208 121.088C33.3653 121.088 36.48 119.851 39.552 117.376C42.624 114.987 45.568 111.872 48.384 108.032C51.2853 104.192 53.888 100.096 56.192 95.744C58.5813 91.392 60.6293 87.2533 62.336 83.328C64.0427 79.4027 65.3227 76.2453 66.176 73.856C59.1787 76.16 52.6933 79.232 46.72 83.072C40.7467 86.912 35.4133 91.7333 30.72 97.536C28.16 100.693 26.2827 103.637 25.088 106.368C23.9787 109.099 23.424 111.531 23.424 113.664C23.424 115.968 24.0213 117.76 25.216 119.04C26.496 120.405 28.16 121.088 30.208 121.088Z" fill="black"/>
</svg>
