<svg width="656" height="109" viewBox="0 0 656 109" fill="none" xmlns="http://www.w3.org/2000/svg">
<path opacity="0.9" d="M637.328 93.392C635.28 93.392 633.317 93.0507 631.44 92.368C629.563 91.7707 628.027 90.704 626.832 89.168C625.637 87.632 625.04 85.5413 625.04 82.896V52.816C625.04 50.768 624.912 49.232 624.656 48.208C624.4 47.184 623.803 46.544 622.864 46.288C621.925 45.9467 620.475 45.776 618.512 45.776C618.171 45.776 618 45.52 618 45.008C618 44.4107 618.171 44.112 618.512 44.112C621.925 44.0267 624.699 43.088 626.832 41.296C629.051 39.504 630.288 37.2 630.544 34.384C630.544 34.128 630.843 34 631.44 34C632.123 34 632.464 34.128 632.464 34.384V56.464V78.544C632.464 82.0427 633.317 84.6453 635.024 86.352C636.816 88.0587 639.333 88.912 642.576 88.912C644.795 88.912 646.757 88.5707 648.464 87.888C650.256 87.12 652.603 85.4387 653.712 84.5C654.053 84.3293 654.744 85.5733 655 86C655.341 86.3413 654.053 86.352 653.712 86.608C650.555 88.9973 647.696 90.7467 645.136 91.856C642.661 92.88 640.059 93.392 637.328 93.392ZM649.744 48.72C646.416 47.8667 643.216 47.312 640.144 47.056C637.072 46.8 633.787 46.672 630.288 46.672V43.856C633.701 43.856 636.987 43.728 640.144 43.472C643.301 43.216 646.672 42.9173 650.256 42.576C650.427 42.576 650.597 42.8747 650.768 43.472C651.024 44.0693 651.152 44.7947 651.152 45.648C651.152 46.2453 650.981 46.928 650.64 47.696C650.384 48.464 650.085 48.8053 649.744 48.72Z" fill="#2B2926"/>
<path opacity="0.9" d="M554.901 92.8C554.645 92.8 554.517 92.544 554.517 92.032C554.517 91.52 554.645 91.264 554.901 91.264C558.229 91.264 560.405 90.7093 561.429 89.6C562.453 88.4053 562.965 86.016 562.965 82.432V16.256C562.965 13.2693 562.667 11.0933 562.069 9.728C561.472 8.27733 560.405 7.552 558.869 7.552C557.589 7.552 555.627 8.14934 552.981 9.344C552.64 9.51467 552.341 9.38667 552.085 8.96C551.915 8.448 552 8.10667 552.341 7.936L568.597 0C568.768 0 568.853 0 568.853 0C568.853 0 568.896 0 568.981 0C569.237 0 569.493 0.127998 569.749 0.383995C570.005 0.554665 570.133 0.768 570.133 1.024V82.432C570.133 86.016 570.645 88.4053 571.669 89.6C572.693 90.7093 574.869 91.264 578.197 91.264C578.453 91.264 578.581 91.52 578.581 92.032C578.581 92.544 578.453 92.8 578.197 92.8C576.661 92.8 574.912 92.7573 572.949 92.672C570.987 92.5867 568.853 92.544 566.549 92.544C564.331 92.544 562.197 92.5867 560.149 92.672C558.101 92.7573 556.352 92.8 554.901 92.8ZM589.333 92.8C589.077 92.8 588.949 92.544 588.949 92.032C588.949 91.52 589.077 91.264 589.333 91.264C592.661 91.264 594.837 90.7093 595.861 89.6C596.885 88.4053 597.397 86.016 597.397 82.432V62.08C597.397 52.096 593.472 47.104 585.621 47.104C582.464 47.104 579.264 48.128 576.021 50.176C572.779 52.1387 570.005 54.8267 567.701 58.24L567.189 56.704C570.944 51.584 574.656 47.872 578.325 45.568C582.08 43.264 585.92 42.112 589.845 42.112C594.539 42.112 598.165 43.4347 600.725 46.08C603.285 48.64 604.565 52.48 604.565 57.6V82.432C604.565 86.016 605.077 88.4053 606.101 89.6C607.125 90.7093 609.301 91.264 612.629 91.264C612.885 91.264 613.013 91.52 613.013 92.032C613.013 92.544 612.885 92.8 612.629 92.8C611.093 92.8 609.344 92.7573 607.381 92.672C605.419 92.5867 603.285 92.544 600.981 92.544C598.763 92.544 596.629 92.5867 594.581 92.672C592.533 92.7573 590.784 92.8 589.333 92.8Z" fill="#2B2926"/>
<path opacity="0.9" d="M515.185 108.84C509.212 108.84 504.561 107.475 501.233 104.744C497.905 102.099 496.241 98.7707 496.241 94.76C496.241 90.664 497.948 86.7387 501.361 82.984C504.774 79.3147 509.596 75.688 515.825 72.104L517.233 73.768C514.758 74.9627 512.454 76.2853 510.321 77.736C508.273 79.1867 506.609 80.8933 505.329 82.856C504.134 84.904 503.537 87.464 503.537 90.536C503.537 93.4373 504.177 95.9547 505.457 98.088C506.822 100.307 508.742 102.013 511.217 103.208C513.777 104.403 516.849 105 520.433 105C526.321 105 531.142 103.464 534.897 100.392C538.652 97.32 540.529 93.1387 540.529 87.848C540.529 84.264 539.633 81.704 537.841 80.168C536.134 78.632 533.745 77.6507 530.673 77.224C527.686 76.8827 524.188 76.712 520.177 76.712C516.422 76.6267 512.966 76.4133 509.809 76.072C506.652 75.816 504.134 75.0053 502.257 73.64C500.38 72.36 499.441 70.312 499.441 67.496C499.441 64.5947 500.38 62.0773 502.257 59.944C504.134 57.7253 506.737 55.336 510.065 52.776L511.473 53.928C509.425 55.5493 507.974 57.0427 507.121 58.408C506.268 59.7733 505.841 61.2667 505.841 62.888C505.841 64.7653 506.438 66.216 507.633 67.24C508.828 68.264 510.79 68.9893 513.521 69.416C516.252 69.7573 519.878 69.9707 524.401 70.056C526.534 70.056 528.838 70.0987 531.313 70.184C533.873 70.2693 536.348 70.696 538.737 71.464C541.126 72.1467 543.089 73.384 544.625 75.176C546.161 76.968 546.929 79.5707 546.929 82.984C546.929 86.568 546.033 89.896 544.241 92.968C542.534 96.1253 540.188 98.8987 537.201 101.288C534.214 103.677 530.801 105.512 526.961 106.792C523.121 108.157 519.196 108.84 515.185 108.84ZM518.897 55.976C514.801 55.976 511.302 55.208 508.401 53.672C505.5 52.136 503.281 50.088 501.745 47.528C500.209 44.968 499.441 42.2373 499.441 39.336C499.441 36.1787 500.294 33.3627 502.001 30.888C503.708 28.328 506.097 26.3227 509.169 24.872C512.241 23.4213 515.782 22.696 519.793 22.696C524.401 22.696 528.113 23.5493 530.929 25.256C533.745 26.8773 535.793 28.968 537.073 31.528C538.353 34.0027 538.993 36.52 538.993 39.08C538.993 42.0667 538.182 44.84 536.561 47.4C534.94 49.96 532.593 52.0507 529.521 53.672C526.534 55.208 522.993 55.976 518.897 55.976ZM521.329 54.056C524.06 54.056 526.321 53.1173 528.113 51.24C529.99 49.3627 530.929 46.248 530.929 41.896C530.929 38.2267 530.289 35.112 529.009 32.552C527.729 29.992 526.022 28.0293 523.889 26.664C521.756 25.2987 519.366 24.616 516.721 24.616C513.905 24.616 511.601 25.512 509.809 27.304C508.102 29.096 507.249 32.0827 507.249 36.264C507.249 40.2747 507.974 43.6027 509.425 46.248C510.876 48.8933 512.668 50.856 514.801 52.136C516.934 53.416 519.11 54.056 521.329 54.056ZM530.673 32.296L530.801 28.072C533.446 26.3653 534.964 26.1947 537.439 25.256C539.914 24.232 537.928 24.616 541 24.616C541.171 24.616 542 24.616 543 24.872C543.171 25.4693 544.196 25.795 545 26.5C546.5 27.816 547.756 28.3907 547.5 29.5C547.329 30.524 545.841 28.8827 545.5 28.712C544.732 28.3707 544 28.456 542 27.816C540 27.816 539.676 27.816 537.713 27.816C536.604 27.816 535.58 27.9013 534.641 28.072C533.702 28.2427 532.764 28.456 531.825 28.712L530.673 32.296Z" fill="#2B2926"/>
<path opacity="0.9" d="M465.79 93.288C465.62 93.288 465.534 93.032 465.534 92.52C465.534 92.008 465.62 91.752 465.79 91.752C469.118 91.752 471.294 91.1973 472.318 90.088C473.428 88.8933 473.982 86.504 473.982 82.92V58.984C473.982 55.9973 473.684 53.8213 473.086 52.456C472.489 51.0053 471.38 50.28 469.758 50.28C469.076 50.28 468.265 50.4507 467.326 50.792C466.388 51.048 465.278 51.4747 463.998 52.072C463.657 52.1573 463.358 51.9867 463.102 51.56C462.932 51.048 462.974 50.7067 463.23 50.536L479.87 42.856C480.126 42.7707 480.297 42.728 480.382 42.728C480.553 42.728 480.766 42.856 481.022 43.112C481.278 43.2827 481.406 43.496 481.406 43.752C481.406 44.4347 481.364 46.0987 481.278 48.744C481.193 51.3893 481.15 54.76 481.15 58.856V82.92C481.15 86.504 481.62 88.8933 482.558 90.088C483.582 91.1973 485.801 91.752 489.214 91.752C489.47 91.752 489.598 92.008 489.598 92.52C489.598 93.032 489.47 93.288 489.214 93.288C487.678 93.288 485.886 93.2453 483.838 93.16C481.876 93.0747 479.785 93.032 477.566 93.032C475.348 93.032 473.214 93.0747 471.166 93.16C469.204 93.2453 467.412 93.288 465.79 93.288ZM476.542 27.752C474.836 27.752 473.47 27.2827 472.446 26.344C471.422 25.4053 470.91 24.0827 470.91 22.376C470.91 20.6693 471.422 19.3467 472.446 18.408C473.47 17.4693 474.836 17 476.542 17C478.249 17 479.572 17.4693 480.51 18.408C481.449 19.3467 481.918 20.6693 481.918 22.376C481.918 25.96 480.126 27.752 476.542 27.752Z" fill="#2B2926"/>
<path opacity="0.9" d="M413.456 22.496V81.12C413.456 83.424 413.712 85.1733 414.224 86.368C414.736 87.5627 415.717 88.3733 417.168 88.8C418.704 89.1413 420.88 89.312 423.696 89.312H437.648C442.597 89.312 446.523 87.776 449.424 84.704C452.325 81.5467 454.203 77.4507 455.056 72.416C455.056 72.16 455.269 72.0747 455.696 72.16C456.208 72.16 456.464 72.288 456.464 72.544C456.208 74.848 455.952 77.664 455.696 80.992C455.44 84.2347 455.312 87.264 455.312 90.08C455.312 91.36 454.672 92 453.392 92H394.256C394.085 92 394 91.744 394 91.232C394 90.72 394.085 90.464 394.256 90.464C397.328 90.464 399.632 90.2507 401.168 89.824C402.789 89.3973 403.856 88.544 404.368 87.264C404.88 85.984 405.136 84.1067 405.136 81.632V52V22.368C405.136 19.8933 404.88 18.0587 404.368 16.864C403.856 15.584 402.789 14.7307 401.168 14.304C399.632 13.792 397.328 13.536 394.256 13.536C394.085 13.536 394 13.28 394 12.768C394 12.256 394.085 12 394.256 12C396.304 12 398.608 12.0853 401.168 12.256C403.728 12.3413 406.416 12.384 409.232 12.384C412.219 12.384 414.992 12.3413 417.552 12.256C420.112 12.0853 422.373 12 424.336 12C424.592 12 424.72 12.256 424.72 12.768C424.72 13.28 424.592 13.536 424.336 13.536C421.264 13.536 418.917 13.792 417.296 14.304C415.76 14.7307 414.736 15.584 414.224 16.864C413.712 18.144 413.456 20.0213 413.456 22.496Z" fill="#2B2926"/>
<path opacity="0.9" d="M332.869 93.072C332.613 93.072 332.485 92.816 332.485 92.304C332.485 91.792 332.613 91.536 332.869 91.536C336.197 91.536 338.331 90.9813 339.269 89.872C340.293 88.6773 340.805 86.288 340.805 82.704V61.968C340.805 56.848 339.867 53.136 337.989 50.832C336.112 48.4427 333.125 47.248 329.029 47.248C325.957 47.248 322.8 48.2293 319.557 50.192C316.315 52.1547 313.541 54.8427 311.237 58.256L310.725 56.72C314.48 51.6853 318.192 47.9733 321.861 45.584C325.616 43.1947 329.413 42 333.253 42C337.947 42 341.573 43.3227 344.133 45.968C346.779 48.528 348.101 52.4107 348.101 57.616V82.704C348.101 86.288 348.571 88.6773 349.509 89.872C350.533 90.9813 352.709 91.536 356.037 91.536C356.293 91.536 356.421 91.792 356.421 92.304C356.421 92.816 356.293 93.072 356.037 93.072C354.587 93.072 352.837 93.0293 350.789 92.944C348.827 92.8587 346.736 92.816 344.517 92.816C342.299 92.816 340.165 92.8587 338.117 92.944C336.069 93.0293 334.32 93.072 332.869 93.072ZM298.437 93.072C298.181 93.072 298.053 92.816 298.053 92.304C298.053 91.792 298.181 91.536 298.437 91.536C301.765 91.536 303.899 90.9813 304.837 89.872C305.861 88.6773 306.373 86.288 306.373 82.704V57.36C306.373 54.544 306.032 52.496 305.349 51.216C304.752 49.8507 303.6 49.168 301.893 49.168C301.04 49.168 300.016 49.3387 298.821 49.68C297.712 50.0213 296.432 50.4907 294.981 51.088C294.64 51.1733 294.341 51.0027 294.085 50.576C293.915 50.1493 294 49.8507 294.341 49.68L309.189 42.64C309.445 42.5547 309.701 42.512 309.957 42.512C310.555 42.512 311.323 43.408 312.261 45.2C313.2 46.992 313.669 49.5947 313.669 53.008V82.704C313.669 86.288 314.139 88.6773 315.077 89.872C316.101 90.9813 318.277 91.536 321.605 91.536C321.861 91.536 321.989 91.792 321.989 92.304C321.989 92.816 321.861 93.072 321.605 93.072C320.155 93.072 318.405 93.0293 316.357 92.944C314.395 92.8587 312.304 92.816 310.085 92.816C307.867 92.816 305.733 92.8587 303.685 92.944C301.637 93.0293 299.888 93.072 298.437 93.072Z" fill="#2B2926"/>
<path opacity="0.9" d="M250.79 93.288C250.62 93.288 250.534 93.032 250.534 92.52C250.534 92.008 250.62 91.752 250.79 91.752C254.118 91.752 256.294 91.1973 257.318 90.088C258.428 88.8933 258.982 86.504 258.982 82.92V58.984C258.982 55.9973 258.684 53.8213 258.086 52.456C257.489 51.0053 256.38 50.28 254.758 50.28C254.076 50.28 253.265 50.4507 252.326 50.792C251.388 51.048 250.278 51.4747 248.998 52.072C248.657 52.1573 248.358 51.9867 248.102 51.56C247.932 51.048 247.974 50.7067 248.23 50.536L264.87 42.856C265.126 42.7707 265.297 42.728 265.382 42.728C265.553 42.728 265.766 42.856 266.022 43.112C266.278 43.2827 266.406 43.496 266.406 43.752C266.406 44.4347 266.364 46.0987 266.278 48.744C266.193 51.3893 266.15 54.76 266.15 58.856V82.92C266.15 86.504 266.62 88.8933 267.558 90.088C268.582 91.1973 270.801 91.752 274.214 91.752C274.47 91.752 274.598 92.008 274.598 92.52C274.598 93.032 274.47 93.288 274.214 93.288C272.678 93.288 270.886 93.2453 268.838 93.16C266.876 93.0747 264.785 93.032 262.566 93.032C260.348 93.032 258.214 93.0747 256.166 93.16C254.204 93.2453 252.412 93.288 250.79 93.288ZM261.542 27.752C259.836 27.752 258.47 27.2827 257.446 26.344C256.422 25.4053 255.91 24.0827 255.91 22.376C255.91 20.6693 256.422 19.3467 257.446 18.408C258.47 17.4693 259.836 17 261.542 17C263.249 17 264.572 17.4693 265.51 18.408C266.449 19.3467 266.918 20.6693 266.918 22.376C266.918 25.96 265.126 27.752 261.542 27.752Z" fill="#2B2926"/>
<path opacity="0.9" d="M182.088 91.28L164.168 52.624C162.461 48.784 161.053 46.3093 159.944 45.2C158.835 44.0907 157.469 43.536 155.848 43.536C155.677 43.536 155.592 43.28 155.592 42.768C155.592 42.256 155.677 42 155.848 42C157.128 42 158.493 42.0427 159.944 42.128C161.395 42.2133 162.888 42.256 164.424 42.256C167.325 42.256 169.8 42.2133 171.848 42.128C173.981 42.0427 175.901 42 177.608 42C177.864 42 177.992 42.256 177.992 42.768C177.992 43.28 177.864 43.536 177.608 43.536C175.048 43.536 173 43.8773 171.464 44.56C170.013 45.2427 169.757 46.5653 170.696 48.528L184.555 86L183.496 88.592L198.344 52.24C199.624 49.168 199.539 46.9493 198.088 45.584C196.637 44.2187 193.651 43.536 189.128 43.536C188.957 43.536 188.872 43.28 188.872 42.768C188.872 42.256 188.957 42 189.128 42C191.176 42 193.096 42.0427 194.888 42.128C196.765 42.2133 199.155 42.256 202.056 42.256C203.933 42.256 205.427 42.2133 206.536 42.128C207.645 42.0427 209.011 42 210.632 42C210.888 42 211.016 42.256 211.016 42.768C211.016 43.28 210.888 43.536 210.632 43.536C208.584 43.536 206.835 44.2187 205.384 45.584C203.933 46.864 202.44 49.296 200.904 52.88L184.904 91.28C184.819 91.6213 184.349 91.792 183.496 91.792C182.728 91.792 182.259 91.6213 182.088 91.28ZM151.88 91.28L133.96 52.624C132.168 48.784 130.675 46.3093 129.48 45.2C128.371 44.0907 127.005 43.536 125.384 43.536C125.128 43.536 125 43.28 125 42.768C125 42.256 125.128 42 125.384 42C126.664 42 128.029 42.0427 129.48 42.128C131.016 42.2133 132.595 42.256 134.216 42.256C136.947 42.256 139.336 42.2133 141.384 42.128C143.517 42.0427 145.523 42 147.4 42C147.656 42 147.784 42.256 147.784 42.768C147.784 43.28 147.656 43.536 147.4 43.536C144.669 43.536 142.579 43.8773 141.128 44.56C139.763 45.2427 139.549 46.5653 140.488 48.528L154.696 84.8859L153.16 88.592L167.112 54.928L169.288 56.336L154.696 91.28C154.611 91.6213 154.141 91.792 153.288 91.792C152.52 91.792 152.051 91.6213 151.88 91.28Z" fill="#2B2926"/>
<path opacity="0.9" d="M97.96 94.736C92.9253 94.736 88.5307 93.4987 84.776 91.024C81.0213 88.5493 78.12 85.264 76.072 81.168C74.024 76.9867 73 72.5067 73 67.728C73 63.2907 73.8107 59.4507 75.432 56.208C77.0533 52.9653 79.2293 50.32 81.96 48.272C84.6907 46.1387 87.6347 44.56 90.792 43.536C94.0347 42.512 97.192 42 100.264 42C105.469 42 109.907 43.28 113.576 45.84C117.331 48.4 120.189 51.6853 122.152 55.696C124.115 59.7067 125.096 63.9307 125.096 68.368C125.096 73.8293 123.859 78.5227 121.384 82.448C118.909 86.3733 115.624 89.4027 111.528 91.536C107.432 93.6693 102.909 94.736 97.96 94.736ZM101.672 92.304C106.195 92.304 109.779 90.7253 112.424 87.568C115.069 84.3253 116.392 79.12 116.392 71.952C116.392 66.576 115.496 61.84 113.704 57.744C111.997 53.5627 109.608 50.32 106.536 48.016C103.464 45.6267 99.9653 44.432 96.04 44.432C91.5173 44.432 87.976 46.096 85.416 49.424C82.856 52.752 81.576 57.5307 81.576 63.76C81.576 68.9653 82.4293 73.744 84.136 78.096C85.8427 82.448 88.1893 85.904 91.176 88.464C94.248 91.024 97.7467 92.304 101.672 92.304Z" fill="#2B2926"/>
<path opacity="0.9" d="M87.1436 11.5C87.2949 11.5 87.45 11.5394 87.5889 11.6318C87.7247 11.7224 87.8172 11.8454 87.8789 11.9688C87.995 12.2011 88.0283 12.4862 88.0283 12.7676C88.0283 13.0491 87.9951 13.3349 87.8789 13.5674C87.8172 13.6907 87.7247 13.8137 87.5889 13.9043C87.45 13.9967 87.2949 14.0361 87.1436 14.0361C84.5072 14.0362 82.1278 14.7351 79.9932 16.1309C77.9814 17.5023 76.1981 20.0405 74.6807 23.834L47.416 92.0576C47.3011 92.4105 47.0089 92.6158 46.707 92.7256C46.3921 92.8401 45.9936 92.8838 45.5439 92.8838C45.1297 92.8838 44.7559 92.8385 44.4453 92.7256C44.1287 92.6104 43.847 92.4127 43.6885 92.0957L43.6855 92.0889L43.6816 92.0811L27.7461 57.457L11.8096 22.833L11.8076 22.8281C10.3696 19.6138 8.87121 17.3893 7.33398 16.0947L7.3125 16.0752C5.89123 14.733 3.93498 14.0361 1.38379 14.0361C1.23237 14.0361 1.07741 13.9969 0.938477 13.9043C0.802609 13.8137 0.710095 13.6907 0.648438 13.5674C0.532325 13.335 0.5 13.049 0.5 12.7676C0.500032 12.4863 0.532428 12.201 0.648438 11.9688C0.710087 11.8455 0.80264 11.7224 0.938477 11.6318C1.07741 11.5392 1.23236 11.5 1.38379 11.5C2.59019 11.5 3.75506 11.5435 4.87793 11.6299C5.97826 11.7145 7.1211 11.7991 8.30566 11.8838H18.792C20.7444 11.7988 22.4848 11.7138 24.0127 11.6289C25.5559 11.5432 26.973 11.5 28.2637 11.5C28.415 11.5 28.5701 11.5393 28.709 11.6318C28.8449 11.7224 28.9374 11.8454 28.999 11.9688C29.1151 12.2011 29.1484 12.4863 29.1484 12.7676C29.1484 13.0491 29.1152 13.3349 28.999 13.5674C28.9374 13.6907 28.8449 13.8137 28.709 13.9043C28.5701 13.9968 28.415 14.0361 28.2637 14.0361C24.9765 14.0362 22.7932 14.6721 21.5693 15.8164C21.0545 16.3357 20.7888 17.0614 20.8271 18.0605C20.8614 18.9507 21.1382 20.0392 21.6836 21.335L21.9346 21.9033V21.9043L48.2266 79.4785L70.8076 22.6953L70.8086 22.6924C72.0701 19.5806 71.9828 17.4743 70.8877 16.1602C70.3424 15.5058 69.3905 14.9678 67.9473 14.5967C66.5099 14.2271 64.6355 14.0361 62.3115 14.0361C62.1602 14.036 62.0051 13.9969 61.8662 13.9043C61.7304 13.8137 61.6388 13.6906 61.5771 13.5674C61.4609 13.3349 61.4277 13.0491 61.4277 12.7676C61.4278 12.4862 61.461 12.2011 61.5771 11.9688C61.6388 11.8455 61.7305 11.7224 61.8662 11.6318C62.0051 11.5393 62.1602 11.5001 62.3115 11.5C64.4565 11.5 66.4761 11.5859 68.3691 11.7578C70.2335 11.8421 72.6936 11.8838 75.752 11.8838C78.2157 11.8838 80.1633 11.8418 81.5986 11.7578C83.1554 11.5855 85.0047 11.5 87.1436 11.5Z" fill="#2B2926" stroke="black"/>
</svg>
